<?xml version="1.0" encoding="UTF-8"?>
<svg id="Ebene_2" data-name="Ebene 2" xmlns="http://www.w3.org/2000/svg" viewBox="0 0 199.3 202.81">
  <defs>
    <style>
      .cls-1 {
        fill: #e30613;
      }

      .cls-2 {
        fill: #36a9e1;
      }

      .cls-3 {
        fill: #1d1d1b;
      }

      .cls-4 {
        fill: #f9b233;
      }
    </style>
  </defs>
  <g id="Ebene_1-2" data-name="Ebene 1">
    <g>
      <g id="Temperatur">
        <path class="cls-3" d="M109.41,115.99V22.47c0-12.06-9.77-21.83-21.83-21.83h0c-12.06,0-21.83,9.77-21.83,21.83v93.52c-13.04,7.55-21.83,21.62-21.83,37.77,0,24.11,19.55,43.66,43.66,43.66s43.66-19.55,43.66-43.66c0-16.15-8.79-30.22-21.83-37.77ZM87.58,190.14c-20.09,0-36.38-16.29-36.38-36.38,0-14.91,8.98-27.72,21.83-33.33V24.73c0-8.04,6.52-14.55,14.55-14.55h0c8.04,0,14.55,6.52,14.55,14.55v95.69c12.84,5.62,21.83,18.42,21.83,33.33,0,20.09-16.29,36.38-36.38,36.38Z"/>
        <path class="cls-1" d="M93.74,129.82V59.38c0-3.4-2.76-6.16-6.16-6.16s-6.16,2.76-6.16,6.16v70.44c-10.68,2.74-18.58,12.4-18.58,23.93,0,13.66,11.08,24.74,24.74,24.74s24.74-11.08,24.74-24.74c0-11.53-7.9-21.19-18.58-23.93Z"/>
        <g>
          <path class="cls-3" d="M141.43,34.61h-17.46c-2.01,0-3.64-1.63-3.64-3.64s1.63-3.64,3.64-3.64h17.46c2.01,0,3.64,1.63,3.64,3.64s-1.63,3.64-3.64,3.64Z"/>
          <path class="cls-3" d="M134.15,50.51h-10.19c-2.01,0-3.64-1.63-3.64-3.64s1.63-3.64,3.64-3.64h10.19c2.01,0,3.64,1.63,3.64,3.64s-1.63,3.64-3.64,3.64Z"/>
          <path class="cls-3" d="M141.43,66.41h-17.46c-2.01,0-3.64-1.63-3.64-3.64s1.63-3.64,3.64-3.64h17.46c2.01,0,3.64,1.63,3.64,3.64s-1.63,3.64-3.64,3.64Z"/>
          <path class="cls-3" d="M141.43,98.2h-17.46c-2.01,0-3.64-1.63-3.64-3.64s1.63-3.64,3.64-3.64h17.46c2.01,0,3.64,1.63,3.64,3.64s-1.63,3.64-3.64,3.64Z"/>
          <path class="cls-3" d="M134.15,82.31h-10.19c-2.01,0-3.64-1.63-3.64-3.64s1.63-3.64,3.64-3.64h10.19c2.01,0,3.64,1.63,3.64,3.64s-1.63,3.64-3.64,3.64Z"/>
        </g>
      </g>
      <g>
        <path class="cls-4" d="M28.24,21.73c-4.03-4.28-8.86-10.85-13.13-6.74-1.51,1.45-2.08,4.19-.3,6l6.77,6.89c1.88,1.91,4.49,2.05,6.34.48s2.26-4.55.32-6.62Z"/>
        <path class="cls-4" d="M46.53,3.57c-.73-2.87-3.16-3.99-5.67-3.43s-3.82,2.94-3.13,5.59l2.21,8.51c.65,2.51,2.62,4.19,5.04,3.91s4.62-2.58,3.94-5.26l-2.38-9.32Z"/>
        <path class="cls-4" d="M5.27,37.57c-2.42-.55-4.48,1.2-5.06,3.13-.62,2.06.39,4.79,2.78,5.44l9.77,2.64c2.47.67,4.79-1.04,5.42-3.36.52-1.93-.71-4.61-3.09-5.3-3.29-.95-6.53-1.8-9.83-2.55Z"/>
        <path class="cls-4" d="M48.91,98.49c.6-2.49-1.31-4.64-3.35-5.24-1.77-.52-4.63.5-5.26,2.83l-2.61,9.71c-.63,2.33.78,4.41,2.56,5.22,2.22,1.01,5.11-.02,5.92-2.56,1.03-3.21,1.92-6.51,2.75-9.95Z"/>
        <path class="cls-4" d="M13.06,62.48c-5.56,1.32-14.73,2.55-12.8,8.33.68,2.02,2.9,3.6,5.38,2.93l9.7-2.63c2.34-.63,3.36-3.48,2.83-5.25-.6-2-2.76-3.94-5.11-3.38Z"/>
        <path class="cls-4" d="M28.31,83.44c-4.13-4.4-8.25,1.52-13.54,7.06-1.64,1.72-1.14,4.24.18,5.65s3.82,2.35,5.61.75c2.97-2.65,5.82-5.47,8.42-8.5,1.32-1.54.33-3.9-.66-4.97Z"/>
        <path class="cls-4" d="M55.74,22.25c-8.32.02-16.64,3.09-23.07,9.22-13.31,12.67-13.81,33.76-1.36,47.03,6.57,6.99,15.47,10.6,24.43,10.62V22.25Z"/>
      </g>
      <path class="cls-2" d="M199.29,153.39c-.12-1.92-1.65-3.87-3.82-3.89l-12.01-.13,4.57-7.24c1.34-2.12.76-4.94-1.34-6.19-2.03-1.21-4.76-.44-6.07,1.71l-7.56,11.79-22.18-.02,11.04-19.2,14.39-.7c2.37-.4,4.3-2.17,4.13-4.5-.15-2.13-1.82-4.2-4.3-4.1l-8.99.34,5.99-10.58c1.09-1.93-.12-4.38-1.6-5.31-1.6-1-4.58-.96-5.7.95l-6.22,10.58c-2.98-3.94-3.77-11.85-9.36-9.85-1.99.71-3.41,3-2.66,5.52l6.87,13.32-11.22,19.3c.43,2.81.66,5.68.66,8.61s-.22,5.79-.65,8.59l11.21,19.29-6.47,12.53c-1.21,2.33-.44,4.89,1.76,6.04,1.99,1.05,4.63.39,5.79-1.82l4.04-7.73,6.23,10.47c1.17,1.96,4.29,2.05,5.84.94,1.68-1.2,2.53-3.57,1.32-5.7l-5.73-10.1,9.33.3c2.36.07,3.85-2.32,3.86-4.36.01-2.13-1.53-3.71-3.8-4.18l-14.64-.74-11.06-19.2,22.16-.04,4.31,6.86,3.55,5.39c1.42,2.16,4.47,2.38,6.2.94,1.82-1.52,2.13-3.92.75-6.07l-4.52-7.06,12.57-.14c2.23-.03,3.44-2.78,3.33-4.6Z"/>
    </g>
  </g>
</svg>