<?xml version="1.0" encoding="UTF-8"?>
<svg id="Ebene_2" data-name="Ebene 2" xmlns="http://www.w3.org/2000/svg" viewBox="0 0 45.02 80.19">
  <defs>
    <style>
      .cls-1 {
        fill: #fff;
      }

      .cls-2 {
        fill: #878787;
      }

      .cls-3 {
        fill: #1d1d1b;
      }
    </style>
  </defs>
  <g id="Ebene_1-2" data-name="Ebene 1">
    <g id="LED">
      <path class="cls-2" d="M40.94,38.1h-1.51v-18.22c0-10.29-7.61-18.63-17.01-18.63S5.41,9.59,5.41,19.88v18.22h-1.32c-1.57,0-2.83,1.27-2.83,2.83v4.25c0,1.57,1.27,2.83,2.83,2.83h36.85c1.57,0,2.83-1.27,2.83-2.83v-4.25c0-1.57-1.27-2.83-2.83-2.83Z"/>
      <path class="cls-3" d="M40.94,36.85h-.26v-18.59C40.67,8.19,32.48,0,22.41,0S4.16,8.19,4.16,18.26v18.59h-.07c-2.25,0-4.08,1.83-4.08,4.08v4.25c0,2.25,1.83,4.08,4.08,4.08h8.23v20.92c0,.83.67,1.5,1.5,1.5s1.5-.67,1.5-1.5v-20.92h14.01v29.42c0,.83.67,1.5,1.5,1.5s1.5-.67,1.5-1.5v-29.42h8.62c2.25,0,4.08-1.83,4.08-4.08v-4.25c0-2.25-1.83-4.08-4.08-4.08ZM6.66,18.26c0-8.69,7.07-15.76,15.76-15.76s15.76,7.07,15.76,15.76v18.59H6.66v-18.59ZM42.52,45.19c0,.87-.71,1.58-1.58,1.58H4.08c-.87,0-1.58-.71-1.58-1.58v-4.25c0-.87.71-1.58,1.58-1.58h36.85c.87,0,1.58.71,1.58,1.58v4.25Z"/>
      <ellipse class="cls-1" cx="14.56" cy="12.36" rx="6.38" ry="2.13" transform="translate(-3.91 17.2) rotate(-55)"/>
    </g>
  </g>
</svg>