<?xml version="1.0" encoding="UTF-8"?>
<svg id="Ebene_2" data-name="Ebene 2" xmlns="http://www.w3.org/2000/svg" viewBox="0 0 210.83 201.95">
  <defs>
    <style>
      .cls-1, .cls-2 {
        fill: #063;
      }

      .cls-3 {
        fill: #1d1d1b;
      }

      .cls-2 {
        opacity: .5;
      }

      .cls-4 {
        fill: none;
        stroke: #1d1d1b;
        stroke-miterlimit: 10;
        stroke-width: 6px;
      }
    </style>
  </defs>
  <g id="Ebene_1-2" data-name="Ebene 1">
    <g>
      <path class="cls-2" d="M129.8,77.17c-.9.29-1.87-.21-2.16-1.11l-5.27-16.37c-.29-.9.21-1.87,1.11-2.16l.82-.26-2.66-8.27c-1.74-5.42-7.56-8.41-12.98-6.66l-37.65,12.11,4.74,14.73c.29.9-.21,1.87-1.11,2.16l-22.92,7.37c-.9.29-1.87-.21-2.16-1.11l-4.74-14.73-37.65,12.11c-5.42,1.74-8.41,7.56-6.66,12.98l2.66,8.27.82-.26c.9-.29,1.87.21,2.16,1.11l5.27,16.37c.29.9-.21,1.87-1.11,2.16l-.82.26,20.51,63.76c1.74,5.42,7.56,8.41,12.98,6.66l13.59-4.37-1.79-5.57-2.95.95c-1.45.47-3-.33-3.46-1.78s.33-3,1.78-3.46l2.95-.95-4.69-14.57c-.29-.9.21-1.87,1.11-2.16l71.05-22.85c.9-.29,1.87.21,2.16,1.11l4.69,14.57,2.95-.95c1.45-.47,3,.33,3.46,1.78s-.33,3-1.78,3.46l-2.95.95,1.79,5.57,13.59-4.37c5.42-1.74,8.41-7.56,6.66-12.98l-20.51-63.76-.82.26ZM21.28,82.36c-1.45.47-3-.33-3.46-1.78s.33-3,1.78-3.46,3,.33,3.46,1.78-.33,3-1.78,3.46ZM41.61,69.77c-1.13.36-2.34-.26-2.7-1.39s.26-2.34,1.39-2.7,2.34.26,2.7,1.39-.26,2.34-1.39,2.7ZM77.63,58.18c-1.13.36-2.34-.26-2.7-1.39s.26-2.34,1.39-2.7,2.34.26,2.7,1.39-.26,2.34-1.39,2.7ZM101.49,56.56c-1.45.47-3-.33-3.46-1.78s.33-3,1.78-3.46,3,.33,3.46,1.78-.33,3-1.78,3.46Z"/>
      <path class="cls-1" d="M200.09,99.45c-.9-.3-1.38-1.28-1.08-2.18l5.5-16.29c.3-.9,1.28-1.38,2.18-1.08l.81.27,2.78-8.23c1.82-5.4-1.08-11.25-6.48-13.08l-37.47-12.65-4.95,14.66c-.3.9-1.28,1.38-2.18,1.08l-22.81-7.7c-.9-.3-1.38-1.28-1.08-2.18l4.95-14.66-37.47-12.65c-5.4-1.82-11.25,1.08-13.08,6.48l-2.78,8.23.82.28c.9.3,1.38,1.28,1.08,2.18l-5.5,16.29c-.3.9-1.28,1.38-2.18,1.08l-.82-.28-21.42,63.46c-1.82,5.4,1.08,11.25,6.48,13.08l13.52,4.56,1.87-5.54-2.93-.99c-1.44-.49-2.21-2.05-1.73-3.49s2.05-2.21,3.49-1.73l2.93.99,4.89-14.5c.3-.9,1.28-1.38,2.18-1.08l70.71,23.87c.9.3,1.38,1.28,1.08,2.18l-4.89,14.5,2.93.99c1.44.49,2.21,2.05,1.73,3.49s-2.05,2.21-3.49,1.73l-2.93-.99-1.87,5.54,13.52,4.56c5.4,1.82,11.25-1.08,13.08-6.48l21.42-63.46-.81-.27ZM109.75,39.1c-1.44-.49-2.21-2.05-1.73-3.49s2.05-2.21,3.49-1.73,2.21,2.05,1.73,3.49-2.05,2.21-3.49,1.73ZM133.59,41.07c-1.12-.38-1.73-1.6-1.35-2.72s1.6-1.73,2.72-1.35,1.73,1.6,1.35,2.72-1.6,1.73-2.72,1.35ZM169.43,53.17c-1.12-.38-1.73-1.6-1.35-2.72s1.6-1.73,2.72-1.35,1.73,1.6,1.35,2.72-1.6,1.73-2.72,1.35ZM189.59,66.05c-1.44-.49-2.21-2.05-1.73-3.49s2.05-2.21,3.49-1.73,2.21,2.05,1.73,3.49-2.05,2.21-3.49,1.73Z"/>
      <g>
        <path class="cls-4" d="M145.16,14.54c-15.56-8.99-37.25-13.04-60.37-9.83-23.12,3.21-42.89,13-55.42,25.89"/>
        <polygon class="cls-3" points="161.21 28.37 145.89 0 143.62 13.92 130.41 18.85 161.21 28.37"/>
        <polygon class="cls-3" points="17.68 48.27 24.71 16.8 30.68 29.58 44.74 30.73 17.68 48.27"/>
      </g>
      <g>
        <path class="cls-4" d="M83.19,187.51c9.62,3.46,21.72,5.31,34.8,4.85,13.08-.46,25.01-3.15,34.37-7.28"/>
        <polygon class="cls-3" points="65.34 176.09 84.6 201.95 84.84 187.85 97.2 181.07 65.34 176.09"/>
        <polygon class="cls-3" points="169.36 172.44 151.97 199.59 150.74 185.54 137.93 179.64 169.36 172.44"/>
      </g>
    </g>
  </g>
</svg>