<?xml version="1.0" encoding="UTF-8"?>
<svg id="Ebene_2" data-name="Ebene 2" xmlns="http://www.w3.org/2000/svg" viewBox="0 0 203.11 198.17">
  <defs>
    <style>
      .cls-1 {
        fill: #b2b2b2;
      }

      .cls-2 {
        fill: #29235c;
      }

      .cls-3 {
        fill: #f9b233;
      }
    </style>
  </defs>
  <g id="Ebene_1-2" data-name="Ebene 1">
    <g>
      <path class="cls-2" d="M157.77,56.51c-7.54,5.94-10.89,15.06-8.75,24.47,1.88,8.27,8.26,15.38,17.19,17.72,1.91.5,3.35,1.92,3.71,3.72.38,1.92-.66,3.55-2.35,4.73-12.46,8.67-29.08,7.85-40.49-2.05-11.29-9.8-14.71-26.06-7.77-39.66,6.65-13.05,21.27-20.34,36.11-17.29,1.86.38,3.48,1.31,4.01,2.84.73,2.11.22,4.04-1.67,5.52Z"/>
      <g>
        <path class="cls-1" d="M37.67,198.17h53.3c2.22,0,3.29-2.27,3.21-4.06-.34-8.4-7.13-14.6-15.53-14.42-1.78-6.89-7.79-11.37-14.59-11.34-6.8.03-12.55,4.65-14.46,11.36-8.2-.13-14.45,5.62-15.47,13.45-.27,2.13.55,5.01,3.53,5.01Z"/>
        <path class="cls-1" d="M18.3,38.61h53.07c2.57,0,3.99-1.72,3.86-4.21-.44-8.27-7.14-14.27-15.53-14.29-1.8-6.7-7.65-11.16-14.23-11.28-6.78-.13-12.91,4.33-14.72,11.24-8.19.08-14.71,5.64-15.57,13.77-.23,2.18.44,4.27,3.12,4.77Z"/>
      </g>
      <g>
        <path class="cls-3" d="M45.73,85.28c-14.76-.28-26.51,11.49-26.8,25.71-.3,14.54,11.33,26.45,25.67,26.81,14.44.35,26.43-11.08,26.88-25.37.46-14.5-10.85-26.87-25.75-27.15Z"/>
        <path class="cls-3" d="M41.67,69.63c-.17,4.38-1.14,11.24,3.46,11.27,2.1.01,3.64-1.57,3.63-3.79l-.06-7.6c-.02-1.95-1.86-3.22-3.51-3.19s-3.44,1.38-3.52,3.31Z"/>
        <path class="cls-3" d="M41.65,145.67c-.14,4.61-1.1,10.95,3.55,11.04,1.65.03,3.48-1.17,3.5-3.16l.06-7.59c.02-2.11-1.36-3.63-3.26-3.79-1.88-.16-3.79,1.27-3.85,3.5Z"/>
        <path class="cls-3" d="M21.4,145.59c-1.19,2-.46,3.97,1.24,5.05s3.76.49,4.85-1.37l3.5-5.95c1.03-1.76.87-3.78-.63-4.97s-4-1.14-5.11.73l-3.86,6.5Z"/>
        <path class="cls-3" d="M25.18,83.87c1.06,1.8,3.57,2.01,4.93,1,1.63-1.2,1.98-3.27.89-5.12l-3.51-5.99c-1.06-1.81-3.28-2.44-4.85-1.38-1.68,1.13-2.42,3.05-1.3,4.95l3.84,6.53Z"/>
        <path class="cls-3" d="M63.21,149.63c1.04,1.65,3.16,1.82,4.55,1.07,1.49-.8,2.45-2.88,1.48-4.57l-3.96-6.89c-1-1.74-3.24-2.09-4.88-1.14-1.36.78-2.17,2.96-1.22,4.66,1.3,2.35,2.63,4.63,4.04,6.88Z"/>
        <path class="cls-3" d="M59.15,80.33c-.95,1.72.03,3.68,1.31,4.6,1.61,1.16,3.97.43,4.96-1.31l3.82-6.71c.98-1.72-.03-3.75-1.48-4.57s-3.47-.63-4.55,1.08c-1.41,2.23-2.75,4.54-4.06,6.9Z"/>
        <path class="cls-3" d="M72.81,91.54c-1.72,1.05-1.85,3.31-1.05,4.77.69,1.28,2.85,2.3,4.49,1.35l6.84-3.94c1.64-.94,2.01-2.88,1.48-4.32-.67-1.8-2.85-2.83-4.71-1.87-2.35,1.21-4.68,2.55-7.06,4Z"/>
        <path class="cls-3" d="M72.72,131.46c3.82,2.36,9.6,6.77,11.74,2.49.75-1.5.39-3.61-1.36-4.62l-6.85-3.93c-1.65-.95-3.8.06-4.49,1.35-.78,1.44-.65,3.72.96,4.72Z"/>
        <path class="cls-3" d="M14.04,97.57c1.83,1.04,3.89.05,4.7-1.4.91-1.62.49-3.64-1.32-4.73-3.87-2.33-9.32-6.74-11.49-2.15-.72,1.52-.21,3.53,1.51,4.51l6.6,3.77Z"/>
        <path class="cls-3" d="M7.55,129.19c-1.83,1.04-2.37,3.04-1.63,4.57s2.67,2.7,4.5,1.82c2.46-1.19,4.88-2.63,7.19-4.09,1.69-1.07,1.96-3.09,1.13-4.59-.8-1.44-2.88-2.43-4.58-1.47l-6.61,3.75Z"/>
        <path class="cls-3" d="M.01,111.38c-.32,4.77,6.64,3.67,11.66,3.56,1.78-.04,2.86-1.84,2.93-3.24.08-1.56-1.03-3.58-2.93-3.58H2.94c-1.68-.01-2.83,1.84-2.93,3.26Z"/>
        <path class="cls-3" d="M75.9,111.35c-.15,4.74,5.43,3.74,11.44,3.6,1.87-.04,2.99-1.72,3.04-3.24s-.82-3.43-2.7-3.53c-3.13-.18-6.28-.19-9.39.04-1.59.12-2.35,1.98-2.39,3.13Z"/>
      </g>
      <g>
        <path class="cls-2" d="M170.15,32.58c2.5-.05,4.32-1.83,4.53-4.13.2-2.24-1.57-4.26-3.92-4.66-2.76-.48-5.25,1.44-5.43,3.8-.23,2.93,1.87,5.05,4.82,4.99Z"/>
        <path class="cls-2" d="M171.04,146.25c2.35-.53,3.8-2.65,3.65-4.64-.16-2.1-1.86-3.83-4.11-4.07-2.98-.31-5.25,1.66-5.29,4.51-.03,2.61,2.63,4.91,5.75,4.21Z"/>
        <path class="cls-2" d="M113.58,8.85c2.67-.24,4.2-2.3,4.18-4.48-.02-2.3-1.92-4.27-4.45-4.37-2.78-.11-4.88,1.94-4.85,4.37.03,2.6,1.98,4.76,5.12,4.48Z"/>
        <path class="cls-2" d="M185.11,186.29c2.87-.23,4.41-2.39,4.21-4.77-.22-2.63-2.52-4.33-5.33-3.97-2.73.34-4.06,2.4-3.86,4.97.17,2.21,2.23,4,4.98,3.78Z"/>
        <path class="cls-2" d="M117.46,170.05c2.68.27,4.84-1.72,5.03-4.03.21-2.49-1.69-4.72-4.42-4.81-2.62-.09-4.69,1.64-4.84,3.96s1.29,4.59,4.23,4.88Z"/>
        <path class="cls-2" d="M102.26,75.03c1.99.39,4.12-.08,5.09-1.38,1.09-1.46,1.16-3.77.19-5.36-.92-1.53-3.11-2-5.12-1.69-2.18.34-3.33,2.12-3.39,4.01s.76,3.94,3.23,4.42Z"/>
        <path class="cls-2" d="M196.14,71.73c-2.15.98-2.84,3.54-2.17,5.26.9,2.29,3,3.27,5.55,2.84,2.79-.46,4.17-3.45,3.35-5.66-1-2.7-3.94-3.71-6.73-2.44Z"/>
      </g>
    </g>
  </g>
</svg>