<?xml version="1.0" encoding="UTF-8"?>
<svg id="Ebene_2" data-name="Ebene 2" xmlns="http://www.w3.org/2000/svg" viewBox="0 0 179.17 205.46">
  <defs>
    <style>
      .cls-1 {
        fill: #9d9d9c;
      }

      .cls-2 {
        fill: #1d71b8;
      }
    </style>
  </defs>
  <g id="Ebene_1-2" data-name="Ebene 1">
    <g>
      <path class="cls-1" d="M52.43,97.45c9.49,13.77,32.55,14.19,44.29,2.04,10.37,9.72,29.45,8.14,38.04-3.48,12.42,4.01,27.32.87,36.54-7.82,5.3-5,8.28-11.72,7.84-18.97-1.15-10.18-8.68-17.46-18.12-20.67,4.06-8.37,2.83-17.42-2.91-24.44-7.91-9.68-22.16-12.8-34.24-10.58-5.31-14.78-26.59-17.04-38.68-8.79-2.82,1.92-5.13,4.09-6.76,7.25-11.73-7.04-29.93-3.64-36.72,8.42-2,3.55-2.89,7.39-2.03,11.47C21.35,33.24,1.93,45.21.11,64.83c-.73,7.86,2.28,15.2,7.47,21.1,10.4,11.85,29.79,15.72,44.85,11.52Z"/>
      <g>
        <path class="cls-2" d="M98.6,196.35c-.49,3.76,1.9,7.12,5.1,8.51s7.33.08,9.44-2.73c2.34-3.11,2.01-7.1-.34-10.2-3.23-4.25-6.44-8.07-10.65-12.31-1.78,5.76-2.81,11.07-3.56,16.73Z"/>
        <path class="cls-2" d="M33.64,144.46c3.71.67,6.82-.67,8.55-3.38,1.91-2.98,1.81-6.38-.33-9.38-3.24-4.54-6.72-8.62-11.03-12.79-1.51,5.51-2.69,10.85-3.37,16.51-.5,4.17,1.96,8.21,6.19,9.03Z"/>
        <path class="cls-2" d="M147.63,171.21c-2-4.42-8.15-11.09-12.12-14.9-1.65,5.79-2.74,11.01-3.42,16.73-.4,3.37,1.46,6.45,3.96,7.91,3,1.77,6.55,1.26,9.12-.67s3.95-5.79,2.46-9.08Z"/>
        <path class="cls-2" d="M159.35,140.41c2.99-.42,5.24-2.57,6.16-4.9,1.1-2.81.7-5.67-1.17-8.2-3.24-4.39-6.71-8.34-10.78-12.63-1.74,5.46-2.98,11.14-3.45,17.06-.21,2.62.64,5.03,2.43,6.69,1.7,1.57,4.04,2.36,6.81,1.98Z"/>
        <path class="cls-2" d="M103.79,138.14c-2.46-4.35-7.86-10.61-11.83-14.19-1.56,5.69-2.69,10.66-3.35,16.11-.45,3.71.95,6.82,3.95,8.57s6.75,1.4,9.32-.95,3.84-6.14,1.91-9.54Z"/>
        <path class="cls-2" d="M55.75,175.36c-.42,3.46,1.24,6.67,4.18,8.27s6.72,1.25,9.29-1.13c2.3-2.13,3.53-5.99,1.89-9.1-2.52-4.78-7.9-10.62-11.95-14.62-1.59,5.85-2.72,10.93-3.41,16.58Z"/>
      </g>
    </g>
  </g>
</svg>