<?xml version="1.0" encoding="UTF-8"?>
<svg id="Ebene_2" data-name="Ebene 2" xmlns="http://www.w3.org/2000/svg" viewBox="0 0 56.69 69.14">
  <defs>
    <style>
      .cls-1 {
        fill: none;
      }

      .cls-2 {
        fill: #1d1d1b;
      }

      .cls-3 {
        fill: #c6c6c6;
      }
    </style>
  </defs>
  <g id="Ebene_1-2" data-name="Ebene 1">
    <g id="Timer">
      <path class="cls-2" d="M50.81,23.52l4.05-4.05c.55-.55.55-1.45,0-2l-3.19-3.19c-.55-.55-1.45-.55-2,0l-4.05,4.05c-3.9-3-8.6-5.01-13.73-5.65v-5.59h2.83c.78,0,1.42-.63,1.42-1.42V1.42c0-.78-.63-1.42-1.42-1.42h-12.76c-.78,0-1.42.63-1.42,1.42v4.25c0,.78.63,1.42,1.42,1.42h2.83v5.59C10.82,14.42,0,26.34,0,40.79c0,15.65,12.69,28.35,28.35,28.35s28.35-12.69,28.35-28.35c0-6.5-2.2-12.49-5.88-17.28ZM28.35,64.18c-12.92,0-23.39-10.47-23.39-23.39s10.47-23.39,23.39-23.39,23.39,10.47,23.39,23.39-10.47,23.39-23.39,23.39Z"/>
      <path class="cls-3" d="M28.35,20.95v19.84H8.5c0,10.96,8.88,19.84,19.84,19.84s19.84-8.88,19.84-19.84-8.88-19.84-19.84-19.84Z"/>
      <g>
        <rect class="cls-1" x="8.5" y="20.95" width="39.69" height="39.69"/>
        <path d="M21.1,46.87h3.22v3.32c.91.48,1.91.76,3.09.76,2.89,0,4.33-1.8,4.33-4.84,0-2.8-1.31-4.6-4.19-4.6-1.78,0-3.19.56-4.66,1.24l-1.31-.6,1.48-14.48h12.05v4.2h-8.86l-.67,6.32c.74-.44,2.05-.92,3.59-.92,4.29,0,6.74,3.44,6.74,8.68,0,5.64-2.92,9.2-8.52,9.2-2.89,0-5.13-1.12-6.64-2.32l.37-5.96Z"/>
      </g>
    </g>
  </g>
</svg>