<?xml version="1.0" encoding="UTF-8"?>
<svg id="Ebene_2" data-name="Ebene 2" xmlns="http://www.w3.org/2000/svg" viewBox="0 0 206.95 203.76">
  <defs>
    <style>
      .cls-1 {
        fill: #575756;
      }

      .cls-2 {
        fill: #008d36;
      }

      .cls-3 {
        fill: #7d4e24;
      }

      .cls-4 {
        fill: #be1622;
      }
    </style>
  </defs>
  <g id="Ebene_1-2" data-name="Ebene 1">
    <g>
      <path class="cls-2" d="M83.56,108.07c10.03,6.76,26.58,5.09,31.62-7.02,13.3-1.35,23.91-12.04,24.89-25.5.8-11.11-4.89-21.52-14.81-26.75,1.41-3.68,2.03-7.14,1.79-11.02s-1.83-7.91-3-10.34c-5.37-11.11-18.87-15.87-30.71-11.56C89.54,6.29,80.38.04,70.18,0c-10.18-.04-19.51,6.1-23.36,15.87-9.39-3.44-19.77-1.03-26.63,6.01s-9.08,17.47-5.29,26.9C5.04,53.98-.64,64.26.06,75.3c.85,13.44,11.38,24.36,24.87,25.73,4.89,11.61,21.17,13.69,31.09,8.1,6.17-3.48,21.4-5.2,27.55-1.06Z"/>
      <path class="cls-3" d="M56.25,138.66c-.87,5.35-3.94,10-7.47,14.13-.66.77-.76,1.74-.31,2.57.36.68,1.09,1.16,2.1,1.16h40.46c1.16,0,1.91-.61,2.26-1.49s-.05-1.68-.67-2.43c-1.72-2.09-3.13-4.24-4.39-6.64-4.22-8.04-5.79-18.03-6.38-27.08-.17-2.69.61-5.28,2.08-7.55.59-.92,1.7-2.78,2.28-3.71,1.78-2.87,7.2-11.43,7.2-11.43,1.44-2.29.64-5.14-1.33-6.61s-4.77-1.26-6.62.57l-5.2,5.18,1.57-12.22c.22-1.74-.05-3.26-1.11-4.53s-2.52-1.62-4.25-1.86c-2.85-.39-5.85.94-6.39,3.98l-3.49,19.34-10.44-12.75c-1.63-1.99-4.22-2.33-6.46-1.24-1.4.48-2.68,1.24-3.59,2.33-1.33,2.04-1,4.18.18,6.15,0,0,7.01,9.84,8.18,13.64,2.25,7.3,3.03,22.97,1.8,30.51Z"/>
      <g>
        <path class="cls-1" d="M172.86,90.28c-.75.12-5.56,1.54-5.56,1.54-4.13-5.5-10.57-7.23-17.07-6.71s-9.55,6.42-14.05,9.9-11.09,5.17-13.66,10.99c-2.79,6.29-1.98,15.69-.67,19.2s4.09,8.05,11.15,10.75c2.52.96,5.1.92,7.18-.3,5.46-3.2,2.09-7.84,5.12-7.77.97,5.31-2.73,9.98-8.47,10.5,5.38,8.63,15.65,12.66,25.59,10.85,4.09,6.8,11.16,13.12,19.16,8.16,3.82-2.37,5.12-7.01,3.88-11.12-.08-.26.13-1.03.22-1.29.06-.2,1.01-.11,1.18.3,1.95,4.71,0,11.8-5.4,14.14-3.25,1.41-6.53,1.9-9.96.73h0c-4.76,1.56-6.62,8.2-7.69,12.45-.57,2.27-1.5,4.27-1.56,6.82-.2,7.97-8.78,11.39-8.17,12.09,1.85,2.13,9.37,2.82,11.95,3.05,5.08.46,7.17-3.48,10.52-5.13,3.42-1.68,8.9-1.08,10.52-6.66-3.07-.21-5.77-2.52-6.97-5.07-1.26-2.69-.87-6.35.69-8.59.17-.24,1.23-.19,1.27.07.21,1.34-2.81,5.39.52,9.39,2,2.39,5.22,3.29,8.11,2.17,3.08-1.18,4.02-4.63,5.46-6.92,6.53-1.71,11.41-6.81,9.14-14.38-4.19,3.74-10.79,1.53-13.04-2.66-.22-.42.86-1.09,1.06-.88,2.44,2.51,5.3,5.08,9.53,3.15,3-1.37,4.67-4.68,3.95-8.08-.43-2.06-1.45-3.83-2.66-5.52,2.35-7.22,1.15-15.06-3.53-21.13-5.77,7.61-15.51,9.9-23.95,5.74-.27-.14-.55-.83-.45-1.12s.98-.49,1.46-.25c7.77,3.87,19.22,1.15,22.52-7.67,3.43-9.16-2.52-19.84-8.05-25.44-5.53-5.6-13.92-6.13-19.26-5.3Z"/>
        <g>
          <path class="cls-4" d="M99.72,141.8c-7.55,0-24.41.17-24.41.17-3.39.02-6.23.85-9.34,2.02-10.06,3.78-18.84,9.53-26.02,17.6-8.65.34-32.15,1.85-36.72,10.14-3.75,6.81-5.19,16.72.96,22.55,2.3,2.18,5.63,2.55,8.63,2.37-3.1-7.01-1.16-14.77,4.62-19.22s13.9-4.3,19.51.32,7.3,12.32,4.13,19.01l3.7-.04,19-1.48,32.16.02,12.23.89c-3.9-9.17,1.29-19.23,10.65-21.51,9.2-2.25,18.53,4.2,19.27,13.93.18,2.34-.24,4.5-.39,6.84l6.26-.98,5.79-.24c2.6-.11.93-2.97.91-4.29l-.25-14.71c-.04-2.23-.49-4.41-1.04-6.52-1.81-7.03-9.03-7.35-15.19-7.44-1.47-.02-2.28-.71-3.14-1.81-4.05-5.2-11.03-11.69-13.74-13.65-3.02-2.18-10.02-3.98-17.57-3.98Z"/>
          <path d="M27.74,176.43c-7.86-.48-14.03,5.53-14.5,12.78s5.31,13.96,12.66,14.51,14-5.14,14.62-12.47c.64-7.54-4.93-14.35-12.78-14.82Z"/>
          <path d="M123.2,176.44c-7.81-.54-14.07,5.49-14.54,12.74-.48,7.61,5.26,14.03,12.74,14.55,7.43.52,13.92-5.12,14.53-12.45s-4.81-14.29-12.74-14.83Z"/>
        </g>
      </g>
    </g>
  </g>
</svg>