<?xml version="1.0" encoding="UTF-8"?>
<svg id="Ebene_2" data-name="Ebene 2" xmlns="http://www.w3.org/2000/svg" viewBox="0 0 202.09 207.99">
  <defs>
    <style>
      .cls-1 {
        fill: #063;
      }

      .cls-2 {
        fill: #f39200;
      }

      .cls-3 {
        fill: #c6c6c6;
      }

      .cls-4 {
        fill: #ededed;
        stroke: #575756;
        stroke-miterlimit: 10;
        stroke-width: 3px;
      }
    </style>
  </defs>
  <g id="Ebene_1-2" data-name="Ebene 1">
    <g>
      <path class="cls-1" d="M16.16,101.68c.93-.21,1.85.36,2.06,1.29l3.87,16.76c.21.93-.36,1.85-1.29,2.06l-.84.19,1.95,8.46c1.28,5.55,6.82,9.01,12.37,7.73l38.54-8.89-3.48-15.08c-.21-.93.36-1.85,1.29-2.06l23.46-5.41c.93-.21,1.85.36,2.06,1.29l3.48,15.08,38.54-8.89c5.55-1.28,9.01-6.82,7.73-12.37l-1.95-8.46-.84.19c-.93.21-1.85-.36-2.06-1.29l-3.87-16.76c-.21-.93.36-1.85,1.29-2.06l.84-.19-15.06-65.26c-1.28-5.55-6.82-9.01-12.37-7.73l-13.91,3.21,1.31,5.7,3.02-.7c1.48-.34,2.96.58,3.3,2.06s-.58,2.96-2.06,3.3l-3.02.7,3.44,14.91c.21.93-.36,1.85-1.29,2.06L29.96,48.29c-.93.21-1.85-.36-2.06-1.29l-3.44-14.91-3.02.7c-1.48.34-2.96-.58-3.3-2.06s.58-2.96,2.06-3.3l3.02-.7-1.31-5.7-13.91,3.21c-5.55,1.28-9.01,6.82-7.73,12.37l15.06,65.26.84-.19ZM124.73,105.66c1.48-.34,2.96.58,3.3,2.06s-.58,2.96-2.06,3.3c-1.48.34-2.96-.58-3.3-2.06s.58-2.96,2.06-3.3ZM103.41,116.49c1.16-.27,2.31.45,2.58,1.61s-.45,2.31-1.61,2.58-2.31-.45-2.58-1.61.45-2.31,1.61-2.58ZM66.54,125c1.16-.27,2.31.45,2.58,1.61s-.45,2.31-1.61,2.58-2.31-.45-2.58-1.61.45-2.31,1.61-2.58ZM42.63,124.6c1.48-.34,2.96.58,3.3,2.06s-.58,2.96-2.06,3.3c-1.48.34-2.96-.58-3.3-2.06-.34-1.48.58-2.96,2.06-3.3Z"/>
      <circle class="cls-3" cx="45.19" cy="68.11" r="14.17"/>
      <circle class="cls-2" cx="45.19" cy="68.11" r="9.92"/>
      <path class="cls-4" d="M198.26,174.93c2.58-1.94,3.1-5.61,1.15-8.19l-5.02-6.66c-5.28-7-8-17.3-9.39-23.17s-11.89-22.67-16.91-29.76c-5.02-7.09-12.47-14.97-21.82-13.83-3.73.46-6.86,3.28-8.57,4.18-4.35,2.29-9.68-.3-14.76,3.56-3.49,2.66-4.11,5.58-6.56,7.16s-8.94-2.64-13.1.34c-4.11,2.96-5.06,6.7-6.39,7.48-1.07.63-1.44.64-1.44.64,0,0-37.76-46.6-39.07-48s-6.72-5.19-11.94-1.26c-5.34,4.02-2.46,10.14-1.93,11.09s31.48,42.66,31.48,42.66c0,0-12.94-5.97-16.05,1.71-2.85,7.04,9.18,11.2,13.54,16.65,5.71,7.15,5.39,10.23,9.75,18.15,4.3,7.82,12.4,21.53,28.36,26.96,12.03,4.1,31.89,8.58,35.11,12.85l5.02,6.66c1.94,2.58,5.61,3.1,8.19,1.15l40.32-30.38Z"/>
    </g>
  </g>
</svg>