<svg xmlns="http://www.w3.org/2000/svg" xmlns:xlink="http://www.w3.org/1999/xlink" width="800" zoomAndPan="magnify" viewBox="0 0 600 599.999999" height="800" preserveAspectRatio="xMidYMid meet" version="1.0"><defs><clipPath id="26bf132117"><path d="M 95.359375 95.359375 L 504.640625 95.359375 L 504.640625 504.640625 L 95.359375 504.640625 Z M 95.359375 95.359375 " clip-rule="nonzero"/></clipPath><clipPath id="0397c9baf9"><path d="M 300 95.359375 C 186.980469 95.359375 95.359375 186.980469 95.359375 300 C 95.359375 413.019531 186.980469 504.640625 300 504.640625 C 413.019531 504.640625 504.640625 413.019531 504.640625 300 C 504.640625 186.980469 413.019531 95.359375 300 95.359375 Z M 300 95.359375 " clip-rule="nonzero"/></clipPath><clipPath id="61b7a4ed1e"><path d="M 0.359375 0.359375 L 409.640625 0.359375 L 409.640625 409.640625 L 0.359375 409.640625 Z M 0.359375 0.359375 " clip-rule="nonzero"/></clipPath><clipPath id="4f0485c049"><path d="M 205 0.359375 C 91.980469 0.359375 0.359375 91.980469 0.359375 205 C 0.359375 318.019531 91.980469 409.640625 205 409.640625 C 318.019531 409.640625 409.640625 318.019531 409.640625 205 C 409.640625 91.980469 318.019531 0.359375 205 0.359375 Z M 205 0.359375 " clip-rule="nonzero"/></clipPath><clipPath id="aba14c4c78"><rect x="0" width="410" y="0" height="410"/></clipPath><clipPath id="a4ccb85fca"><path d="M 81.765625 106 L 337 106 L 337 476 L 81.765625 476 Z M 81.765625 106 " clip-rule="nonzero"/></clipPath><clipPath id="26df4390ea"><path d="M 81.765625 141 L 286 141 L 286 406 L 81.765625 406 Z M 81.765625 141 " clip-rule="nonzero"/></clipPath><clipPath id="e5627c8cab"><path d="M 288 106 L 518.265625 106 L 518.265625 365 L 288 365 Z M 288 106 " clip-rule="nonzero"/></clipPath><clipPath id="67ec589611"><path d="M 256 190 L 518.265625 190 L 518.265625 476 L 256 476 Z M 256 190 " clip-rule="nonzero"/></clipPath><clipPath id="fd99e9228d"><path d="M 81.765625 147 L 225 147 L 225 397 L 81.765625 397 Z M 81.765625 147 " clip-rule="nonzero"/></clipPath><clipPath id="87cf7036cd"><path d="M 81.765625 197 L 256 197 L 256 476 L 81.765625 476 Z M 81.765625 197 " clip-rule="nonzero"/></clipPath><clipPath id="94f26341db"><path d="M 81.765625 149 L 244 149 L 244 364 L 81.765625 364 Z M 81.765625 149 " clip-rule="nonzero"/></clipPath><clipPath id="a38b1d472d"><path d="M 81.765625 135 L 275 135 L 275 349 L 81.765625 349 Z M 81.765625 135 " clip-rule="nonzero"/></clipPath><clipPath id="1e6e0caa16"><path d="M 81.765625 161 L 235 161 L 235 375 L 81.765625 375 Z M 81.765625 161 " clip-rule="nonzero"/></clipPath><clipPath id="75d24b2c85"><path d="M 81.765625 142 L 229 142 L 229 356 L 81.765625 356 Z M 81.765625 142 " clip-rule="nonzero"/></clipPath><clipPath id="7030d819c8"><path d="M 81.765625 194 L 291 194 L 291 409 L 81.765625 409 Z M 81.765625 194 " clip-rule="nonzero"/></clipPath><clipPath id="9a7176180b"><path d="M 255 160 L 518.265625 160 L 518.265625 379 L 255 379 Z M 255 160 " clip-rule="nonzero"/></clipPath><clipPath id="76d34a1975"><path d="M 368 196 L 518.265625 196 L 518.265625 409 L 368 409 Z M 368 196 " clip-rule="nonzero"/></clipPath><clipPath id="d101fa29b3"><path d="M 357 153 L 518.265625 153 L 518.265625 368 L 357 368 Z M 357 153 " clip-rule="nonzero"/></clipPath><clipPath id="037aca7ebc"><path d="M 350 181 L 518.265625 181 L 518.265625 395 L 350 395 Z M 350 181 " clip-rule="nonzero"/></clipPath><clipPath id="7b949a0bc6"><path d="M 390 157 L 518.265625 157 L 518.265625 372 L 390 372 Z M 390 157 " clip-rule="nonzero"/></clipPath><clipPath id="7bd5dc141a"><path d="M 388 187 L 518.265625 187 L 518.265625 401 L 388 401 Z M 388 187 " clip-rule="nonzero"/></clipPath><clipPath id="700b68cc43"><path d="M 383 198 L 518.265625 198 L 518.265625 412 L 383 412 Z M 383 198 " clip-rule="nonzero"/></clipPath></defs><path stroke-linecap="round" transform="matrix(7.5, 0, 0, 7.5, 0.0000003, 0.00002)" fill-opacity="1" fill="#4b7f28" fill-rule="nonzero" stroke-linejoin="round" d="M 72.000003 39.999999 C 72.000003 40.523957 71.986982 41.046874 71.961461 41.570312 C 71.935941 42.093228 71.897399 42.615624 71.845836 43.136458 C 71.794795 43.657812 71.730732 44.177083 71.653649 44.695312 C 71.576566 45.213541 71.487503 45.729166 71.384899 46.242708 C 71.282816 46.75677 71.168232 47.267187 71.041149 47.77552 C 70.913545 48.283333 70.773961 48.78802 70.621878 49.289062 C 70.470315 49.790104 70.305732 50.287499 70.12917 50.780729 C 69.953128 51.273437 69.764586 51.761979 69.564065 52.245833 C 69.363545 52.729687 69.151565 53.208333 68.927607 53.68177 C 68.703649 54.155208 68.468232 54.622916 68.221357 55.084896 C 67.974482 55.546354 67.71667 56.002083 67.447399 56.451041 C 67.178128 56.900521 66.897919 57.342708 66.606774 57.778125 C 66.316149 58.213541 66.014586 58.641667 65.702607 59.0625 C 65.390628 59.482812 65.068753 59.895833 64.736461 60.300521 C 64.404169 60.705208 64.061982 61.102083 63.710419 61.490104 C 63.358857 61.878125 62.997919 62.257292 62.627607 62.627604 C 62.257294 62.997917 61.878128 63.358854 61.490107 63.710417 C 61.102086 64.061979 60.705211 64.404167 60.300523 64.736458 C 59.895836 65.06875 59.482815 65.390625 59.062502 65.702604 C 58.641669 66.014583 58.213544 66.316146 57.778127 66.606771 C 57.342711 66.897917 56.900523 67.178125 56.451044 67.447396 C 56.002086 67.716667 55.546356 67.974479 55.084898 68.221354 C 54.622919 68.468229 54.155211 68.703646 53.681773 68.927604 C 53.208336 69.151563 52.72969 69.363542 52.245836 69.564063 C 51.761981 69.764584 51.27344 69.953125 50.780731 70.129167 C 50.287502 70.305729 49.790106 70.470313 49.289065 70.621875 C 48.788023 70.773959 48.283335 70.913542 47.775523 71.041146 C 47.267189 71.16823 46.756773 71.282813 46.24271 71.384896 C 45.729169 71.4875 45.213544 71.576563 44.695314 71.653646 C 44.177085 71.73073 43.657814 71.794792 43.13646 71.845834 C 42.615627 71.897396 42.093231 71.935938 41.570314 71.961459 C 41.046877 71.98698 40.52396 72 40.000002 72 C 39.476043 72 38.953127 71.98698 38.429689 71.961459 C 37.906772 71.935938 37.384377 71.897396 36.863543 71.845834 C 36.342189 71.794792 35.822397 71.73073 35.304689 71.653646 C 34.78646 71.576563 34.270835 71.4875 33.757293 71.384896 C 33.243231 71.282813 32.732814 71.16823 32.224481 71.041146 C 31.716668 70.913542 31.21198 70.773959 30.710939 70.621875 C 30.209897 70.470313 29.712501 70.305729 29.219272 70.129167 C 28.726564 69.953125 28.238022 69.764584 27.754168 69.564063 C 27.270314 69.363542 26.791668 69.151563 26.31823 68.927604 C 25.844793 68.703646 25.377084 68.468229 24.915105 68.221354 C 24.453647 67.974479 23.997918 67.716667 23.548959 67.447396 C 23.09948 67.178125 22.657293 66.897917 22.221876 66.606771 C 21.786459 66.316146 21.358334 66.014583 20.937501 65.702604 C 20.517188 65.390625 20.104167 65.06875 19.69948 64.736458 C 19.294792 64.404167 18.897917 64.061979 18.509897 63.710417 C 18.121876 63.358854 17.742709 62.997917 17.372397 62.627604 C 17.002084 62.257292 16.641147 61.878125 16.289584 61.490104 C 15.938021 61.102083 15.595834 60.705208 15.263542 60.300521 C 14.931251 59.895833 14.609376 59.482812 14.297396 59.0625 C 13.985417 58.641667 13.683855 58.213541 13.39323 57.778125 C 13.102084 57.342708 12.821876 56.900521 12.552605 56.451041 C 12.283334 56.002083 12.025521 55.546354 11.778646 55.084896 C 11.531771 54.622916 11.296355 54.155208 11.072396 53.68177 C 10.848438 53.208333 10.636459 52.729687 10.435938 52.245833 C 10.235417 51.761979 10.046875 51.273437 9.870834 50.780729 C 9.694271 50.287499 9.529688 49.790104 9.378125 49.289062 C 9.226042 48.78802 9.086459 48.283333 8.958855 47.77552 C 8.831771 47.267187 8.717188 46.75677 8.615104 46.242708 C 8.5125 45.729166 8.423438 45.213541 8.346354 44.695312 C 8.269271 44.177083 8.205209 43.657812 8.154167 43.136458 C 8.102604 42.615624 8.064063 42.093228 8.038542 41.570312 C 8.013021 41.046874 8 40.523957 8 39.999999 C 8 39.476041 8.013021 38.953124 8.038542 38.429686 C 8.064063 37.90677 8.102604 37.384374 8.154167 36.863541 C 8.205209 36.342186 8.269271 35.822395 8.346354 35.304686 C 8.423438 34.786457 8.5125 34.270832 8.615104 33.75729 C 8.717188 33.243228 8.831771 32.732811 8.958855 32.224478 C 9.086459 31.716665 9.226042 31.211978 9.378125 30.710936 C 9.529688 30.209894 9.694271 29.712499 9.870834 29.219269 C 10.046875 28.726561 10.235417 28.238019 10.435938 27.754165 C 10.636459 27.270311 10.848438 26.791665 11.072396 26.318228 C 11.296355 25.84479 11.531771 25.377082 11.778646 24.915103 C 12.025521 24.453644 12.283334 23.997915 12.552605 23.548957 C 12.821876 23.099477 13.102084 22.65729 13.39323 22.221873 C 13.683855 21.786457 13.985417 21.358332 14.297396 20.937498 C 14.609376 20.517186 14.931251 20.104165 15.263542 19.699477 C 15.595834 19.29479 15.938021 18.897915 16.289584 18.509894 C 16.641147 18.121873 17.002084 17.742706 17.372397 17.372394 C 17.742709 17.002081 18.121876 16.641144 18.509897 16.289581 C 18.897917 15.938019 19.294792 15.595831 19.69948 15.26354 C 20.104167 14.931248 20.517188 14.609373 20.937501 14.297394 C 21.358334 13.985415 21.786459 13.683852 22.221876 13.393227 C 22.657293 13.102081 23.09948 12.821873 23.548959 12.552602 C 23.997918 12.283331 24.453647 12.025519 24.915105 11.778644 C 25.377084 11.531769 25.844793 11.296352 26.31823 11.072394 C 26.791668 10.848435 27.270314 10.636456 27.754168 10.435935 C 28.238022 10.235414 28.726564 10.046873 29.219272 9.870831 C 29.712501 9.694269 30.209897 9.529685 30.710939 9.378123 C 31.21198 9.226039 31.716668 9.086456 32.224481 8.958852 C 32.732814 8.831769 33.243231 8.717185 33.757293 8.615102 C 34.270835 8.512498 34.78646 8.423435 35.304689 8.346352 C 35.822397 8.269269 36.342189 8.205206 36.863543 8.154164 C 37.384377 8.102602 37.906772 8.06406 38.429689 8.038539 C 38.953127 8.013019 39.476043 7.999998 40.000002 7.999998 C 40.52396 7.999998 41.046877 8.013019 41.570314 8.038539 C 42.093231 8.06406 42.615627 8.102602 43.13646 8.154164 C 43.657814 8.205206 44.177085 8.269269 44.695314 8.346352 C 45.213544 8.423435 45.729169 8.512498 46.24271 8.615102 C 46.756773 8.717185 47.267189 8.831769 47.775523 8.958852 C 48.283335 9.086456 48.788023 9.226039 49.289065 9.378123 C 49.790106 9.529685 50.287502 9.694269 50.780731 9.870831 C 51.27344 10.046873 51.761981 10.235414 52.245836 10.435935 C 52.72969 10.636456 53.208336 10.848435 53.681773 11.072394 C 54.155211 11.296352 54.622919 11.531769 55.084898 11.778644 C 55.546356 12.025519 56.002086 12.283331 56.451044 12.552602 C 56.900523 12.821873 57.342711 13.102081 57.778127 13.393227 C 58.213544 13.683852 58.641669 13.985415 59.062502 14.297394 C 59.482815 14.609373 59.895836 14.931248 60.300523 15.26354 C 60.705211 15.595831 61.102086 15.938019 61.490107 16.289581 C 61.878128 16.641144 62.257294 17.002081 62.627607 17.372394 C 62.997919 17.742706 63.358857 18.121873 63.710419 18.509894 C 64.061982 18.897915 64.404169 19.29479 64.736461 19.699477 C 65.068753 20.104165 65.390628 20.517186 65.702607 20.937498 C 66.014586 21.358332 66.316149 21.786457 66.606774 22.221873 C 66.897919 22.65729 67.178128 23.099477 67.447399 23.548957 C 67.71667 23.997915 67.974482 24.453644 68.221357 24.915103 C 68.468232 25.377082 68.703649 25.84479 68.927607 26.318228 C 69.151565 26.791665 69.363545 27.270311 69.564065 27.754165 C 69.764586 28.238019 69.953128 28.726561 70.12917 29.219269 C 70.305732 29.712499 70.470315 30.209894 70.621878 30.710936 C 70.773961 31.211978 70.913545 31.716665 71.041149 32.224478 C 71.168232 32.732811 71.282816 33.243228 71.384899 33.75729 C 71.487503 34.270832 71.576566 34.786457 71.653649 35.304686 C 71.730732 35.822395 71.794795 36.342186 71.845836 36.863541 C 71.897399 37.384374 71.935941 37.90677 71.961461 38.429686 C 71.986982 38.953124 72.000003 39.476041 72.000003 39.999999 Z M 72.000003 39.999999 " stroke="#ffffff" stroke-width="4" stroke-opacity="1" stroke-miterlimit="4"/><path stroke-linecap="round" transform="matrix(7.5, 0, 0, 7.5, 0.0000003, 0.00002)" fill="none" stroke-linejoin="round" d="M 26.000001 29.999999 L 34.000001 29.999999 C 34.131251 29.999999 34.26146 30.013019 34.390106 30.03854 C 34.518751 30.064061 34.644272 30.102082 34.765106 30.152082 C 34.88646 30.202603 35.002085 30.264061 35.110939 30.336978 C 35.220314 30.409894 35.321356 30.492707 35.414064 30.585936 C 35.507293 30.678644 35.590106 30.779686 35.663022 30.889061 C 35.735939 30.997915 35.797397 31.11354 35.847918 31.234374 C 35.897918 31.355728 35.935939 31.481249 35.96146 31.609895 C 35.986981 31.73854 36.000001 31.868749 36.000001 31.999999 L 36.000001 35.999999 C 36.000001 36.131249 35.986981 36.261457 35.96146 36.390103 C 35.935939 36.518749 35.897918 36.64427 35.847918 36.765103 C 35.797397 36.886457 35.735939 37.002082 35.663022 37.110936 C 35.590106 37.220311 35.507293 37.321353 35.414064 37.414061 C 35.321356 37.507291 35.220314 37.590103 35.110939 37.66302 C 35.002085 37.735936 34.88646 37.797395 34.765106 37.847916 C 34.644272 37.897916 34.518751 37.935936 34.390106 37.961457 C 34.26146 37.986978 34.131251 37.999999 34.000001 37.999999 L 26.000001 37.999999 C 25.868751 37.999999 25.738543 37.986978 25.609897 37.961457 C 25.481251 37.935936 25.35573 37.897916 25.234376 37.847916 C 25.113543 37.797395 24.997918 37.735936 24.889064 37.66302 C 24.779689 37.590103 24.678647 37.507291 24.585939 37.414061 C 24.492709 37.321353 24.409897 37.220311 24.33698 37.110936 C 24.264063 37.002082 24.202605 36.886457 24.152084 36.765103 C 24.102084 36.64427 24.064063 36.518749 24.038543 36.390103 C 24.013022 36.261457 24.000001 36.131249 24.000001 35.999999 L 24.000001 31.999999 C 24.000001 31.868749 24.013022 31.73854 24.038543 31.609895 C 24.064063 31.481249 24.102084 31.355728 24.152084 31.234374 C 24.202605 31.11354 24.264063 30.997915 24.33698 30.889061 C 24.409897 30.779686 24.492709 30.678644 24.585939 30.585936 C 24.678647 30.492707 24.779689 30.409894 24.889064 30.336978 C 24.997918 30.264061 25.113543 30.202603 25.234376 30.152082 C 25.35573 30.102082 25.481251 30.064061 25.609897 30.03854 C 25.738543 30.013019 25.868751 29.999999 26.000001 29.999999 Z M 26.000001 29.999999 " stroke="#ffffff" stroke-width="4" stroke-opacity="1" stroke-miterlimit="4"/><path stroke-linecap="round" transform="matrix(7.5, 0, 0, 7.5, 0.0000003, 0.00002)" fill="none" stroke-linejoin="round" d="M 46.000002 29.999999 L 54.000002 29.999999 C 54.131252 29.999999 54.261461 30.013019 54.390106 30.03854 C 54.518752 30.064061 54.644273 30.102082 54.765106 30.152082 C 54.886461 30.202603 55.002086 30.264061 55.11094 30.336978 C 55.220315 30.409894 55.321356 30.492707 55.414065 30.585936 C 55.507294 30.678644 55.590106 30.779686 55.663023 30.889061 C 55.73594 30.997915 55.797398 31.11354 55.847919 31.234374 C 55.897919 31.355728 55.93594 31.481249 55.961461 31.609895 C 55.986982 31.73854 56.000002 31.868749 56.000002 31.999999 L 56.000002 35.999999 C 56.000002 36.131249 55.986982 36.261457 55.961461 36.390103 C 55.93594 36.518749 55.897919 36.64427 55.847919 36.765103 C 55.797398 36.886457 55.73594 37.002082 55.663023 37.110936 C 55.590106 37.220311 55.507294 37.321353 55.414065 37.414061 C 55.321356 37.507291 55.220315 37.590103 55.11094 37.66302 C 55.002086 37.735936 54.886461 37.797395 54.765106 37.847916 C 54.644273 37.897916 54.518752 37.935936 54.390106 37.961457 C 54.261461 37.986978 54.131252 37.999999 54.000002 37.999999 L 46.000002 37.999999 C 45.868752 37.999999 45.738544 37.986978 45.609898 37.961457 C 45.481252 37.935936 45.355731 37.897916 45.234377 37.847916 C 45.113544 37.797395 44.997919 37.735936 44.889064 37.66302 C 44.779689 37.590103 44.678648 37.507291 44.585939 37.414061 C 44.49271 37.321353 44.409898 37.220311 44.336981 37.110936 C 44.264064 37.002082 44.202606 36.886457 44.152085 36.765103 C 44.102085 36.64427 44.064064 36.518749 44.038544 36.390103 C 44.013023 36.261457 44.000002 36.131249 44.000002 35.999999 L 44.000002 31.999999 C 44.000002 31.868749 44.013023 31.73854 44.038544 31.609895 C 44.064064 31.481249 44.102085 31.355728 44.152085 31.234374 C 44.202606 31.11354 44.264064 30.997915 44.336981 30.889061 C 44.409898 30.779686 44.49271 30.678644 44.585939 30.585936 C 44.678648 30.492707 44.779689 30.409894 44.889064 30.336978 C 44.997919 30.264061 45.113544 30.202603 45.234377 30.152082 C 45.355731 30.102082 45.481252 30.064061 45.609898 30.03854 C 45.738544 30.013019 45.868752 29.999999 46.000002 29.999999 Z M 46.000002 29.999999 " stroke="#ffffff" stroke-width="4" stroke-opacity="1" stroke-miterlimit="4"/><path stroke-linecap="round" transform="matrix(7.5, 0, 0, 7.5, 0.0000003, 0.00002)" fill="none" stroke-linejoin="round" d="M 36.000001 47.999999 L 44.000002 47.999999 C 44.131252 47.999999 44.26146 48.01302 44.390106 48.038541 C 44.518752 48.064062 44.644273 48.102083 44.765106 48.152083 C 44.88646 48.202604 45.002085 48.264062 45.110939 48.336979 C 45.220314 48.409895 45.321356 48.492708 45.414064 48.585937 C 45.507294 48.678645 45.590106 48.779687 45.663023 48.889062 C 45.735939 48.997916 45.797398 49.113541 45.847919 49.234374 C 45.897919 49.355729 45.935939 49.481249 45.96146 49.609895 C 45.986981 49.738541 46.000002 49.868749 46.000002 49.999999 L 46.000002 54 C 46.000002 54.13125 45.986981 54.261458 45.96146 54.390104 C 45.935939 54.51875 45.897919 54.64427 45.847919 54.765104 C 45.797398 54.886458 45.735939 55.002083 45.663023 55.110937 C 45.590106 55.220312 45.507294 55.321354 45.414064 55.414062 C 45.321356 55.507291 45.220314 55.590104 45.110939 55.663021 C 45.002085 55.735937 44.88646 55.797396 44.765106 55.847916 C 44.644273 55.897916 44.518752 55.935937 44.390106 55.961458 C 44.26146 55.986979 44.131252 56 44.000002 56 L 36.000001 56 C 35.868751 56 35.738543 55.986979 35.609897 55.961458 C 35.481251 55.935937 35.355731 55.897916 35.234376 55.847916 C 35.113543 55.797396 34.997918 55.735937 34.889064 55.663021 C 34.779689 55.590104 34.678647 55.507291 34.585939 55.414062 C 34.49271 55.321354 34.409897 55.220312 34.336981 55.110937 C 34.264064 55.002083 34.202606 54.886458 34.152085 54.765104 C 34.102085 54.64427 34.064064 54.51875 34.038543 54.390104 C 34.013022 54.261458 34.000001 54.13125 34.000001 54 L 34.000001 49.999999 C 34.000001 49.868749 34.013022 49.738541 34.038543 49.609895 C 34.064064 49.481249 34.102085 49.355729 34.152085 49.234374 C 34.202606 49.113541 34.264064 48.997916 34.336981 48.889062 C 34.409897 48.779687 34.49271 48.678645 34.585939 48.585937 C 34.678647 48.492708 34.779689 48.409895 34.889064 48.336979 C 34.997918 48.264062 35.113543 48.202604 35.234376 48.152083 C 35.355731 48.102083 35.481251 48.064062 35.609897 48.038541 C 35.738543 48.01302 35.868751 47.999999 36.000001 47.999999 Z M 36.000001 47.999999 " stroke="#ffffff" stroke-width="4" stroke-opacity="1" stroke-miterlimit="4"/><path stroke-linecap="round" transform="matrix(7.5, 0, 0, 7.5, 0.0000003, 0.00002)" fill="none" stroke-linejoin="round" d="M 36.000001 37.999999 L 36.000001 47.999999 " stroke="#ffffff" stroke-width="4" stroke-opacity="1" stroke-miterlimit="4"/><path stroke-linecap="round" transform="matrix(7.5, 0, 0, 7.5, 0.0000003, 0.00002)" fill="none" stroke-linejoin="round" d="M 52.000002 37.999999 L 52.000002 47.999999 " stroke="#ffffff" stroke-width="4" stroke-opacity="1" stroke-miterlimit="4"/><path stroke-linecap="round" transform="matrix(7.5, 0, 0, 7.5, 0.0000003, 0.00002)" fill="none" stroke-linejoin="round" d="M 36.000001 47.999999 L 46.000002 47.999999 " stroke="#ffffff" stroke-width="4" stroke-opacity="1" stroke-miterlimit="4"/><g clip-path="url(#26bf132117)"><g clip-path="url(#0397c9baf9)"><g transform="matrix(1, 0, 0, 1, 95, 95)"><g clip-path="url(#aba14c4c78)"><g clip-path="url(#61b7a4ed1e)"><g clip-path="url(#4f0485c049)"><path fill="#4b7f28" d="M 0.359375 0.359375 L 409.640625 0.359375 L 409.640625 409.640625 L 0.359375 409.640625 Z M 0.359375 0.359375 " fill-opacity="1" fill-rule="nonzero"/></g></g></g></g></g></g><g clip-path="url(#a4ccb85fca)"><path stroke-linecap="butt" transform="matrix(0.733244, 0, 0, 0.733588, 81.764126, -17.456949)" fill="none" stroke-linejoin="miter" d="M 61.298594 392.70262 L 53.201014 423.400409 L 24.997995 530.701563 L 74.702219 530.701563 L 85.697881 479.497757 L 146.200653 479.497757 L 156.999202 530.701563 L 206.602207 530.701563 L 143.201352 310.199316 L 87.802186 310.199316 L 75.400103 369.502227 " stroke="#ffffff" stroke-width="10" stroke-opacity="1" stroke-miterlimit="10"/></g><g clip-path="url(#26df4390ea)"><path stroke-linecap="butt" transform="matrix(0.733244, 0, 0, 0.733588, 81.764126, -17.456949)" fill="none" stroke-linejoin="miter" d="M 115.797437 357.702348 L 95.899766 434.997943 L 135.801656 434.997943 " stroke="#ffffff" stroke-width="10" stroke-opacity="1" stroke-miterlimit="10"/></g><path stroke-linecap="butt" transform="matrix(0.733244, 0, 0, 0.733588, 81.764126, -17.456949)" fill="none" stroke-linejoin="miter" d="M 273.002362 310.098144 L 308.700969 309.400588 C 308.700969 309.400588 338.198535 311.397409 355.597677 338.298576 C 409.798188 422.298164 355.597677 504.098587 355.597677 504.098587 C 342.002266 531.500291 308.700969 531.399119 308.700969 531.399119 L 253.301802 531.399119 " stroke="#ffffff" stroke-width="10" stroke-opacity="1" stroke-miterlimit="10"/><path stroke-linecap="butt" transform="matrix(0.733244, 0, 0, 0.733588, 81.764126, -17.456949)" fill="none" stroke-linejoin="miter" d="M 220.000505 366.701353 L 220.000505 531.399119 " stroke="#ffffff" stroke-width="10" stroke-opacity="1" stroke-miterlimit="10"/><g clip-path="url(#e5627c8cab)"><path stroke-linecap="butt" transform="matrix(0.733244, 0, 0, 0.733588, 81.764126, -17.456949)" fill="none" stroke-linejoin="miter" d="M 517.602548 378.799424 L 422.898155 378.799424 L 442.497495 310.199316 L 497.800769 310.199316 L 515.599463 371.302028 " stroke="#ffffff" stroke-width="10" stroke-opacity="1" stroke-miterlimit="10"/></g><g clip-path="url(#67ec589611)"><path stroke-linecap="butt" transform="matrix(0.733244, 0, 0, 0.733588, 81.764126, -17.456949)" fill="none" stroke-linejoin="miter" d="M 534.799251 438.198181 L 561.297516 530.701563 L 511.598619 530.701563 L 500.80007 479.497757 L 440.302624 479.497757 L 429.301636 530.701563 L 379.698632 530.701563 L 407.502098 432.798778 L 533.099824 432.798778 L 541.602283 424.30031 L 560.498412 424.30031 " stroke="#ffffff" stroke-width="10" stroke-opacity="1" stroke-miterlimit="10"/></g><g clip-path="url(#fd99e9228d)"><path stroke-linecap="butt" transform="matrix(0.733244, 0, 0, 0.733588, 81.764126, -17.456949)" fill="none" stroke-linejoin="miter" d="M 53.201014 423.400409 L 43.201568 408.000929 L 53.201014 366.701353 " stroke="#ffffff" stroke-width="10" stroke-opacity="1" stroke-miterlimit="10"/></g><g clip-path="url(#87cf7036cd)"><path stroke-linecap="butt" transform="matrix(0.733244, 0, 0, 0.733588, 81.764126, -17.456949)" fill="none" stroke-linejoin="miter" d="M 48.198627 530.701563 L 74.798112 434.997943 L 95.899766 434.997943 " stroke="#ffffff" stroke-width="10" stroke-opacity="1" stroke-miterlimit="10"/></g><g clip-path="url(#94f26341db)"><path stroke-linecap="butt" transform="matrix(0.733244, 0, 0, 0.733588, 81.764126, -17.456949)" fill="none" stroke-linejoin="miter" d="M 78.601843 373.501193 C 78.601843 374.028354 78.500624 374.53954 78.292857 375.029426 C 78.090417 375.519313 77.80274 375.955951 77.429825 376.328691 C 77.051583 376.701431 76.620067 376.994298 76.129951 377.196642 C 75.639834 377.398987 75.128408 377.500159 74.601 377.500159 C 74.068264 377.500159 73.556838 377.398987 73.066721 377.196642 C 72.576605 376.994298 72.145089 376.701431 71.772174 376.328691 C 71.393932 375.955951 71.106255 375.519313 70.903815 375.029426 C 70.701376 374.53954 70.600156 374.028354 70.600156 373.501193 C 70.600156 372.968707 70.701376 372.457521 70.903815 371.967635 C 71.106255 371.477748 71.393932 371.046435 71.772174 370.673695 C 72.145089 370.29563 72.576605 370.008088 73.066721 369.805744 C 73.556838 369.603399 74.068264 369.502227 74.601 369.502227 C 75.128408 369.502227 75.639834 369.603399 76.129951 369.805744 C 76.620067 370.008088 77.051583 370.29563 77.429825 370.673695 C 77.80274 371.046435 78.090417 371.477748 78.292857 371.967635 C 78.500624 372.457521 78.601843 372.968707 78.601843 373.501193 Z M 78.601843 373.501193 " stroke="#ffffff" stroke-width="10" stroke-opacity="1" stroke-miterlimit="10"/></g><g clip-path="url(#a38b1d472d)"><path stroke-linecap="butt" transform="matrix(0.733244, 0, 0, 0.733588, 81.764126, -17.456949)" fill="none" stroke-linejoin="miter" d="M 120.799824 353.799229 C 120.799824 354.331715 120.698604 354.842901 120.496165 355.332788 C 120.293725 355.822674 120.006048 356.253987 119.627806 356.626727 C 119.254891 357.004792 118.823375 357.292334 118.333258 357.494679 C 117.843142 357.697023 117.331716 357.798195 116.79898 357.798195 C 116.271572 357.798195 115.760146 357.697023 115.270029 357.494679 C 114.779913 357.292334 114.348397 357.004792 113.970155 356.626727 C 113.59724 356.253987 113.309562 355.822674 113.107123 355.332788 C 112.899356 354.842901 112.798136 354.331715 112.798136 353.799229 C 112.798136 353.272069 112.899356 352.760883 113.107123 352.270996 C 113.309562 351.781109 113.59724 351.344471 113.970155 350.971731 C 114.348397 350.598991 114.779913 350.306124 115.270029 350.10378 C 115.760146 349.901435 116.271572 349.800263 116.79898 349.800263 C 117.331716 349.800263 117.843142 349.901435 118.333258 350.10378 C 118.823375 350.306124 119.254891 350.598991 119.627806 350.971731 C 120.006048 351.344471 120.293725 351.781109 120.496165 352.270996 C 120.698604 352.760883 120.799824 353.272069 120.799824 353.799229 Z M 120.799824 353.799229 " stroke="#ffffff" stroke-width="10" stroke-opacity="1" stroke-miterlimit="10"/></g><g clip-path="url(#1e6e0caa16)"><path stroke-linecap="butt" transform="matrix(0.733244, 0, 0, 0.733588, 81.764126, -17.456949)" fill="none" stroke-linejoin="miter" d="M 66.30098 389.198865 C 66.30098 389.731351 66.199761 390.242537 65.997321 390.732424 C 65.794882 391.22231 65.501877 391.653624 65.128962 392.026363 C 64.75072 392.404428 64.319204 392.69197 63.829087 392.894315 C 63.338971 393.096659 62.832872 393.197832 62.300137 393.197832 C 61.767401 393.197832 61.261302 393.096659 60.771186 392.894315 C 60.281069 392.69197 59.844226 392.404428 59.471311 392.026363 C 59.098396 391.653624 58.805392 391.22231 58.602952 390.732424 C 58.400513 390.242537 58.299293 389.731351 58.299293 389.198865 C 58.299293 388.671705 58.400513 388.160519 58.602952 387.670632 C 58.805392 387.180745 59.098396 386.744107 59.471311 386.371367 C 59.844226 385.998628 60.281069 385.705761 60.771186 385.503416 C 61.261302 385.301072 61.767401 385.199899 62.300137 385.199899 C 62.832872 385.199899 63.338971 385.301072 63.829087 385.503416 C 64.319204 385.705761 64.75072 385.998628 65.128962 386.371367 C 65.501877 386.744107 65.794882 387.180745 65.997321 387.670632 C 66.199761 388.160519 66.30098 388.671705 66.30098 389.198865 Z M 66.30098 389.198865 " stroke="#ffffff" stroke-width="10" stroke-opacity="1" stroke-miterlimit="10"/></g><g clip-path="url(#75d24b2c85)"><path stroke-linecap="butt" transform="matrix(0.733244, 0, 0, 0.733588, 81.764126, -17.456949)" fill="none" stroke-linejoin="miter" d="M 58.400513 362.798234 C 58.400513 363.33072 58.299293 363.841906 58.096853 364.331793 C 57.894414 364.821679 57.601409 365.252992 57.228494 365.625732 C 56.85558 366.003797 56.418736 366.291339 55.92862 366.493684 C 55.438503 366.696028 54.932404 366.802525 54.399669 366.802525 C 53.866933 366.802525 53.360834 366.696028 52.870718 366.493684 C 52.380601 366.291339 51.949085 366.003797 51.570843 365.625732 C 51.197928 365.252992 50.904924 364.821679 50.702484 364.331793 C 50.500045 363.841906 50.398825 363.33072 50.398825 362.798234 C 50.398825 362.271074 50.500045 361.759888 50.702484 361.270001 C 50.904924 360.780114 51.197928 360.348801 51.570843 359.970736 C 51.949085 359.597996 52.380601 359.305129 52.870718 359.102785 C 53.360834 358.90044 53.866933 358.799268 54.399669 358.799268 C 54.932404 358.799268 55.438503 358.90044 55.92862 359.102785 C 56.418736 359.305129 56.85558 359.597996 57.228494 359.970736 C 57.601409 360.348801 57.894414 360.780114 58.096853 361.270001 C 58.299293 361.759888 58.400513 362.271074 58.400513 362.798234 Z M 58.400513 362.798234 " stroke="#ffffff" stroke-width="10" stroke-opacity="1" stroke-miterlimit="10"/></g><g clip-path="url(#7030d819c8)"><path stroke-linecap="butt" transform="matrix(0.733244, 0, 0, 0.733588, 81.764126, -17.456949)" fill="none" stroke-linejoin="miter" d="M 143.798016 434.997943 C 143.798016 435.530429 143.696797 436.041615 143.494357 436.531502 C 143.291918 437.021388 143.00424 437.452702 142.625998 437.830766 C 142.253083 438.203506 141.821567 438.491048 141.331451 438.693393 C 140.841334 438.901062 140.329908 439.002234 139.8025 439.002234 C 139.269764 439.002234 138.758338 438.901062 138.268222 438.693393 C 137.778105 438.491048 137.346589 438.203506 136.973674 437.830766 C 136.595432 437.452702 136.307755 437.021388 136.105315 436.531502 C 135.902876 436.041615 135.801656 435.530429 135.801656 434.997943 C 135.801656 434.470783 135.902876 433.959597 136.105315 433.46971 C 136.307755 432.979823 136.595432 432.54851 136.973674 432.170445 C 137.346589 431.797706 137.778105 431.504839 138.268222 431.302494 C 138.758338 431.10015 139.269764 430.998977 139.8025 430.998977 C 140.329908 430.998977 140.841334 431.10015 141.331451 431.302494 C 141.821567 431.504839 142.253083 431.797706 142.625998 432.170445 C 143.00424 432.54851 143.291918 432.979823 143.494357 433.46971 C 143.696797 433.959597 143.798016 434.470783 143.798016 434.997943 Z M 143.798016 434.997943 " stroke="#ffffff" stroke-width="10" stroke-opacity="1" stroke-miterlimit="10"/></g><path stroke-linecap="butt" transform="matrix(0.733244, 0, 0, 0.733588, 81.764126, -17.456949)" fill="none" stroke-linejoin="miter" d="M 237.799199 384.800535 L 220.000505 393.197832 Z M 237.799199 384.800535 " stroke="#ffffff" stroke-width="10" stroke-opacity="1" stroke-miterlimit="10"/><path stroke-linecap="butt" transform="matrix(0.733244, 0, 0, 0.733588, 81.764126, -17.456949)" fill="none" stroke-linejoin="miter" d="M 240.308383 383.666341 L 222.509689 392.068962 Z M 240.308383 383.666341 " stroke="#ffffff" stroke-width="10" stroke-opacity="1" stroke-miterlimit="10"/><path stroke-linecap="butt" transform="matrix(0.733244, 0, 0, 0.733588, 81.764126, -17.456949)" fill="none" stroke-linejoin="miter" d="M 237.500867 385.199899 L 237.500867 315.098183 " stroke="#ffffff" stroke-width="10" stroke-opacity="1" stroke-miterlimit="10"/><path stroke-linecap="butt" transform="matrix(0.733244, 0, 0, 0.733588, 81.764126, -17.456949)" fill="none" stroke-linejoin="miter" d="M 237.548813 388.144544 L 237.548813 318.048153 " stroke="#ffffff" stroke-width="10" stroke-opacity="1" stroke-miterlimit="10"/><path stroke-linecap="butt" transform="matrix(0.733244, 0, 0, 0.733588, 81.764126, -17.456949)" fill="none" stroke-linejoin="miter" d="M 237.500867 531.399119 L 237.500867 412.202239 L 253.301802 403.400254 L 253.301802 317.899057 " stroke="#ffffff" stroke-width="10" stroke-opacity="1" stroke-miterlimit="10"/><path stroke-linecap="butt" transform="matrix(0.733244, 0, 0, 0.733588, 81.764126, -17.456949)" fill="none" stroke-linejoin="miter" d="M 252.998143 453.800007 L 237.500867 460.498674 Z M 252.998143 453.800007 " stroke="#ffffff" stroke-width="10" stroke-opacity="1" stroke-miterlimit="10"/><path stroke-linecap="butt" transform="matrix(0.733244, 0, 0, 0.733588, 81.764126, -17.456949)" fill="none" stroke-linejoin="miter" d="M 255.432744 452.735036 L 239.935468 459.433703 Z M 255.432744 452.735036 " stroke="#ffffff" stroke-width="10" stroke-opacity="1" stroke-miterlimit="10"/><path stroke-linecap="butt" transform="matrix(0.733244, 0, 0, 0.733588, 81.764126, -17.456949)" fill="none" stroke-linejoin="miter" d="M 253.301802 432.798778 L 252.699811 454.199371 " stroke="#ffffff" stroke-width="10" stroke-opacity="1" stroke-miterlimit="10"/><path stroke-linecap="butt" transform="matrix(0.733244, 0, 0, 0.733588, 81.764126, -17.456949)" fill="none" stroke-linejoin="miter" d="M 253.269838 435.636926 L 252.667847 457.037518 " stroke="#ffffff" stroke-width="10" stroke-opacity="1" stroke-miterlimit="10"/><path stroke-linecap="butt" transform="matrix(0.733244, 0, 0, 0.733588, 81.764126, -17.456949)" fill="none" stroke-linejoin="miter" d="M 283.598471 332.702154 L 312.398153 332.100445 C 312.398153 332.100445 332.098713 333.602054 343.797585 354.800302 C 380.098183 420.80188 343.797585 485.301849 343.797585 485.301849 C 334.698462 506.899461 312.398153 506.798288 312.398153 506.798288 L 275.298452 506.798288 " stroke="#ffffff" stroke-width="10" stroke-opacity="1" stroke-miterlimit="10"/><path stroke-linecap="butt" transform="matrix(0.733244, 0, 0, 0.733588, 81.764126, -17.456949)" fill="none" stroke-linejoin="miter" d="M 273.098254 310.199316 C 273.098254 310.731802 272.997034 311.242988 272.794595 311.732875 C 272.592155 312.222761 272.304478 312.654075 271.926236 313.026814 C 271.553321 313.404879 271.121805 313.692421 270.631689 313.894766 C 270.141572 314.09711 269.630146 314.198283 269.09741 314.198283 C 268.570002 314.198283 268.058576 314.09711 267.56846 313.894766 C 267.078343 313.692421 266.646827 313.404879 266.273912 313.026814 C 265.89567 312.654075 265.607993 312.222761 265.405553 311.732875 C 265.203114 311.242988 265.101894 310.731802 265.101894 310.199316 C 265.101894 309.672156 265.203114 309.16097 265.405553 308.671083 C 265.607993 308.181196 265.89567 307.744558 266.273912 307.371818 C 266.646827 306.999079 267.078343 306.706212 267.56846 306.503867 C 268.058576 306.301523 268.570002 306.20035 269.09741 306.20035 C 269.630146 306.20035 270.141572 306.301523 270.631689 306.503867 C 271.121805 306.706212 271.553321 306.999079 271.926236 307.371818 C 272.304478 307.744558 272.592155 308.181196 272.794595 308.671083 C 272.997034 309.16097 273.098254 309.672156 273.098254 310.199316 Z M 273.098254 310.199316 " stroke="#ffffff" stroke-width="10" stroke-opacity="1" stroke-miterlimit="10"/><path stroke-linecap="butt" transform="matrix(0.733244, 0, 0, 0.733588, 81.764126, -17.456949)" fill="none" stroke-linejoin="miter" d="M 257.302646 314.198283 C 257.297319 314.730768 257.196099 315.241954 256.993659 315.731841 C 256.79122 316.221727 256.503543 316.653041 256.130628 317.025781 C 255.752386 317.403845 255.32087 317.691387 254.830753 317.893732 C 254.340637 318.096076 253.82921 318.202574 253.301802 318.202574 C 252.769067 318.202574 252.257641 318.096076 251.767524 317.893732 C 251.277407 317.691387 250.845892 317.403845 250.472977 317.025781 C 250.094734 316.653041 249.807057 316.221727 249.604618 315.731841 C 249.402178 315.241954 249.300959 314.730768 249.300959 314.198283 C 249.300959 313.671122 249.402178 313.159936 249.604618 312.670049 C 249.807057 312.180163 250.094734 311.748849 250.472977 311.370785 C 250.845892 310.998045 251.277407 310.705178 251.767524 310.502833 C 252.257641 310.300489 252.769067 310.199316 253.301802 310.199316 C 253.82921 310.199316 254.340637 310.300489 254.830753 310.502833 C 255.32087 310.705178 255.752386 310.998045 256.130628 311.370785 C 256.503543 311.748849 256.79122 312.180163 256.993659 312.670049 C 257.196099 313.159936 257.297319 313.671122 257.302646 314.198283 Z M 257.302646 314.198283 " stroke="#ffffff" stroke-width="10" stroke-opacity="1" stroke-miterlimit="10"/><path stroke-linecap="butt" transform="matrix(0.733244, 0, 0, 0.733588, 81.764126, -17.456949)" fill="none" stroke-linejoin="miter" d="M 241.501711 311.200389 C 241.501711 311.732875 241.400491 312.238736 241.198051 312.728623 C 240.990284 313.218509 240.702607 313.655147 240.329692 314.027887 C 239.95145 314.405952 239.519934 314.693494 239.029818 314.895839 C 238.539701 315.098183 238.028275 315.199355 237.500867 315.199355 C 236.968131 315.199355 236.456705 315.098183 235.966588 314.895839 C 235.481799 314.693494 235.044956 314.405952 234.672041 314.027887 C 234.293799 313.655147 234.006122 313.218509 233.803682 312.728623 C 233.601243 312.238736 233.500023 311.732875 233.500023 311.200389 C 233.500023 310.667904 233.601243 310.156718 233.803682 309.666831 C 234.006122 309.176944 234.293799 308.745631 234.672041 308.372891 C 235.044956 307.994826 235.481799 307.707284 235.966588 307.50494 C 236.456705 307.302595 236.968131 307.201423 237.500867 307.201423 C 238.028275 307.201423 238.539701 307.302595 239.029818 307.50494 C 239.519934 307.707284 239.95145 307.994826 240.329692 308.372891 C 240.702607 308.745631 240.990284 309.176944 241.198051 309.666831 C 241.400491 310.156718 241.501711 310.667904 241.501711 311.200389 Z M 241.501711 311.200389 " stroke="#ffffff" stroke-width="10" stroke-opacity="1" stroke-miterlimit="10"/><path stroke-linecap="butt" transform="matrix(0.733244, 0, 0, 0.733588, 81.764126, -17.456949)" fill="none" stroke-linejoin="miter" d="M 224.001349 363.000579 C 224.001349 363.533064 223.900129 364.038926 223.697689 364.528812 C 223.489923 365.018699 223.202245 365.455337 222.829331 365.828077 C 222.451088 366.200817 222.019573 366.493684 221.529456 366.696028 C 221.039339 366.898373 220.527913 366.999545 220.000505 366.999545 C 219.467769 366.999545 218.961671 366.898373 218.471554 366.696028 C 217.981437 366.493684 217.544594 366.200817 217.171679 365.828077 C 216.798765 365.455337 216.50576 365.018699 216.30332 364.528812 C 216.100881 364.038926 215.999661 363.533064 215.999661 363.000579 C 215.999661 362.468093 216.100881 361.956907 216.30332 361.467021 C 216.50576 360.977134 216.798765 360.545821 217.171679 360.173081 C 217.544594 359.795016 217.981437 359.507474 218.471554 359.305129 C 218.961671 359.102785 219.467769 359.001613 220.000505 359.001613 C 220.527913 359.001613 221.039339 359.102785 221.529456 359.305129 C 222.019573 359.507474 222.451088 359.795016 222.829331 360.173081 C 223.202245 360.545821 223.489923 360.977134 223.697689 361.467021 C 223.900129 361.956907 224.001349 362.468093 224.001349 363.000579 Z M 224.001349 363.000579 " stroke="#ffffff" stroke-width="10" stroke-opacity="1" stroke-miterlimit="10"/><path stroke-linecap="butt" transform="matrix(0.733244, 0, 0, 0.733588, 81.764126, -17.456949)" fill="none" stroke-linejoin="miter" d="M 257.302646 428.69864 C 257.297319 429.231125 257.196099 429.742312 256.993659 430.232198 C 256.79122 430.722085 256.503543 431.153398 256.130628 431.526138 C 255.752386 431.904203 255.32087 432.191745 254.830753 432.394089 C 254.340637 432.596434 253.82921 432.697606 253.301802 432.697606 C 252.769067 432.697606 252.257641 432.596434 251.767524 432.394089 C 251.277407 432.191745 250.845892 431.904203 250.472977 431.526138 C 250.094734 431.153398 249.807057 430.722085 249.604618 430.232198 C 249.402178 429.742312 249.300959 429.231125 249.300959 428.69864 C 249.300959 428.171479 249.402178 427.660293 249.604618 427.170407 C 249.807057 426.68052 250.094734 426.249207 250.472977 425.871142 C 250.845892 425.498402 251.277407 425.205535 251.767524 425.003191 C 252.257641 424.800846 252.769067 424.699674 253.301802 424.699674 C 253.82921 424.699674 254.340637 424.800846 254.830753 425.003191 C 255.32087 425.205535 255.752386 425.498402 256.130628 425.871142 C 256.503543 426.249207 256.79122 426.68052 256.993659 427.170407 C 257.196099 427.660293 257.297319 428.171479 257.302646 428.69864 Z M 257.302646 428.69864 " stroke="#ffffff" stroke-width="10" stroke-opacity="1" stroke-miterlimit="10"/><path stroke-linecap="butt" transform="matrix(0.733244, 0, 0, 0.733588, 81.764126, -17.456949)" fill="none" stroke-linejoin="miter" d="M 253.301802 531.399119 C 253.301802 531.931604 253.200583 532.44279 252.998143 532.932677 C 252.790376 533.422564 252.502699 533.853877 252.129784 534.226617 C 251.751542 534.604681 251.320026 534.892224 250.829909 535.094568 C 250.339793 535.296913 249.828367 535.398085 249.300959 535.398085 C 248.768223 535.398085 248.256797 535.296913 247.76668 535.094568 C 247.276564 534.892224 246.845048 534.604681 246.472133 534.226617 C 246.093891 533.853877 245.806214 533.422564 245.603774 532.932677 C 245.401335 532.44279 245.300115 531.931604 245.300115 531.399119 C 245.300115 530.871958 245.401335 530.360772 245.603774 529.870885 C 245.806214 529.380999 246.093891 528.94436 246.472133 528.571621 C 246.845048 528.198881 247.276564 527.906014 247.76668 527.703669 C 248.256797 527.501325 248.768223 527.400153 249.300959 527.400153 C 249.828367 527.400153 250.339793 527.501325 250.829909 527.703669 C 251.320026 527.906014 251.751542 528.198881 252.129784 528.571621 C 252.502699 528.94436 252.790376 529.380999 252.998143 529.870885 C 253.200583 530.360772 253.301802 530.871958 253.301802 531.399119 Z M 253.301802 531.399119 " stroke="#ffffff" stroke-width="10" stroke-opacity="1" stroke-miterlimit="10"/><path stroke-linecap="butt" transform="matrix(0.733244, 0, 0, 0.733588, 81.764126, -17.456949)" fill="none" stroke-linejoin="miter" d="M 379.000748 432.798778 L 407.502098 432.798778 " stroke="#ffffff" stroke-width="10" stroke-opacity="1" stroke-miterlimit="10"/><path stroke-linecap="butt" transform="matrix(0.733244, 0, 0, 0.733588, 81.764126, -17.456949)" fill="none" stroke-linejoin="miter" d="M 374.099581 378.799424 L 422.898155 378.799424 " stroke="#ffffff" stroke-width="10" stroke-opacity="1" stroke-miterlimit="10"/><g clip-path="url(#9a7176180b)"><path stroke-linecap="butt" transform="matrix(0.733244, 0, 0, 0.733588, 81.764126, -17.456949)" fill="none" stroke-linejoin="miter" d="M 378.201645 397.798506 L 537.899771 396.398069 L 549.998195 384.502343 L 562.501498 384.502343 " stroke="#ffffff" stroke-width="10" stroke-opacity="1" stroke-miterlimit="10"/></g><path stroke-linecap="butt" transform="matrix(0.733244, 0, 0, 0.733588, 81.764126, -17.456949)" fill="none" stroke-linejoin="miter" d="M 379.597412 416.100033 L 508.498098 416.100033 " stroke="#ffffff" stroke-width="10" stroke-opacity="1" stroke-miterlimit="10"/><g clip-path="url(#76d34a1975)"><path stroke-linecap="butt" transform="matrix(0.733244, 0, 0, 0.733588, 81.764126, -17.456949)" fill="none" stroke-linejoin="miter" d="M 533.099824 432.798778 L 545.001136 439.902135 L 553.098716 439.902135 " stroke="#ffffff" stroke-width="10" stroke-opacity="1" stroke-miterlimit="10"/></g><g clip-path="url(#d101fa29b3)"><path stroke-linecap="butt" transform="matrix(0.733244, 0, 0, 0.733588, 81.764126, -17.456949)" fill="none" stroke-linejoin="miter" d="M 525.598908 378.799424 C 525.598908 379.331909 525.497689 379.843095 525.295249 380.332982 C 525.09281 380.822869 524.805132 381.254182 524.42689 381.626922 C 524.053975 382.004986 523.62246 382.292529 523.132343 382.494873 C 522.642226 382.697217 522.1308 382.79839 521.598065 382.79839 C 521.070656 382.79839 520.55923 382.697217 520.069114 382.494873 C 519.578997 382.292529 519.147481 382.004986 518.769239 381.626922 C 518.396324 381.254182 518.108647 380.822869 517.906207 380.332982 C 517.703768 379.843095 517.602548 379.331909 517.602548 378.799424 C 517.602548 378.266938 517.703768 377.761077 517.906207 377.27119 C 518.108647 376.781304 518.396324 376.344665 518.769239 375.971926 C 519.147481 375.593861 519.578997 375.306319 520.069114 375.103974 C 520.55923 374.90163 521.070656 374.800458 521.598065 374.800458 C 522.1308 374.800458 522.642226 374.90163 523.132343 375.103974 C 523.62246 375.306319 524.053975 375.593861 524.42689 375.971926 C 524.805132 376.344665 525.09281 376.781304 525.295249 377.27119 C 525.497689 377.761077 525.598908 378.266938 525.598908 378.799424 Z M 525.598908 378.799424 " stroke="#ffffff" stroke-width="10" stroke-opacity="1" stroke-miterlimit="10"/></g><g clip-path="url(#037aca7ebc)"><path stroke-linecap="butt" transform="matrix(0.733244, 0, 0, 0.733588, 81.764126, -17.456949)" fill="none" stroke-linejoin="miter" d="M 516.499786 416.100033 C 516.499786 416.632519 516.398566 417.13838 516.196126 417.628266 C 515.993687 418.118153 515.70601 418.554791 515.327768 418.927531 C 514.954853 419.305596 514.523337 419.593138 514.03322 419.795482 C 513.543104 419.997827 513.031677 420.098999 512.498942 420.098999 C 511.971534 420.098999 511.460108 419.997827 510.969991 419.795482 C 510.479874 419.593138 510.048359 419.305596 509.670116 418.927531 C 509.297201 418.554791 509.009524 418.118153 508.801757 417.628266 C 508.599318 417.13838 508.498098 416.632519 508.498098 416.100033 C 508.498098 415.567548 508.599318 415.061686 508.801757 414.5718 C 509.009524 414.076588 509.297201 413.645275 509.670116 413.272535 C 510.048359 412.89447 510.479874 412.606928 510.969991 412.404584 C 511.460108 412.202239 511.971534 412.101067 512.498942 412.101067 C 513.031677 412.101067 513.543104 412.202239 514.03322 412.404584 C 514.523337 412.606928 514.954853 412.89447 515.327768 413.272535 C 515.70601 413.645275 515.993687 414.076588 516.196126 414.5718 C 516.398566 415.061686 516.499786 415.567548 516.499786 416.100033 Z M 516.499786 416.100033 " stroke="#ffffff" stroke-width="10" stroke-opacity="1" stroke-miterlimit="10"/></g><g clip-path="url(#7b949a0bc6)"><path stroke-linecap="butt" transform="matrix(0.733244, 0, 0, 0.733588, 81.764126, -17.456949)" fill="none" stroke-linejoin="miter" d="M 570.401966 384.502343 C 570.401966 385.029504 570.300746 385.54069 570.092979 386.030577 C 569.890539 386.520463 569.602862 386.951777 569.229947 387.329841 C 568.851705 387.702581 568.420189 387.990123 567.930073 388.197793 C 567.439956 388.400137 566.92853 388.501309 566.401122 388.501309 C 565.868386 388.501309 565.35696 388.400137 564.866843 388.197793 C 564.376727 387.990123 563.945211 387.702581 563.572296 387.329841 C 563.194054 386.951777 562.906377 386.520463 562.703937 386.030577 C 562.501498 385.54069 562.400278 385.029504 562.400278 384.502343 C 562.400278 383.969858 562.501498 383.458672 562.703937 382.968785 C 562.906377 382.478898 563.194054 382.047585 563.572296 381.66952 C 563.945211 381.296781 564.376727 381.009238 564.866843 380.806894 C 565.35696 380.599225 565.868386 380.498052 566.401122 380.498052 C 566.92853 380.498052 567.439956 380.599225 567.930073 380.806894 C 568.420189 381.009238 568.851705 381.296781 569.229947 381.66952 C 569.602862 382.047585 569.890539 382.478898 570.092979 382.968785 C 570.300746 383.458672 570.401966 383.969858 570.401966 384.502343 Z M 570.401966 384.502343 " stroke="#ffffff" stroke-width="10" stroke-opacity="1" stroke-miterlimit="10"/></g><g clip-path="url(#7bd5dc141a)"><path stroke-linecap="butt" transform="matrix(0.733244, 0, 0, 0.733588, 81.764126, -17.456949)" fill="none" stroke-linejoin="miter" d="M 568.201768 424.30031 C 568.201768 424.832795 568.100548 425.338656 567.898109 425.828543 C 567.690342 426.31843 567.402665 426.755068 567.02975 427.127808 C 566.651507 427.505872 566.219992 427.793415 565.729875 427.995759 C 565.239758 428.198104 564.728332 428.299276 564.200924 428.299276 C 563.668189 428.299276 563.156762 428.198104 562.666646 427.995759 C 562.176529 427.793415 561.745013 427.505872 561.372098 427.127808 C 560.993856 426.755068 560.706179 426.31843 560.50374 425.828543 C 560.3013 425.338656 560.20008 424.832795 560.20008 424.30031 C 560.20008 423.767824 560.3013 423.256638 560.50374 422.766751 C 560.706179 422.276865 560.993856 421.845552 561.372098 421.472812 C 561.745013 421.094747 562.176529 420.807205 562.666646 420.60486 C 563.156762 420.402516 563.668189 420.301344 564.200924 420.301344 C 564.728332 420.301344 565.239758 420.402516 565.729875 420.60486 C 566.219992 420.807205 566.651507 421.094747 567.02975 421.472812 C 567.402665 421.845552 567.690342 422.276865 567.898109 422.766751 C 568.100548 423.256638 568.201768 423.767824 568.201768 424.30031 Z M 568.201768 424.30031 " stroke="#ffffff" stroke-width="10" stroke-opacity="1" stroke-miterlimit="10"/></g><g clip-path="url(#700b68cc43)"><path stroke-linecap="butt" transform="matrix(0.733244, 0, 0, 0.733588, 81.764126, -17.456949)" fill="none" stroke-linejoin="miter" d="M 561.201623 439.902135 C 561.201623 440.429296 561.100403 440.940482 560.897964 441.430368 C 560.690197 441.920255 560.40252 442.351568 560.029605 442.729633 C 559.651363 443.102373 559.219847 443.389915 558.72973 443.597584 C 558.239614 443.799929 557.728188 443.901101 557.200779 443.901101 C 556.668044 443.901101 556.156618 443.799929 555.671828 443.597584 C 555.181712 443.389915 554.744869 443.102373 554.371954 442.729633 C 553.999039 442.351568 553.706034 441.920255 553.503595 441.430368 C 553.301155 440.940482 553.199936 440.429296 553.199936 439.902135 C 553.199936 439.369649 553.301155 438.858463 553.503595 438.368577 C 553.706034 437.87869 553.999039 437.447377 554.371954 437.069312 C 554.744869 436.696572 555.181712 436.40903 555.671828 436.206686 C 556.156618 435.999016 556.668044 435.897844 557.200779 435.897844 C 557.728188 435.897844 558.239614 435.999016 558.72973 436.206686 C 559.219847 436.40903 559.651363 436.696572 560.029605 437.069312 C 560.40252 437.447377 560.690197 437.87869 560.897964 438.368577 C 561.100403 438.858463 561.201623 439.369649 561.201623 439.902135 Z M 561.201623 439.902135 " stroke="#ffffff" stroke-width="10" stroke-opacity="1" stroke-miterlimit="10"/></g></svg>