<svg xmlns="http://www.w3.org/2000/svg" xmlns:xlink="http://www.w3.org/1999/xlink" width="800" zoomAndPan="magnify" viewBox="0 0 600 599.999999" height="800" preserveAspectRatio="xMidYMid meet" version="1.0"><defs><clipPath id="603c021e41"><path d="M 95.359375 95.359375 L 504.640625 95.359375 L 504.640625 504.640625 L 95.359375 504.640625 Z M 95.359375 95.359375 " clip-rule="nonzero"/></clipPath><clipPath id="1db6949913"><path d="M 300 95.359375 C 186.980469 95.359375 95.359375 186.980469 95.359375 300 C 95.359375 413.019531 186.980469 504.640625 300 504.640625 C 413.019531 504.640625 504.640625 413.019531 504.640625 300 C 504.640625 186.980469 413.019531 95.359375 300 95.359375 Z M 300 95.359375 " clip-rule="nonzero"/></clipPath><clipPath id="ed4220e98b"><path d="M 0.359375 0.359375 L 409.640625 0.359375 L 409.640625 409.640625 L 0.359375 409.640625 Z M 0.359375 0.359375 " clip-rule="nonzero"/></clipPath><clipPath id="44808ccfe3"><path d="M 205 0.359375 C 91.980469 0.359375 0.359375 91.980469 0.359375 205 C 0.359375 318.019531 91.980469 409.640625 205 409.640625 C 318.019531 409.640625 409.640625 318.019531 409.640625 205 C 409.640625 91.980469 318.019531 0.359375 205 0.359375 Z M 205 0.359375 " clip-rule="nonzero"/></clipPath><clipPath id="1196111d25"><rect x="0" width="410" y="0" height="410"/></clipPath><clipPath id="eda03d1b66"><path d="M 124.273438 146 L 476.023438 146 L 476.023438 457.484375 L 124.273438 457.484375 Z M 124.273438 146 " clip-rule="nonzero"/></clipPath><clipPath id="b24ddccfca"><rect x="0" width="353" y="0" height="312"/></clipPath></defs><path stroke-linecap="round" transform="matrix(7.5, 0, 0, 7.5, 0.0000003, 0.00002)" fill-opacity="1" fill="#4b7f28" fill-rule="nonzero" stroke-linejoin="round" d="M 72.000003 39.999999 C 72.000003 40.523957 71.986982 41.046874 71.961461 41.570312 C 71.935941 42.093228 71.897399 42.615624 71.845836 43.136458 C 71.794795 43.657812 71.730732 44.177083 71.653649 44.695312 C 71.576566 45.213541 71.487503 45.729166 71.384899 46.242708 C 71.282816 46.75677 71.168232 47.267187 71.041149 47.77552 C 70.913545 48.283333 70.773961 48.78802 70.621878 49.289062 C 70.470315 49.790104 70.305732 50.287499 70.12917 50.780729 C 69.953128 51.273437 69.764586 51.761979 69.564065 52.245833 C 69.363545 52.729687 69.151565 53.208333 68.927607 53.68177 C 68.703649 54.155208 68.468232 54.622916 68.221357 55.084896 C 67.974482 55.546354 67.71667 56.002083 67.447399 56.451041 C 67.178128 56.900521 66.897919 57.342708 66.606774 57.778125 C 66.316149 58.213541 66.014586 58.641667 65.702607 59.0625 C 65.390628 59.482812 65.068753 59.895833 64.736461 60.300521 C 64.404169 60.705208 64.061982 61.102083 63.710419 61.490104 C 63.358857 61.878125 62.997919 62.257292 62.627607 62.627604 C 62.257294 62.997917 61.878128 63.358854 61.490107 63.710417 C 61.102086 64.061979 60.705211 64.404167 60.300523 64.736458 C 59.895836 65.06875 59.482815 65.390625 59.062502 65.702604 C 58.641669 66.014583 58.213544 66.316146 57.778127 66.606771 C 57.342711 66.897917 56.900523 67.178125 56.451044 67.447396 C 56.002086 67.716667 55.546356 67.974479 55.084898 68.221354 C 54.622919 68.468229 54.155211 68.703646 53.681773 68.927604 C 53.208336 69.151563 52.72969 69.363542 52.245836 69.564063 C 51.761981 69.764584 51.27344 69.953125 50.780731 70.129167 C 50.287502 70.305729 49.790106 70.470313 49.289065 70.621875 C 48.788023 70.773959 48.283335 70.913542 47.775523 71.041146 C 47.267189 71.16823 46.756773 71.282813 46.24271 71.384896 C 45.729169 71.4875 45.213544 71.576563 44.695314 71.653646 C 44.177085 71.73073 43.657814 71.794792 43.13646 71.845834 C 42.615627 71.897396 42.093231 71.935938 41.570314 71.961459 C 41.046877 71.98698 40.52396 72 40.000002 72 C 39.476043 72 38.953127 71.98698 38.429689 71.961459 C 37.906772 71.935938 37.384377 71.897396 36.863543 71.845834 C 36.342189 71.794792 35.822397 71.73073 35.304689 71.653646 C 34.78646 71.576563 34.270835 71.4875 33.757293 71.384896 C 33.243231 71.282813 32.732814 71.16823 32.224481 71.041146 C 31.716668 70.913542 31.21198 70.773959 30.710939 70.621875 C 30.209897 70.470313 29.712501 70.305729 29.219272 70.129167 C 28.726564 69.953125 28.238022 69.764584 27.754168 69.564063 C 27.270314 69.363542 26.791668 69.151563 26.31823 68.927604 C 25.844793 68.703646 25.377084 68.468229 24.915105 68.221354 C 24.453647 67.974479 23.997918 67.716667 23.548959 67.447396 C 23.09948 67.178125 22.657293 66.897917 22.221876 66.606771 C 21.786459 66.316146 21.358334 66.014583 20.937501 65.702604 C 20.517188 65.390625 20.104167 65.06875 19.69948 64.736458 C 19.294792 64.404167 18.897917 64.061979 18.509897 63.710417 C 18.121876 63.358854 17.742709 62.997917 17.372397 62.627604 C 17.002084 62.257292 16.641147 61.878125 16.289584 61.490104 C 15.938021 61.102083 15.595834 60.705208 15.263542 60.300521 C 14.931251 59.895833 14.609376 59.482812 14.297396 59.0625 C 13.985417 58.641667 13.683855 58.213541 13.39323 57.778125 C 13.102084 57.342708 12.821876 56.900521 12.552605 56.451041 C 12.283334 56.002083 12.025521 55.546354 11.778646 55.084896 C 11.531771 54.622916 11.296355 54.155208 11.072396 53.68177 C 10.848438 53.208333 10.636459 52.729687 10.435938 52.245833 C 10.235417 51.761979 10.046875 51.273437 9.870834 50.780729 C 9.694271 50.287499 9.529688 49.790104 9.378125 49.289062 C 9.226042 48.78802 9.086459 48.283333 8.958855 47.77552 C 8.831771 47.267187 8.717188 46.75677 8.615104 46.242708 C 8.5125 45.729166 8.423438 45.213541 8.346354 44.695312 C 8.269271 44.177083 8.205209 43.657812 8.154167 43.136458 C 8.102604 42.615624 8.064063 42.093228 8.038542 41.570312 C 8.013021 41.046874 8 40.523957 8 39.999999 C 8 39.476041 8.013021 38.953124 8.038542 38.429686 C 8.064063 37.90677 8.102604 37.384374 8.154167 36.863541 C 8.205209 36.342186 8.269271 35.822395 8.346354 35.304686 C 8.423438 34.786457 8.5125 34.270832 8.615104 33.75729 C 8.717188 33.243228 8.831771 32.732811 8.958855 32.224478 C 9.086459 31.716665 9.226042 31.211978 9.378125 30.710936 C 9.529688 30.209894 9.694271 29.712499 9.870834 29.219269 C 10.046875 28.726561 10.235417 28.238019 10.435938 27.754165 C 10.636459 27.270311 10.848438 26.791665 11.072396 26.318228 C 11.296355 25.84479 11.531771 25.377082 11.778646 24.915103 C 12.025521 24.453644 12.283334 23.997915 12.552605 23.548957 C 12.821876 23.099477 13.102084 22.65729 13.39323 22.221873 C 13.683855 21.786457 13.985417 21.358332 14.297396 20.937498 C 14.609376 20.517186 14.931251 20.104165 15.263542 19.699477 C 15.595834 19.29479 15.938021 18.897915 16.289584 18.509894 C 16.641147 18.121873 17.002084 17.742706 17.372397 17.372394 C 17.742709 17.002081 18.121876 16.641144 18.509897 16.289581 C 18.897917 15.938019 19.294792 15.595831 19.69948 15.26354 C 20.104167 14.931248 20.517188 14.609373 20.937501 14.297394 C 21.358334 13.985415 21.786459 13.683852 22.221876 13.393227 C 22.657293 13.102081 23.09948 12.821873 23.548959 12.552602 C 23.997918 12.283331 24.453647 12.025519 24.915105 11.778644 C 25.377084 11.531769 25.844793 11.296352 26.31823 11.072394 C 26.791668 10.848435 27.270314 10.636456 27.754168 10.435935 C 28.238022 10.235414 28.726564 10.046873 29.219272 9.870831 C 29.712501 9.694269 30.209897 9.529685 30.710939 9.378123 C 31.21198 9.226039 31.716668 9.086456 32.224481 8.958852 C 32.732814 8.831769 33.243231 8.717185 33.757293 8.615102 C 34.270835 8.512498 34.78646 8.423435 35.304689 8.346352 C 35.822397 8.269269 36.342189 8.205206 36.863543 8.154164 C 37.384377 8.102602 37.906772 8.06406 38.429689 8.038539 C 38.953127 8.013019 39.476043 7.999998 40.000002 7.999998 C 40.52396 7.999998 41.046877 8.013019 41.570314 8.038539 C 42.093231 8.06406 42.615627 8.102602 43.13646 8.154164 C 43.657814 8.205206 44.177085 8.269269 44.695314 8.346352 C 45.213544 8.423435 45.729169 8.512498 46.24271 8.615102 C 46.756773 8.717185 47.267189 8.831769 47.775523 8.958852 C 48.283335 9.086456 48.788023 9.226039 49.289065 9.378123 C 49.790106 9.529685 50.287502 9.694269 50.780731 9.870831 C 51.27344 10.046873 51.761981 10.235414 52.245836 10.435935 C 52.72969 10.636456 53.208336 10.848435 53.681773 11.072394 C 54.155211 11.296352 54.622919 11.531769 55.084898 11.778644 C 55.546356 12.025519 56.002086 12.283331 56.451044 12.552602 C 56.900523 12.821873 57.342711 13.102081 57.778127 13.393227 C 58.213544 13.683852 58.641669 13.985415 59.062502 14.297394 C 59.482815 14.609373 59.895836 14.931248 60.300523 15.26354 C 60.705211 15.595831 61.102086 15.938019 61.490107 16.289581 C 61.878128 16.641144 62.257294 17.002081 62.627607 17.372394 C 62.997919 17.742706 63.358857 18.121873 63.710419 18.509894 C 64.061982 18.897915 64.404169 19.29479 64.736461 19.699477 C 65.068753 20.104165 65.390628 20.517186 65.702607 20.937498 C 66.014586 21.358332 66.316149 21.786457 66.606774 22.221873 C 66.897919 22.65729 67.178128 23.099477 67.447399 23.548957 C 67.71667 23.997915 67.974482 24.453644 68.221357 24.915103 C 68.468232 25.377082 68.703649 25.84479 68.927607 26.318228 C 69.151565 26.791665 69.363545 27.270311 69.564065 27.754165 C 69.764586 28.238019 69.953128 28.726561 70.12917 29.219269 C 70.305732 29.712499 70.470315 30.209894 70.621878 30.710936 C 70.773961 31.211978 70.913545 31.716665 71.041149 32.224478 C 71.168232 32.732811 71.282816 33.243228 71.384899 33.75729 C 71.487503 34.270832 71.576566 34.786457 71.653649 35.304686 C 71.730732 35.822395 71.794795 36.342186 71.845836 36.863541 C 71.897399 37.384374 71.935941 37.90677 71.961461 38.429686 C 71.986982 38.953124 72.000003 39.476041 72.000003 39.999999 Z M 72.000003 39.999999 " stroke="#ffffff" stroke-width="4" stroke-opacity="1" stroke-miterlimit="4"/><path stroke-linecap="round" transform="matrix(7.5, 0, 0, 7.5, 0.0000003, 0.00002)" fill="none" stroke-linejoin="round" d="M 26.000001 29.999999 L 34.000001 29.999999 C 34.131251 29.999999 34.26146 30.013019 34.390106 30.03854 C 34.518751 30.064061 34.644272 30.102082 34.765106 30.152082 C 34.88646 30.202603 35.002085 30.264061 35.110939 30.336978 C 35.220314 30.409894 35.321356 30.492707 35.414064 30.585936 C 35.507293 30.678644 35.590106 30.779686 35.663022 30.889061 C 35.735939 30.997915 35.797397 31.11354 35.847918 31.234374 C 35.897918 31.355728 35.935939 31.481249 35.96146 31.609895 C 35.986981 31.73854 36.000001 31.868749 36.000001 31.999999 L 36.000001 35.999999 C 36.000001 36.131249 35.986981 36.261457 35.96146 36.390103 C 35.935939 36.518749 35.897918 36.64427 35.847918 36.765103 C 35.797397 36.886457 35.735939 37.002082 35.663022 37.110936 C 35.590106 37.220311 35.507293 37.321353 35.414064 37.414061 C 35.321356 37.507291 35.220314 37.590103 35.110939 37.66302 C 35.002085 37.735936 34.88646 37.797395 34.765106 37.847916 C 34.644272 37.897916 34.518751 37.935936 34.390106 37.961457 C 34.26146 37.986978 34.131251 37.999999 34.000001 37.999999 L 26.000001 37.999999 C 25.868751 37.999999 25.738543 37.986978 25.609897 37.961457 C 25.481251 37.935936 25.35573 37.897916 25.234376 37.847916 C 25.113543 37.797395 24.997918 37.735936 24.889064 37.66302 C 24.779689 37.590103 24.678647 37.507291 24.585939 37.414061 C 24.492709 37.321353 24.409897 37.220311 24.33698 37.110936 C 24.264063 37.002082 24.202605 36.886457 24.152084 36.765103 C 24.102084 36.64427 24.064063 36.518749 24.038543 36.390103 C 24.013022 36.261457 24.000001 36.131249 24.000001 35.999999 L 24.000001 31.999999 C 24.000001 31.868749 24.013022 31.73854 24.038543 31.609895 C 24.064063 31.481249 24.102084 31.355728 24.152084 31.234374 C 24.202605 31.11354 24.264063 30.997915 24.33698 30.889061 C 24.409897 30.779686 24.492709 30.678644 24.585939 30.585936 C 24.678647 30.492707 24.779689 30.409894 24.889064 30.336978 C 24.997918 30.264061 25.113543 30.202603 25.234376 30.152082 C 25.35573 30.102082 25.481251 30.064061 25.609897 30.03854 C 25.738543 30.013019 25.868751 29.999999 26.000001 29.999999 Z M 26.000001 29.999999 " stroke="#ffffff" stroke-width="4" stroke-opacity="1" stroke-miterlimit="4"/><path stroke-linecap="round" transform="matrix(7.5, 0, 0, 7.5, 0.0000003, 0.00002)" fill="none" stroke-linejoin="round" d="M 46.000002 29.999999 L 54.000002 29.999999 C 54.131252 29.999999 54.261461 30.013019 54.390106 30.03854 C 54.518752 30.064061 54.644273 30.102082 54.765106 30.152082 C 54.886461 30.202603 55.002086 30.264061 55.11094 30.336978 C 55.220315 30.409894 55.321356 30.492707 55.414065 30.585936 C 55.507294 30.678644 55.590106 30.779686 55.663023 30.889061 C 55.73594 30.997915 55.797398 31.11354 55.847919 31.234374 C 55.897919 31.355728 55.93594 31.481249 55.961461 31.609895 C 55.986982 31.73854 56.000002 31.868749 56.000002 31.999999 L 56.000002 35.999999 C 56.000002 36.131249 55.986982 36.261457 55.961461 36.390103 C 55.93594 36.518749 55.897919 36.64427 55.847919 36.765103 C 55.797398 36.886457 55.73594 37.002082 55.663023 37.110936 C 55.590106 37.220311 55.507294 37.321353 55.414065 37.414061 C 55.321356 37.507291 55.220315 37.590103 55.11094 37.66302 C 55.002086 37.735936 54.886461 37.797395 54.765106 37.847916 C 54.644273 37.897916 54.518752 37.935936 54.390106 37.961457 C 54.261461 37.986978 54.131252 37.999999 54.000002 37.999999 L 46.000002 37.999999 C 45.868752 37.999999 45.738544 37.986978 45.609898 37.961457 C 45.481252 37.935936 45.355731 37.897916 45.234377 37.847916 C 45.113544 37.797395 44.997919 37.735936 44.889064 37.66302 C 44.779689 37.590103 44.678648 37.507291 44.585939 37.414061 C 44.49271 37.321353 44.409898 37.220311 44.336981 37.110936 C 44.264064 37.002082 44.202606 36.886457 44.152085 36.765103 C 44.102085 36.64427 44.064064 36.518749 44.038544 36.390103 C 44.013023 36.261457 44.000002 36.131249 44.000002 35.999999 L 44.000002 31.999999 C 44.000002 31.868749 44.013023 31.73854 44.038544 31.609895 C 44.064064 31.481249 44.102085 31.355728 44.152085 31.234374 C 44.202606 31.11354 44.264064 30.997915 44.336981 30.889061 C 44.409898 30.779686 44.49271 30.678644 44.585939 30.585936 C 44.678648 30.492707 44.779689 30.409894 44.889064 30.336978 C 44.997919 30.264061 45.113544 30.202603 45.234377 30.152082 C 45.355731 30.102082 45.481252 30.064061 45.609898 30.03854 C 45.738544 30.013019 45.868752 29.999999 46.000002 29.999999 Z M 46.000002 29.999999 " stroke="#ffffff" stroke-width="4" stroke-opacity="1" stroke-miterlimit="4"/><path stroke-linecap="round" transform="matrix(7.5, 0, 0, 7.5, 0.0000003, 0.00002)" fill="none" stroke-linejoin="round" d="M 36.000001 47.999999 L 44.000002 47.999999 C 44.131252 47.999999 44.26146 48.01302 44.390106 48.038541 C 44.518752 48.064062 44.644273 48.102083 44.765106 48.152083 C 44.88646 48.202604 45.002085 48.264062 45.110939 48.336979 C 45.220314 48.409895 45.321356 48.492708 45.414064 48.585937 C 45.507294 48.678645 45.590106 48.779687 45.663023 48.889062 C 45.735939 48.997916 45.797398 49.113541 45.847919 49.234374 C 45.897919 49.355729 45.935939 49.481249 45.96146 49.609895 C 45.986981 49.738541 46.000002 49.868749 46.000002 49.999999 L 46.000002 54 C 46.000002 54.13125 45.986981 54.261458 45.96146 54.390104 C 45.935939 54.51875 45.897919 54.64427 45.847919 54.765104 C 45.797398 54.886458 45.735939 55.002083 45.663023 55.110937 C 45.590106 55.220312 45.507294 55.321354 45.414064 55.414062 C 45.321356 55.507291 45.220314 55.590104 45.110939 55.663021 C 45.002085 55.735937 44.88646 55.797396 44.765106 55.847916 C 44.644273 55.897916 44.518752 55.935937 44.390106 55.961458 C 44.26146 55.986979 44.131252 56 44.000002 56 L 36.000001 56 C 35.868751 56 35.738543 55.986979 35.609897 55.961458 C 35.481251 55.935937 35.355731 55.897916 35.234376 55.847916 C 35.113543 55.797396 34.997918 55.735937 34.889064 55.663021 C 34.779689 55.590104 34.678647 55.507291 34.585939 55.414062 C 34.49271 55.321354 34.409897 55.220312 34.336981 55.110937 C 34.264064 55.002083 34.202606 54.886458 34.152085 54.765104 C 34.102085 54.64427 34.064064 54.51875 34.038543 54.390104 C 34.013022 54.261458 34.000001 54.13125 34.000001 54 L 34.000001 49.999999 C 34.000001 49.868749 34.013022 49.738541 34.038543 49.609895 C 34.064064 49.481249 34.102085 49.355729 34.152085 49.234374 C 34.202606 49.113541 34.264064 48.997916 34.336981 48.889062 C 34.409897 48.779687 34.49271 48.678645 34.585939 48.585937 C 34.678647 48.492708 34.779689 48.409895 34.889064 48.336979 C 34.997918 48.264062 35.113543 48.202604 35.234376 48.152083 C 35.355731 48.102083 35.481251 48.064062 35.609897 48.038541 C 35.738543 48.01302 35.868751 47.999999 36.000001 47.999999 Z M 36.000001 47.999999 " stroke="#ffffff" stroke-width="4" stroke-opacity="1" stroke-miterlimit="4"/><path stroke-linecap="round" transform="matrix(7.5, 0, 0, 7.5, 0.0000003, 0.00002)" fill="none" stroke-linejoin="round" d="M 36.000001 37.999999 L 36.000001 47.999999 " stroke="#ffffff" stroke-width="4" stroke-opacity="1" stroke-miterlimit="4"/><path stroke-linecap="round" transform="matrix(7.5, 0, 0, 7.5, 0.0000003, 0.00002)" fill="none" stroke-linejoin="round" d="M 52.000002 37.999999 L 52.000002 47.999999 " stroke="#ffffff" stroke-width="4" stroke-opacity="1" stroke-miterlimit="4"/><path stroke-linecap="round" transform="matrix(7.5, 0, 0, 7.5, 0.0000003, 0.00002)" fill="none" stroke-linejoin="round" d="M 36.000001 47.999999 L 46.000002 47.999999 " stroke="#ffffff" stroke-width="4" stroke-opacity="1" stroke-miterlimit="4"/><g clip-path="url(#603c021e41)"><g clip-path="url(#1db6949913)"><g transform="matrix(1, 0, 0, 1, 95, 95)"><g clip-path="url(#1196111d25)"><g clip-path="url(#ed4220e98b)"><g clip-path="url(#44808ccfe3)"><path fill="#4b7f28" d="M 0.359375 0.359375 L 409.640625 0.359375 L 409.640625 409.640625 L 0.359375 409.640625 Z M 0.359375 0.359375 " fill-opacity="1" fill-rule="nonzero"/></g></g></g></g></g></g><g clip-path="url(#eda03d1b66)"><g transform="matrix(1, 0, 0, 1, 124, 146)"><g clip-path="url(#b24ddccfca)"><path fill="#ffffff" d="M 25.722656 85.65625 C 25.964844 84.351562 26.253906 83.054688 26.59375 81.769531 C 26.933594 80.484375 27.324219 79.21875 27.761719 77.960938 C 28.199219 76.707031 28.6875 75.472656 29.222656 74.257812 C 29.753906 73.039062 30.335938 71.847656 30.960938 70.675781 C 31.589844 69.503906 32.261719 68.359375 32.976562 67.238281 C 33.691406 66.117188 34.449219 65.027344 35.246094 63.96875 C 36.046875 62.90625 36.886719 61.878906 37.765625 60.882812 C 38.644531 59.886719 39.5625 58.925781 40.515625 58.003906 C 41.46875 57.078125 42.457031 56.191406 43.480469 55.34375 C 44.503906 54.492188 45.558594 53.6875 46.640625 52.917969 C 47.726562 52.152344 48.839844 51.429688 49.980469 50.75 C 51.121094 50.070312 52.289062 49.433594 53.476562 48.84375 C 54.667969 48.253906 55.878906 47.710938 57.113281 47.214844 C 58.34375 46.714844 59.59375 46.269531 60.863281 45.867188 C 62.128906 45.46875 63.410156 45.121094 64.703125 44.820312 C 65.996094 44.519531 67.300781 44.269531 68.613281 44.070312 C 69.207031 43.125 69.835938 42.207031 70.503906 41.3125 C 71.167969 40.421875 71.871094 39.558594 72.609375 38.722656 C 73.347656 37.886719 74.121094 37.085938 74.925781 36.3125 C 75.726562 35.542969 76.5625 34.804688 77.429688 34.101562 C 78.292969 33.402344 79.1875 32.734375 80.105469 32.105469 C 81.027344 31.476562 81.972656 30.886719 82.941406 30.335938 C 83.910156 29.785156 84.898438 29.277344 85.910156 28.808594 C 86.917969 28.339844 87.949219 27.914062 88.992188 27.527344 C 90.039062 27.144531 91.101562 26.804688 92.175781 26.507812 C 93.25 26.210938 94.332031 25.957031 95.425781 25.75 C 96.523438 25.542969 97.625 25.378906 98.730469 25.261719 C 99.839844 25.148438 100.953125 25.074219 102.066406 25.050781 C 103.179688 25.027344 104.292969 25.046875 105.40625 25.113281 C 106.515625 25.179688 107.625 25.292969 108.726562 25.449219 C 109.832031 25.609375 110.925781 25.8125 112.011719 26.0625 C 113.097656 26.308594 114.171875 26.601562 115.234375 26.9375 C 117.015625 24.371094 119.03125 22.011719 121.289062 19.851562 C 123.546875 17.691406 125.996094 15.78125 128.636719 14.117188 C 131.28125 12.449219 134.0625 11.066406 136.984375 9.964844 C 139.90625 8.859375 142.910156 8.058594 145.992188 7.5625 C 148.492188 7.316406 150.996094 7.285156 153.5 7.46875 C 156.003906 7.65625 158.476562 8.050781 160.914062 8.664062 C 163.347656 9.273438 165.714844 10.089844 168.011719 11.109375 C 170.308594 12.128906 172.5 13.335938 174.585938 14.734375 C 175.488281 13.964844 176.421875 13.234375 177.386719 12.550781 C 178.355469 11.863281 179.351562 11.222656 180.375 10.625 C 181.398438 10.03125 182.449219 9.480469 183.523438 8.976562 C 184.597656 8.476562 185.691406 8.023438 186.804688 7.621094 C 187.921875 7.214844 189.050781 6.863281 190.199219 6.5625 C 191.34375 6.257812 192.503906 6.011719 193.671875 5.8125 C 194.839844 5.613281 196.015625 5.46875 197.199219 5.378906 C 198.378906 5.285156 199.5625 5.246094 200.75 5.261719 C 201.933594 5.277344 203.117188 5.34375 204.296875 5.464844 C 205.476562 5.585938 206.648438 5.761719 207.8125 5.988281 C 208.976562 6.214844 210.125 6.492188 211.265625 6.824219 C 212.402344 7.152344 213.523438 7.535156 214.628906 7.964844 C 215.734375 8.394531 216.816406 8.875 217.878906 9.402344 C 218.9375 9.933594 219.972656 10.507812 220.984375 11.128906 C 221.992188 11.75 222.972656 12.417969 223.921875 13.125 C 224.871094 13.835938 225.789062 14.585938 226.667969 15.378906 C 228.914062 14.890625 231.183594 14.566406 233.472656 14.410156 C 235.765625 14.253906 238.058594 14.265625 240.347656 14.445312 C 242.636719 14.625 244.902344 14.96875 247.140625 15.480469 C 249.382812 15.992188 251.570312 16.664062 253.714844 17.496094 C 255.855469 18.332031 257.921875 19.316406 259.921875 20.449219 C 261.917969 21.585938 263.820312 22.863281 265.628906 24.277344 C 267.4375 25.691406 269.136719 27.230469 270.71875 28.894531 C 272.304688 30.558594 273.757812 32.332031 275.082031 34.207031 C 278.386719 34.253906 281.65625 34.625 284.886719 35.316406 C 288.121094 36.011719 291.253906 37.011719 294.289062 38.324219 C 297.320312 39.636719 300.199219 41.234375 302.917969 43.113281 C 305.636719 44.992188 308.144531 47.121094 310.441406 49.496094 C 312.238281 51.578125 313.847656 53.796875 315.269531 56.144531 C 316.695312 58.496094 317.917969 60.949219 318.933594 63.503906 C 319.953125 66.054688 320.75 68.675781 321.332031 71.363281 C 321.914062 74.050781 322.269531 76.765625 322.398438 79.511719 C 325.289062 80.339844 328.058594 81.476562 330.699219 82.921875 C 333.339844 84.367188 335.789062 86.085938 338.046875 88.074219 C 340.304688 90.066406 342.3125 92.28125 344.074219 94.722656 C 345.839844 97.164062 347.308594 99.765625 348.492188 102.535156 C 349.335938 105.398438 349.890625 108.316406 350.15625 111.289062 C 350.417969 114.261719 350.382812 117.230469 350.054688 120.199219 C 349.722656 123.164062 349.101562 126.066406 348.191406 128.910156 C 347.28125 131.753906 346.097656 134.476562 344.644531 137.082031 C 345.921875 140.429688 346.890625 143.867188 347.550781 147.390625 C 348.210938 150.914062 348.546875 154.46875 348.566406 158.054688 C 348.585938 161.640625 348.28125 165.195312 347.660156 168.726562 C 347.035156 172.257812 346.101562 175.703125 344.859375 179.066406 C 343.515625 181.929688 341.90625 184.632812 340.027344 187.179688 C 338.148438 189.722656 336.035156 192.058594 333.691406 194.179688 C 331.347656 196.304688 328.820312 198.175781 326.101562 199.796875 C 323.386719 201.417969 320.539062 202.757812 317.554688 203.808594 C 317.066406 211.683594 315.636719 219.382812 313.265625 226.90625 C 303.496094 258.488281 272.25 266.484375 251.714844 266.484375 L 251.175781 266.484375 L 254.761719 294.300781 C 254.8125 294.691406 254.824219 295.082031 254.796875 295.472656 C 254.769531 295.863281 254.707031 296.25 254.601562 296.628906 C 254.5 297.007812 254.363281 297.371094 254.1875 297.722656 C 254.011719 298.074219 253.804688 298.40625 253.566406 298.71875 C 253.328125 299.027344 253.058594 299.3125 252.761719 299.570312 C 252.464844 299.828125 252.148438 300.054688 251.808594 300.25 C 251.46875 300.445312 251.109375 300.605469 250.738281 300.730469 C 250.367188 300.855469 249.988281 300.945312 249.597656 300.996094 C 249.335938 300.996094 249.082031 300.996094 248.820312 300.996094 C 248.457031 300.996094 248.097656 300.96875 247.738281 300.90625 C 247.382812 300.84375 247.035156 300.75 246.695312 300.621094 C 246.355469 300.496094 246.027344 300.339844 245.714844 300.15625 C 245.40625 299.96875 245.113281 299.757812 244.839844 299.519531 C 244.566406 299.28125 244.316406 299.019531 244.089844 298.734375 C 243.867188 298.449219 243.667969 298.148438 243.496094 297.828125 C 243.328125 297.507812 243.1875 297.175781 243.078125 296.828125 C 242.964844 296.484375 242.890625 296.128906 242.84375 295.769531 L 238.382812 260.816406 C 238.269531 259.90625 238.363281 259.019531 238.65625 258.148438 C 238.953125 257.28125 239.425781 256.519531 240.070312 255.867188 C 240.710938 255.207031 241.464844 254.722656 242.332031 254.414062 C 243.199219 254.105469 244.09375 254.011719 245.007812 254.125 C 246.882812 254.328125 290.828125 258.90625 301.835938 223.34375 C 312.175781 189.871094 301.585938 162.554688 273.527344 150.257812 C 273.15625 150.105469 272.804688 149.921875 272.46875 149.703125 C 272.136719 149.484375 271.828125 149.234375 271.542969 148.949219 C 271.257812 148.667969 271.003906 148.363281 270.78125 148.027344 C 270.558594 147.695312 270.371094 147.34375 270.222656 146.972656 C 270.070312 146.605469 269.957031 146.222656 269.878906 145.828125 C 269.804688 145.4375 269.769531 145.039062 269.773438 144.640625 C 269.78125 144.238281 269.824219 143.84375 269.90625 143.453125 C 269.992188 143.0625 270.113281 142.683594 270.273438 142.316406 C 270.433594 141.949219 270.628906 141.601562 270.859375 141.273438 C 271.089844 140.945312 271.347656 140.644531 271.640625 140.371094 C 271.929688 140.09375 272.246094 139.851562 272.585938 139.640625 C 272.921875 139.425781 273.28125 139.25 273.65625 139.109375 C 274.03125 138.96875 274.414062 138.867188 274.808594 138.804688 C 275.207031 138.742188 275.601562 138.71875 276.003906 138.734375 C 276.402344 138.753906 276.796875 138.808594 277.183594 138.90625 C 277.574219 139 277.949219 139.136719 278.308594 139.304688 C 280.921875 140.390625 283.453125 141.644531 285.898438 143.066406 C 288.34375 144.488281 290.6875 146.066406 292.921875 147.800781 C 295.15625 149.535156 297.269531 151.410156 299.253906 153.425781 C 301.238281 155.441406 303.082031 157.578125 304.785156 159.839844 C 306.484375 162.101562 308.027344 164.464844 309.414062 166.933594 C 310.800781 169.398438 312.015625 171.949219 313.0625 174.578125 C 314.109375 177.207031 314.976562 179.890625 315.664062 182.636719 C 316.351562 185.382812 316.855469 188.160156 317.171875 190.972656 C 318.988281 190.125 320.714844 189.128906 322.355469 187.980469 C 323.996094 186.832031 325.523438 185.550781 326.941406 184.136719 C 328.359375 182.722656 329.640625 181.195312 330.792969 179.558594 C 331.941406 177.917969 332.941406 176.191406 333.789062 174.378906 C 334.761719 171.519531 335.46875 168.597656 335.910156 165.613281 C 336.351562 162.625 336.519531 159.625 336.417969 156.609375 C 336.316406 153.589844 335.945312 150.609375 335.300781 147.65625 C 334.660156 144.707031 333.753906 141.839844 332.59375 139.054688 C 332.199219 138.140625 332.035156 137.1875 332.105469 136.195312 C 332.179688 135.203125 332.476562 134.285156 333 133.4375 C 334.226562 131.453125 335.246094 129.371094 336.058594 127.1875 C 336.871094 125.003906 337.457031 122.761719 337.824219 120.457031 C 338.191406 118.15625 338.328125 115.84375 338.234375 113.515625 C 338.140625 111.183594 337.816406 108.886719 337.265625 106.625 C 336.175781 104.421875 334.84375 102.375 333.273438 100.480469 C 331.707031 98.589844 329.941406 96.902344 327.976562 95.417969 C 326.015625 93.9375 323.910156 92.699219 321.660156 91.707031 C 319.414062 90.714844 317.078125 89.992188 314.664062 89.542969 C 314.015625 89.34375 313.421875 89.046875 312.875 88.648438 C 312.332031 88.25 311.867188 87.773438 311.484375 87.21875 C 311.101562 86.660156 310.820312 86.058594 310.640625 85.40625 C 310.464844 84.757812 310.398438 84.09375 310.441406 83.421875 C 310.507812 81.074219 310.367188 78.742188 310.011719 76.421875 C 309.660156 74.101562 309.101562 71.832031 308.339844 69.609375 C 307.574219 67.390625 306.621094 65.257812 305.472656 63.210938 C 304.328125 61.160156 303.007812 59.230469 301.511719 57.421875 C 299.546875 55.496094 297.402344 53.789062 295.085938 52.296875 C 292.769531 50.808594 290.328125 49.570312 287.757812 48.582031 C 285.191406 47.589844 282.546875 46.871094 279.828125 46.421875 C 277.113281 45.972656 274.378906 45.800781 271.628906 45.910156 C 270.628906 45.878906 269.699219 45.617188 268.832031 45.117188 C 267.964844 44.621094 267.269531 43.949219 266.738281 43.101562 C 265.734375 41.46875 264.609375 39.929688 263.355469 38.480469 C 262.105469 37.035156 260.746094 35.695312 259.277344 34.464844 C 257.808594 33.234375 256.253906 32.128906 254.609375 31.152344 C 252.960938 30.171875 251.25 29.332031 249.46875 28.628906 C 247.6875 27.925781 245.863281 27.371094 243.992188 26.960938 C 242.121094 26.554688 240.230469 26.296875 238.316406 26.191406 C 236.40625 26.089844 234.496094 26.136719 232.59375 26.34375 C 230.691406 26.546875 228.816406 26.898438 226.96875 27.40625 C 202.941406 35.117188 207.914062 62.359375 208.140625 63.519531 C 208.21875 63.902344 208.257812 64.292969 208.261719 64.683594 C 208.261719 65.078125 208.226562 65.46875 208.152344 65.851562 C 208.078125 66.238281 207.964844 66.613281 207.816406 66.976562 C 207.667969 67.339844 207.484375 67.6875 207.269531 68.015625 C 207.050781 68.34375 206.804688 68.644531 206.527344 68.925781 C 206.253906 69.203125 205.953125 69.453125 205.625 69.671875 C 205.300781 69.894531 204.957031 70.078125 204.59375 70.230469 C 204.230469 70.382812 203.859375 70.5 203.472656 70.578125 C 203.089844 70.65625 202.699219 70.695312 202.304688 70.699219 C 201.914062 70.699219 201.523438 70.664062 201.136719 70.589844 C 200.753906 70.511719 200.378906 70.402344 200.015625 70.253906 C 199.648438 70.105469 199.304688 69.921875 198.976562 69.703125 C 198.648438 69.488281 198.34375 69.242188 198.066406 68.964844 C 197.789062 68.6875 197.539062 68.386719 197.316406 68.0625 C 197.097656 67.734375 196.910156 67.390625 196.761719 67.03125 C 196.609375 66.667969 196.492188 66.292969 196.414062 65.910156 C 195.941406 63.8125 195.625 61.6875 195.46875 59.542969 C 195.308594 57.398438 195.304688 55.253906 195.457031 53.109375 C 195.613281 50.964844 195.925781 48.839844 196.390625 46.742188 C 196.855469 44.640625 197.472656 42.585938 198.242188 40.578125 C 199.007812 38.570312 199.917969 36.628906 200.972656 34.75 C 202.023438 32.875 203.207031 31.085938 204.523438 29.386719 C 205.839844 27.683594 207.269531 26.085938 208.820312 24.59375 C 210.371094 23.105469 212.019531 21.734375 213.769531 20.484375 C 212.367188 19.773438 210.914062 19.179688 209.410156 18.703125 C 207.910156 18.226562 206.382812 17.871094 204.824219 17.640625 C 203.265625 17.410156 201.699219 17.304688 200.125 17.324219 C 198.550781 17.34375 196.988281 17.488281 195.433594 17.757812 C 193.882812 18.03125 192.363281 18.421875 190.875 18.9375 C 189.386719 19.453125 187.949219 20.082031 186.5625 20.828125 C 185.175781 21.574219 183.855469 22.425781 182.605469 23.382812 C 181.351562 24.339844 180.1875 25.386719 179.105469 26.53125 C 178.839844 26.796875 178.550781 27.03125 178.242188 27.242188 C 177.933594 27.449219 177.605469 27.628906 177.261719 27.777344 C 176.917969 27.925781 176.566406 28.039062 176.199219 28.121094 C 175.835938 28.203125 175.464844 28.246094 175.09375 28.261719 C 174.71875 28.273438 174.347656 28.25 173.976562 28.191406 C 173.609375 28.132812 173.246094 28.042969 172.894531 27.917969 C 172.542969 27.792969 172.207031 27.636719 171.882812 27.445312 C 171.5625 27.257812 171.257812 27.042969 170.976562 26.796875 C 169.328125 25.457031 167.566406 24.289062 165.695312 23.285156 C 163.824219 22.28125 161.875 21.464844 159.851562 20.832031 C 157.824219 20.199219 155.757812 19.761719 153.648438 19.519531 C 151.539062 19.277344 149.425781 19.238281 147.308594 19.394531 C 144.710938 19.933594 142.199219 20.738281 139.773438 21.808594 C 137.347656 22.878906 135.058594 24.191406 132.914062 25.746094 C 130.765625 27.300781 128.804688 29.066406 127.03125 31.039062 C 125.261719 33.011719 123.714844 35.148438 122.394531 37.445312 C 122.007812 38.003906 121.539062 38.484375 120.988281 38.882812 C 120.4375 39.28125 119.835938 39.578125 119.183594 39.773438 C 118.53125 39.964844 117.867188 40.042969 117.1875 40.011719 C 116.507812 39.976562 115.851562 39.832031 115.222656 39.574219 C 114.386719 39.222656 113.535156 38.90625 112.667969 38.628906 C 111.800781 38.355469 110.921875 38.117188 110.035156 37.921875 C 109.148438 37.726562 108.253906 37.574219 107.351562 37.457031 C 106.449219 37.34375 105.542969 37.273438 104.632812 37.242188 C 103.726562 37.207031 102.816406 37.21875 101.910156 37.269531 C 101.003906 37.320312 100.097656 37.414062 99.199219 37.546875 C 98.300781 37.683594 97.410156 37.855469 96.523438 38.074219 C 95.640625 38.289062 94.769531 38.542969 93.910156 38.835938 C 93.050781 39.132812 92.203125 39.464844 91.375 39.839844 C 90.546875 40.210938 89.734375 40.621094 88.941406 41.066406 C 88.148438 41.511719 87.378906 41.992188 86.632812 42.507812 C 85.882812 43.023438 85.160156 43.574219 84.460938 44.15625 C 83.761719 44.738281 83.09375 45.351562 82.449219 45.996094 C 81.808594 46.640625 81.195312 47.308594 80.617188 48.011719 C 80.035156 48.710938 79.488281 49.433594 78.972656 50.183594 C 78.457031 50.933594 77.976562 51.703125 77.53125 52.496094 C 77.054688 53.378906 76.398438 54.09375 75.5625 54.644531 C 74.726562 55.195312 73.808594 55.515625 72.8125 55.605469 C 71.695312 55.707031 70.589844 55.855469 69.488281 56.046875 C 68.386719 56.242188 67.292969 56.484375 66.214844 56.769531 C 65.132812 57.058594 64.066406 57.390625 63.011719 57.765625 C 61.960938 58.140625 60.921875 58.5625 59.90625 59.027344 C 58.886719 59.488281 57.890625 59.996094 56.917969 60.542969 C 55.941406 61.089844 54.992188 61.679688 54.066406 62.308594 C 53.140625 62.933594 52.242188 63.601562 51.371094 64.304688 C 50.503906 65.007812 49.664062 65.746094 48.855469 66.519531 C 48.050781 67.292969 47.277344 68.101562 46.539062 68.941406 C 45.796875 69.78125 45.09375 70.648438 44.429688 71.546875 C 43.761719 72.445312 43.136719 73.371094 42.546875 74.324219 C 41.960938 75.273438 41.414062 76.25 40.90625 77.246094 C 40.402344 78.242188 39.9375 79.261719 39.519531 80.296875 C 39.097656 81.332031 38.722656 82.386719 38.390625 83.453125 C 38.058594 84.523438 37.773438 85.601562 37.53125 86.695312 C 37.289062 87.785156 37.097656 88.886719 36.949219 89.996094 C 36.640625 91.214844 36.40625 92.449219 36.246094 93.695312 C 36.089844 94.941406 36.007812 96.195312 36.003906 97.453125 C 36 98.710938 36.074219 99.964844 36.222656 101.210938 C 36.371094 102.460938 36.597656 103.695312 36.902344 104.914062 C 37.203125 106.136719 37.578125 107.332031 38.03125 108.507812 C 38.480469 109.683594 39 110.824219 39.589844 111.933594 C 40.179688 113.042969 40.835938 114.113281 41.558594 115.144531 C 42.28125 116.171875 43.0625 117.15625 43.90625 118.089844 C 45.738281 119.332031 47.6875 120.347656 49.757812 121.132812 C 51.824219 121.914062 53.957031 122.449219 56.152344 122.730469 C 58.347656 123.011719 60.546875 123.035156 62.746094 122.796875 C 64.949219 122.558594 67.089844 122.070312 69.175781 121.328125 C 69.351562 120.65625 69.566406 120 69.816406 119.351562 C 70.070312 118.707031 70.359375 118.078125 70.683594 117.46875 C 71.011719 116.855469 71.371094 116.265625 71.765625 115.695312 C 72.160156 115.125 72.585938 114.578125 73.042969 114.058594 C 73.5 113.539062 73.988281 113.046875 74.503906 112.585938 C 75.019531 112.121094 75.558594 111.691406 76.125 111.289062 C 76.691406 110.890625 77.277344 110.523438 77.886719 110.191406 C 78.492188 109.859375 79.121094 109.5625 79.761719 109.304688 C 80.40625 109.046875 81.0625 108.824219 81.730469 108.644531 C 82.398438 108.460938 83.074219 108.316406 83.761719 108.214844 C 84.445312 108.109375 85.132812 108.046875 85.828125 108.023438 C 86.519531 108 87.210938 108.019531 87.902344 108.078125 C 88.59375 108.132812 89.277344 108.230469 89.957031 108.371094 C 90.636719 108.507812 91.304688 108.683594 91.964844 108.898438 C 92.621094 109.113281 93.265625 109.367188 93.894531 109.660156 C 94.523438 109.949219 95.132812 110.277344 95.726562 110.636719 C 96.316406 111 96.882812 111.394531 97.429688 111.824219 C 97.976562 112.25 98.492188 112.707031 98.984375 113.199219 C 99.476562 113.6875 99.9375 114.203125 100.367188 114.742188 C 100.800781 115.285156 101.199219 115.851562 101.5625 116.441406 C 101.929688 117.03125 102.257812 117.636719 102.554688 118.265625 C 102.847656 118.890625 103.105469 119.535156 103.324219 120.191406 C 103.542969 120.847656 103.726562 121.515625 103.867188 122.195312 C 104.007812 122.875 104.109375 123.558594 104.171875 124.25 C 104.234375 124.9375 104.253906 125.628906 104.234375 126.324219 C 104.21875 127.015625 104.160156 127.707031 104.058594 128.390625 C 103.960938 129.078125 103.820312 129.753906 103.644531 130.425781 C 103.464844 131.09375 103.246094 131.75 102.992188 132.394531 C 102.738281 133.039062 102.445312 133.667969 102.117188 134.277344 C 101.789062 134.886719 101.425781 135.476562 101.03125 136.046875 C 100.632812 136.613281 100.207031 137.15625 99.746094 137.675781 C 99.285156 138.191406 98.796875 138.683594 98.277344 139.144531 C 97.761719 139.605469 97.21875 140.035156 96.652344 140.433594 C 96.082031 140.828125 95.496094 141.195312 94.886719 141.523438 C 94.277344 141.851562 93.648438 142.144531 93.003906 142.402344 C 92.359375 142.65625 91.703125 142.875 91.035156 143.054688 C 90.363281 143.234375 89.6875 143.375 89 143.472656 C 88.316406 143.574219 87.625 143.632812 86.933594 143.652344 C 86.242188 143.675781 85.550781 143.652344 84.859375 143.59375 C 84.167969 143.53125 83.484375 143.433594 82.804688 143.292969 C 82.128906 143.152344 81.460938 142.972656 80.800781 142.753906 C 80.144531 142.535156 79.5 142.277344 78.875 141.984375 C 78.246094 141.691406 77.636719 141.363281 77.046875 141 C 76.457031 140.632812 75.890625 140.238281 75.347656 139.804688 C 74.804688 139.375 74.289062 138.914062 73.800781 138.425781 C 73.308594 137.933594 72.851562 137.417969 72.421875 136.871094 C 71.992188 136.328125 71.597656 135.761719 71.234375 135.167969 C 70.871094 134.578125 70.542969 133.96875 70.253906 133.339844 C 66.515625 134.242188 62.726562 134.730469 58.882812 134.800781 C 57.804688 134.859375 56.722656 134.867188 55.640625 134.820312 C 54.5625 134.769531 53.484375 134.667969 52.414062 134.511719 C 51.34375 134.355469 50.285156 134.148438 49.234375 133.882812 C 48.183594 133.621094 47.152344 133.304688 46.132812 132.941406 C 45.117188 132.574219 44.117188 132.15625 43.140625 131.6875 C 42.167969 131.222656 41.214844 130.707031 40.292969 130.144531 C 39.367188 129.582031 38.472656 128.976562 37.609375 128.320312 C 36.746094 127.667969 35.917969 126.976562 35.125 126.238281 C 34.332031 125.503906 33.578125 124.730469 32.863281 123.917969 C 32.148438 123.105469 31.472656 122.261719 30.84375 121.382812 C 30.214844 120.503906 29.628906 119.59375 29.089844 118.65625 C 28.550781 117.71875 28.058594 116.753906 27.617188 115.769531 C 27.175781 114.78125 26.785156 113.773438 26.441406 112.746094 C 26.101562 111.71875 25.8125 110.679688 25.578125 109.621094 C 25.339844 108.566406 25.15625 107.5 25.027344 106.425781 C 24.898438 105.351562 24.824219 104.273438 24.804688 103.191406 C 22.816406 106.414062 21.144531 109.792969 19.789062 113.324219 C 18.429688 116.855469 17.410156 120.484375 16.730469 124.207031 C 16.046875 127.929688 15.714844 131.683594 15.730469 135.464844 C 15.75 139.25 16.113281 143 16.832031 146.71875 C 17.28125 149.96875 18.046875 153.144531 19.121094 156.242188 C 20.199219 159.34375 21.570312 162.308594 23.234375 165.140625 C 24.894531 167.96875 26.820312 170.609375 29.003906 173.058594 C 31.183594 175.507812 33.585938 177.722656 36.207031 179.699219 C 37.328125 180.492188 38.519531 181.160156 39.785156 181.699219 C 41.050781 182.238281 42.355469 182.636719 43.707031 182.894531 C 45.054688 183.15625 46.417969 183.269531 47.792969 183.234375 C 49.164062 183.203125 50.519531 183.023438 51.855469 182.699219 C 58.101562 181.457031 64.398438 181.121094 70.742188 181.695312 C 77.085938 182.269531 83.21875 183.726562 89.140625 186.070312 C 89.214844 183.53125 89.472656 181.015625 89.917969 178.515625 C 90.359375 176.015625 90.980469 173.5625 91.785156 171.15625 C 92.585938 168.75 93.558594 166.410156 94.703125 164.144531 C 95.847656 161.878906 97.152344 159.710938 98.613281 157.636719 C 100.074219 155.5625 101.679688 153.605469 103.429688 151.765625 C 105.179688 149.925781 107.050781 148.222656 109.046875 146.65625 C 111.046875 145.09375 113.148438 143.679688 115.351562 142.421875 C 117.554688 141.164062 119.839844 140.074219 122.203125 139.152344 C 122.574219 139.027344 122.953125 138.941406 123.339844 138.894531 C 123.726562 138.847656 124.113281 138.835938 124.503906 138.863281 C 124.890625 138.890625 125.273438 138.957031 125.652344 139.058594 C 126.027344 139.160156 126.390625 139.296875 126.738281 139.472656 C 127.089844 139.644531 127.417969 139.851562 127.726562 140.085938 C 128.035156 140.324219 128.316406 140.589844 128.574219 140.882812 C 128.832031 141.175781 129.058594 141.492188 129.253906 141.828125 C 129.449219 142.167969 129.609375 142.519531 129.738281 142.886719 C 129.863281 143.257812 129.953125 143.636719 130.003906 144.019531 C 130.058594 144.40625 130.070312 144.796875 130.046875 145.183594 C 130.023438 145.574219 129.964844 145.957031 129.867188 146.332031 C 129.765625 146.710938 129.632812 147.074219 129.464844 147.425781 C 129.292969 147.777344 129.089844 148.109375 128.855469 148.417969 C 128.621094 148.730469 128.359375 149.015625 128.070312 149.277344 C 127.78125 149.539062 127.464844 149.765625 127.132812 149.964844 C 126.796875 150.164062 126.445312 150.328125 126.078125 150.460938 C 124.929688 150.90625 123.800781 151.402344 122.699219 151.953125 C 121.597656 152.503906 120.519531 153.105469 119.472656 153.753906 C 118.425781 154.40625 117.410156 155.101562 116.429688 155.84375 C 115.445312 156.589844 114.5 157.375 113.589844 158.207031 C 112.679688 159.039062 111.808594 159.910156 110.976562 160.820312 C 110.148438 161.734375 109.363281 162.679688 108.621094 163.664062 C 107.878906 164.648438 107.183594 165.667969 106.535156 166.714844 C 105.886719 167.765625 105.289062 168.839844 104.742188 169.945312 C 104.191406 171.046875 103.695312 172.175781 103.25 173.324219 C 102.808594 174.472656 102.417969 175.640625 102.082031 176.828125 C 101.746094 178.015625 101.464844 179.210938 101.238281 180.425781 C 101.011719 181.636719 100.84375 182.855469 100.730469 184.082031 C 100.617188 185.3125 100.5625 186.542969 100.5625 187.773438 C 100.5625 189.007812 100.621094 190.238281 100.734375 191.464844 C 100.851562 192.691406 101.023438 193.910156 101.25 195.121094 C 101.476562 196.332031 101.757812 197.53125 102.097656 198.71875 C 106.878906 222.949219 125.085938 225.589844 152.375 226.878906 C 161.492188 226.890625 170.476562 228.003906 179.320312 230.214844 C 208.210938 239.15625 221.636719 280.300781 221.027344 300.804688 C 221.015625 301.1875 220.96875 301.570312 220.882812 301.945312 C 220.800781 302.320312 220.679688 302.6875 220.523438 303.039062 C 220.371094 303.390625 220.183594 303.726562 219.964844 304.042969 C 219.742188 304.359375 219.496094 304.652344 219.21875 304.921875 C 218.941406 305.191406 218.640625 305.429688 218.320312 305.640625 C 217.996094 305.851562 217.65625 306.03125 217.300781 306.175781 C 216.941406 306.320312 216.574219 306.429688 216.195312 306.503906 C 215.816406 306.578125 215.4375 306.613281 215.050781 306.613281 L 214.871094 306.613281 C 214.476562 306.601562 214.089844 306.550781 213.707031 306.464844 C 213.324219 306.375 212.953125 306.25 212.597656 306.089844 C 212.238281 305.929688 211.898438 305.734375 211.578125 305.507812 C 211.261719 305.277344 210.964844 305.023438 210.695312 304.738281 C 210.425781 304.449219 210.1875 304.140625 209.980469 303.808594 C 209.773438 303.476562 209.597656 303.125 209.457031 302.757812 C 209.320312 302.390625 209.21875 302.015625 209.152344 301.625 C 209.085938 301.238281 209.0625 300.847656 209.074219 300.457031 C 209.5625 284.140625 198.242188 248.589844 175.792969 241.632812 C 167.910156 239.765625 159.917969 238.828125 151.8125 238.824219 C 127.511719 237.628906 97.269531 236.253906 90.371094 201.011719 C 90.261719 200.4375 90.238281 199.914062 90.144531 199.351562 C 87.414062 198.027344 84.601562 196.925781 81.703125 196.039062 C 78.804688 195.152344 75.851562 194.496094 72.851562 194.066406 C 69.851562 193.636719 66.835938 193.441406 63.804688 193.480469 C 60.773438 193.519531 57.761719 193.789062 54.773438 194.292969 C 52.636719 194.820312 50.472656 195.117188 48.277344 195.1875 C 46.078125 195.253906 43.898438 195.09375 41.738281 194.703125 C 39.574219 194.316406 37.476562 193.703125 35.441406 192.871094 C 33.410156 192.039062 31.484375 191.003906 29.667969 189.761719 C 26.367188 187.335938 23.335938 184.605469 20.574219 181.578125 C 17.8125 178.546875 15.375 175.277344 13.261719 171.765625 C 11.148438 168.25 9.402344 164.566406 8.023438 160.707031 C 6.640625 156.847656 5.652344 152.890625 5.054688 148.832031 C 0.488281 123.046875 9.539062 96.234375 25.722656 85.65625 Z M 86.34375 131.65625 C 86.730469 131.65625 87.113281 131.621094 87.492188 131.542969 C 87.871094 131.46875 88.242188 131.359375 88.597656 131.210938 C 88.957031 131.0625 89.296875 130.882812 89.621094 130.667969 C 89.941406 130.453125 90.242188 130.210938 90.515625 129.9375 C 90.789062 129.664062 91.035156 129.367188 91.25 129.042969 C 91.464844 128.722656 91.648438 128.382812 91.796875 128.027344 C 91.945312 127.667969 92.058594 127.300781 92.132812 126.921875 C 92.207031 126.539062 92.246094 126.15625 92.246094 125.769531 C 92.25 125.382812 92.210938 125 92.136719 124.621094 C 92.0625 124.238281 91.949219 123.871094 91.800781 123.511719 C 91.652344 123.15625 91.472656 122.816406 91.257812 122.492188 C 91.042969 122.171875 90.800781 121.875 90.527344 121.597656 C 90.253906 121.324219 89.953125 121.082031 89.632812 120.867188 C 89.3125 120.648438 88.972656 120.46875 88.613281 120.320312 C 88.257812 120.171875 87.886719 120.058594 87.507812 119.984375 C 87.128906 119.90625 86.746094 119.871094 86.359375 119.867188 C 85.972656 119.867188 85.585938 119.90625 85.207031 119.980469 C 84.828125 120.058594 84.460938 120.167969 84.101562 120.316406 C 83.746094 120.464844 83.40625 120.644531 83.082031 120.859375 C 82.761719 121.074219 82.460938 121.320312 82.1875 121.59375 C 81.914062 121.867188 81.671875 122.164062 81.457031 122.488281 C 81.238281 122.808594 81.058594 123.148438 80.910156 123.507812 C 80.761719 123.863281 80.648438 124.234375 80.574219 124.613281 C 80.5 124.992188 80.460938 125.375 80.460938 125.761719 C 80.460938 126.148438 80.5 126.53125 80.574219 126.910156 C 80.648438 127.289062 80.761719 127.65625 80.910156 128.015625 C 81.054688 128.371094 81.238281 128.710938 81.453125 129.03125 C 81.667969 129.355469 81.910156 129.652344 82.183594 129.925781 C 82.457031 130.199219 82.753906 130.441406 83.074219 130.660156 C 83.394531 130.875 83.734375 131.054688 84.089844 131.203125 C 84.449219 131.351562 84.816406 131.464844 85.195312 131.539062 C 85.574219 131.617188 85.957031 131.65625 86.34375 131.65625 Z M 86.34375 131.65625 " fill-opacity="1" fill-rule="nonzero"/><path fill="#ffffff" d="M 278.285156 197.378906 C 278.449219 197.019531 278.644531 196.683594 278.871094 196.363281 C 279.101562 196.042969 279.359375 195.75 279.644531 195.484375 C 279.933594 195.214844 280.242188 194.976562 280.574219 194.769531 C 280.910156 194.5625 281.257812 194.390625 281.625 194.25 C 281.996094 194.113281 282.371094 194.011719 282.757812 193.949219 C 283.144531 193.882812 283.535156 193.859375 283.929688 193.871094 C 284.320312 193.882812 284.707031 193.9375 285.089844 194.023438 C 285.472656 194.113281 285.84375 194.238281 286.199219 194.402344 C 286.558594 194.5625 286.894531 194.757812 287.214844 194.988281 C 287.535156 195.214844 287.828125 195.472656 288.097656 195.761719 C 288.363281 196.046875 288.601562 196.359375 288.808594 196.691406 C 289.015625 197.023438 289.1875 197.375 289.328125 197.742188 C 289.464844 198.109375 289.566406 198.488281 289.628906 198.875 C 289.695312 199.261719 289.71875 199.652344 289.707031 200.042969 C 289.695312 200.4375 289.644531 200.824219 289.554688 201.207031 C 289.464844 201.585938 289.339844 201.957031 289.175781 202.316406 C 288.148438 204.25 286.988281 206.105469 285.703125 207.882812 C 284.417969 209.65625 283.019531 211.335938 281.5 212.917969 C 279.984375 214.5 278.367188 215.96875 276.648438 217.328125 C 274.925781 218.6875 273.121094 219.921875 271.230469 221.03125 C 269.339844 222.140625 267.382812 223.113281 265.359375 223.953125 C 263.335938 224.792969 261.261719 225.488281 259.140625 226.042969 C 257.019531 226.59375 254.871094 227 252.695312 227.257812 C 250.519531 227.511719 248.332031 227.617188 246.140625 227.574219 C 235.796875 227.304688 225.871094 225.125 216.363281 221.035156 C 215.898438 221.535156 215.40625 222.003906 214.882812 222.449219 C 214.363281 222.890625 213.820312 223.300781 213.25 223.679688 C 212.679688 224.0625 212.09375 224.40625 211.484375 224.71875 C 210.875 225.03125 210.253906 225.304688 209.613281 225.546875 C 208.972656 225.785156 208.320312 225.988281 207.65625 226.152344 C 206.992188 226.316406 206.324219 226.441406 205.644531 226.527344 C 204.96875 226.617188 204.285156 226.664062 203.601562 226.671875 C 202.917969 226.679688 202.238281 226.648438 201.558594 226.578125 C 200.878906 226.507812 200.203125 226.398438 199.535156 226.253906 C 198.871094 226.105469 198.214844 225.917969 197.566406 225.695312 C 196.921875 225.472656 196.289062 225.210938 195.675781 224.914062 C 195.058594 224.617188 194.460938 224.285156 193.882812 223.921875 C 193.308594 223.554688 192.753906 223.15625 192.222656 222.726562 C 191.6875 222.296875 191.183594 221.839844 190.703125 221.351562 C 190.226562 220.863281 189.777344 220.351562 189.359375 219.8125 C 188.9375 219.269531 188.550781 218.710938 188.195312 218.125 C 187.84375 217.539062 187.523438 216.9375 187.238281 216.316406 C 186.953125 215.695312 186.703125 215.058594 186.492188 214.410156 C 186.28125 213.757812 186.105469 213.101562 185.972656 212.429688 C 185.835938 211.761719 185.738281 211.085938 185.683594 210.402344 C 185.625 209.722656 185.605469 209.039062 185.628906 208.355469 C 185.648438 207.671875 185.710938 206.992188 185.808594 206.316406 C 185.910156 205.640625 186.046875 204.972656 186.226562 204.3125 C 186.402344 203.652344 186.617188 203.003906 186.867188 202.371094 C 187.121094 201.734375 187.40625 201.113281 187.730469 200.511719 C 188.054688 199.910156 188.410156 199.328125 188.800781 198.765625 C 189.191406 198.207031 189.613281 197.667969 190.0625 197.15625 C 190.515625 196.644531 190.996094 196.160156 191.503906 195.703125 C 192.011719 195.246094 192.546875 194.820312 193.101562 194.421875 C 193.660156 194.027344 194.238281 193.664062 194.839844 193.335938 C 195.4375 193.007812 196.054688 192.714844 196.6875 192.457031 C 197.320312 192.199219 197.964844 191.980469 198.625 191.796875 C 199.28125 191.613281 199.949219 191.46875 200.625 191.363281 C 201.300781 191.257812 201.980469 191.1875 202.660156 191.160156 C 203.34375 191.132812 204.027344 191.144531 204.707031 191.195312 C 205.390625 191.246094 206.066406 191.335938 206.738281 191.464844 C 207.410156 191.59375 208.070312 191.761719 208.722656 191.96875 C 209.375 192.171875 210.011719 192.414062 210.636719 192.695312 C 211.261719 192.972656 211.867188 193.289062 212.453125 193.636719 C 213.042969 193.984375 213.605469 194.367188 214.152344 194.78125 C 214.695312 195.195312 215.210938 195.640625 215.703125 196.113281 C 216.195312 196.589844 216.660156 197.089844 217.09375 197.617188 C 217.53125 198.144531 217.933594 198.695312 218.304688 199.269531 C 218.675781 199.84375 219.011719 200.4375 219.3125 201.050781 C 219.617188 201.664062 219.882812 202.292969 220.113281 202.9375 C 220.34375 203.578125 220.535156 204.234375 220.6875 204.898438 C 220.84375 205.566406 220.957031 206.238281 221.035156 206.917969 C 221.113281 207.597656 221.148438 208.277344 221.148438 208.960938 C 221.148438 209.332031 221.0625 209.679688 221.039062 210.039062 C 263.703125 227.023438 277.6875 198.667969 278.285156 197.378906 Z M 203.265625 203.082031 C 202.875 203.082031 202.492188 203.117188 202.113281 203.195312 C 201.734375 203.269531 201.363281 203.382812 201.007812 203.527344 C 200.648438 203.675781 200.308594 203.859375 199.988281 204.074219 C 199.667969 204.289062 199.367188 204.535156 199.09375 204.808594 C 198.820312 205.082031 198.578125 205.378906 198.363281 205.703125 C 198.148438 206.023438 197.964844 206.363281 197.816406 206.722656 C 197.671875 207.078125 197.558594 207.449219 197.484375 207.828125 C 197.40625 208.207031 197.371094 208.589844 197.371094 208.976562 C 197.371094 209.363281 197.410156 209.75 197.484375 210.128906 C 197.558594 210.507812 197.671875 210.875 197.820312 211.234375 C 197.96875 211.589844 198.152344 211.929688 198.367188 212.253906 C 198.582031 212.574219 198.828125 212.871094 199.101562 213.144531 C 199.375 213.417969 199.671875 213.664062 199.996094 213.878906 C 200.316406 214.09375 200.65625 214.273438 201.015625 214.421875 C 201.371094 214.570312 201.742188 214.679688 202.121094 214.753906 C 202.5 214.832031 202.882812 214.867188 203.273438 214.867188 C 203.660156 214.867188 204.042969 214.828125 204.421875 214.753906 C 204.800781 214.675781 205.167969 214.5625 205.527344 214.414062 C 205.882812 214.265625 206.222656 214.082031 206.546875 213.867188 C 206.867188 213.652344 207.164062 213.40625 207.4375 213.132812 C 207.710938 212.859375 207.957031 212.5625 208.167969 212.238281 C 208.382812 211.917969 208.566406 211.578125 208.710938 211.21875 C 208.859375 210.859375 208.972656 210.492188 209.046875 210.113281 C 209.121094 209.730469 209.15625 209.347656 209.15625 208.960938 C 209.15625 208.574219 209.117188 208.191406 209.042969 207.8125 C 208.964844 207.433594 208.851562 207.066406 208.703125 206.710938 C 208.554688 206.351562 208.375 206.015625 208.160156 205.691406 C 207.945312 205.371094 207.699219 205.074219 207.425781 204.800781 C 207.152344 204.527344 206.855469 204.285156 206.535156 204.070312 C 206.210938 203.855469 205.875 203.675781 205.515625 203.527344 C 205.160156 203.378906 204.792969 203.269531 204.410156 203.191406 C 204.03125 203.117188 203.648438 203.082031 203.265625 203.082031 Z M 203.265625 203.082031 " fill-opacity="1" fill-rule="nonzero"/><path fill="#ffffff" d="M 261.597656 109.242188 C 261.636719 108.851562 261.710938 108.464844 261.820312 108.085938 C 261.933594 107.710938 262.082031 107.347656 262.265625 107 C 262.449219 106.648438 262.664062 106.324219 262.914062 106.015625 C 263.160156 105.710938 263.4375 105.433594 263.738281 105.179688 C 264.042969 104.929688 264.367188 104.710938 264.714844 104.519531 C 265.058594 104.332031 265.421875 104.179688 265.796875 104.066406 C 266.171875 103.949219 266.558594 103.867188 266.949219 103.828125 C 267.339844 103.785156 267.734375 103.785156 268.125 103.820312 C 268.515625 103.855469 268.902344 103.929688 269.28125 104.042969 C 269.65625 104.152344 270.019531 104.300781 270.371094 104.484375 C 270.71875 104.667969 271.046875 104.882812 271.351562 105.132812 C 271.65625 105.378906 271.9375 105.65625 272.1875 105.957031 C 272.441406 106.261719 272.660156 106.585938 272.847656 106.929688 C 273.035156 107.277344 273.191406 107.636719 273.304688 108.015625 C 273.421875 108.390625 273.503906 108.773438 273.542969 109.164062 C 273.585938 109.558594 273.589844 109.949219 273.554688 110.339844 C 273.144531 113.25 272.464844 116.09375 271.515625 118.875 C 270.570312 121.65625 269.367188 124.324219 267.914062 126.875 C 266.460938 129.429688 264.78125 131.824219 262.875 134.058594 C 260.96875 136.292969 258.871094 138.328125 256.578125 140.167969 C 253.839844 142.191406 250.949219 143.972656 247.90625 145.503906 C 244.863281 147.035156 241.714844 148.296875 238.457031 149.289062 C 235.199219 150.28125 231.878906 150.988281 228.5 151.414062 C 225.121094 151.839844 221.726562 151.976562 218.324219 151.820312 C 213.253906 151.804688 208.203125 151.441406 203.179688 150.734375 C 202.167969 150.675781 201.15625 150.597656 200.144531 150.488281 C 199.136719 150.382812 198.128906 150.25 197.125 150.09375 C 196.121094 149.9375 195.125 149.757812 194.128906 149.550781 C 193.136719 149.34375 192.148438 149.113281 191.164062 148.859375 C 190.179688 148.601562 189.207031 148.324219 188.238281 148.019531 C 187.269531 147.714844 186.308594 147.386719 185.355469 147.035156 C 184.402344 146.683594 183.460938 146.308594 182.523438 145.914062 C 181.589844 145.515625 180.667969 145.09375 179.753906 144.648438 C 178.839844 144.203125 177.941406 143.738281 177.050781 143.25 C 176.160156 142.761719 175.28125 142.25 174.417969 141.71875 C 173.554688 141.183594 172.703125 140.632812 171.867188 140.054688 C 171.027344 139.480469 170.207031 138.886719 169.398438 138.269531 C 168.59375 137.65625 167.800781 137.019531 167.023438 136.367188 C 166.25 135.710938 165.488281 135.035156 164.746094 134.34375 C 164.003906 133.652344 163.28125 132.941406 162.570312 132.214844 C 161.863281 131.484375 161.175781 130.738281 160.507812 129.976562 C 159.835938 129.214844 159.183594 128.433594 158.554688 127.640625 C 157.921875 126.84375 157.308594 126.035156 156.71875 125.210938 C 156.128906 124.382812 155.558594 123.542969 155.007812 122.691406 C 154.457031 121.835938 153.929688 120.96875 153.421875 120.089844 C 152.917969 119.210938 152.433594 118.316406 151.96875 117.414062 C 151.507812 116.511719 151.066406 115.59375 150.652344 114.667969 C 150.234375 113.742188 149.839844 112.808594 149.46875 111.863281 C 149.101562 110.917969 148.753906 109.964844 148.429688 109 C 148.105469 108.039062 147.808594 107.070312 147.53125 106.089844 C 147.257812 105.113281 147.007812 104.128906 146.78125 103.140625 C 146.554688 102.148438 146.355469 101.15625 146.175781 100.15625 C 146 99.15625 145.847656 98.152344 145.722656 97.144531 C 145.59375 96.136719 145.492188 95.128906 145.417969 94.113281 C 145.339844 93.101562 145.289062 92.089844 145.261719 91.074219 C 145.234375 90.058594 145.234375 89.042969 145.257812 88.027344 C 145.28125 87.015625 145.332031 86 145.40625 84.988281 C 144.769531 84.699219 144.152344 84.375 143.554688 84.015625 C 142.953125 83.65625 142.378906 83.261719 141.824219 82.832031 C 141.273438 82.40625 140.746094 81.945312 140.246094 81.457031 C 139.75 80.96875 139.277344 80.453125 138.839844 79.90625 C 138.402344 79.363281 137.996094 78.796875 137.625 78.203125 C 137.25 77.613281 136.914062 77.003906 136.613281 76.371094 C 136.3125 75.742188 136.050781 75.09375 135.824219 74.433594 C 135.597656 73.773438 135.414062 73.097656 135.265625 72.414062 C 135.117188 71.730469 135.011719 71.042969 134.945312 70.347656 C 134.878906 69.652344 134.855469 68.953125 134.871094 68.253906 C 134.886719 67.554688 134.941406 66.859375 135.039062 66.167969 C 135.136719 65.476562 135.273438 64.792969 135.449219 64.117188 C 135.625 63.441406 135.839844 62.777344 136.09375 62.125 C 136.347656 61.472656 136.640625 60.839844 136.96875 60.222656 C 137.296875 59.605469 137.660156 59.011719 138.058594 58.4375 C 138.457031 57.863281 138.886719 57.3125 139.351562 56.789062 C 139.8125 56.265625 140.304688 55.769531 140.824219 55.300781 C 141.34375 54.835938 141.890625 54.402344 142.460938 53.996094 C 143.03125 53.59375 143.625 53.226562 144.238281 52.894531 C 144.851562 52.558594 145.484375 52.261719 146.132812 52.003906 C 146.78125 51.742188 147.445312 51.523438 148.117188 51.339844 C 148.792969 51.15625 149.476562 51.015625 150.167969 50.914062 C 150.859375 50.8125 151.554688 50.75 152.253906 50.726562 C 152.953125 50.707031 153.648438 50.726562 154.34375 50.785156 C 155.042969 50.847656 155.730469 50.949219 156.417969 51.089844 C 157.101562 51.230469 157.773438 51.410156 158.4375 51.628906 C 159.101562 51.851562 159.75 52.109375 160.382812 52.402344 C 161.015625 52.699219 161.628906 53.03125 162.226562 53.398438 C 162.820312 53.765625 163.390625 54.167969 163.9375 54.601562 C 164.484375 55.035156 165.007812 55.5 165.5 55.996094 C 165.992188 56.492188 166.457031 57.011719 166.886719 57.5625 C 167.320312 58.109375 167.71875 58.683594 168.085938 59.28125 C 168.449219 59.875 168.777344 60.492188 169.070312 61.125 C 169.367188 61.757812 169.621094 62.410156 169.839844 63.074219 C 170.054688 63.738281 170.234375 64.410156 170.371094 65.097656 C 170.511719 65.78125 170.609375 66.472656 170.667969 67.167969 C 170.722656 67.867188 170.742188 68.5625 170.71875 69.261719 C 170.695312 69.960938 170.628906 70.65625 170.523438 71.347656 C 170.417969 72.039062 170.273438 72.71875 170.089844 73.394531 C 169.902344 74.066406 169.679688 74.730469 169.417969 75.375 C 169.15625 76.023438 168.855469 76.65625 168.519531 77.269531 C 168.183594 77.878906 167.816406 78.472656 167.410156 79.042969 C 167.003906 79.609375 166.566406 80.15625 166.097656 80.671875 C 165.628906 81.191406 165.132812 81.683594 164.605469 82.140625 C 164.082031 82.601562 163.53125 83.03125 162.953125 83.425781 C 162.378906 83.824219 161.78125 84.183594 161.164062 84.507812 C 160.546875 84.835938 159.910156 85.125 159.257812 85.375 C 158.605469 85.628906 157.941406 85.839844 157.265625 86.015625 C 156.882812 97.0625 159.226562 132.636719 204.816406 138.921875 C 208.574219 139.769531 212.375 140.234375 216.222656 140.316406 C 220.070312 140.398438 223.890625 140.09375 227.675781 139.410156 C 231.464844 138.722656 235.148438 137.667969 238.722656 136.242188 C 242.296875 134.816406 245.695312 133.046875 248.914062 130.9375 C 250.59375 129.597656 252.136719 128.113281 253.542969 126.488281 C 254.945312 124.863281 256.191406 123.125 257.277344 121.269531 C 258.359375 119.414062 259.265625 117.476562 259.992188 115.457031 C 260.71875 113.433594 261.253906 111.363281 261.597656 109.242188 Z M 152.816406 62.882812 C 152.429688 62.882812 152.046875 62.921875 151.667969 63 C 151.289062 63.074219 150.917969 63.183594 150.5625 63.332031 C 150.203125 63.480469 149.863281 63.664062 149.542969 63.878906 C 149.222656 64.09375 148.921875 64.339844 148.648438 64.613281 C 148.375 64.886719 148.132812 65.183594 147.917969 65.507812 C 147.703125 65.828125 147.519531 66.167969 147.371094 66.527344 C 147.222656 66.882812 147.113281 67.253906 147.039062 67.632812 C 146.960938 68.011719 146.925781 68.394531 146.925781 68.78125 C 146.925781 69.167969 146.964844 69.550781 147.039062 69.933594 C 147.113281 70.3125 147.226562 70.679688 147.375 71.039062 C 147.523438 71.394531 147.707031 71.734375 147.921875 72.058594 C 148.136719 72.378906 148.382812 72.675781 148.65625 72.949219 C 148.929688 73.222656 149.226562 73.46875 149.550781 73.683594 C 149.871094 73.894531 150.210938 74.078125 150.570312 74.226562 C 150.925781 74.375 151.296875 74.484375 151.675781 74.558594 C 152.054688 74.632812 152.4375 74.671875 152.824219 74.671875 C 153.214844 74.671875 153.597656 74.632812 153.976562 74.554688 C 154.355469 74.480469 154.722656 74.367188 155.082031 74.21875 C 155.4375 74.070312 155.777344 73.886719 156.101562 73.671875 C 156.421875 73.457031 156.71875 73.210938 156.992188 72.9375 C 157.265625 72.664062 157.507812 72.367188 157.722656 72.042969 C 157.9375 71.722656 158.121094 71.382812 158.265625 71.023438 C 158.414062 70.664062 158.527344 70.296875 158.601562 69.917969 C 158.675781 69.535156 158.710938 69.152344 158.710938 68.765625 C 158.710938 68.378906 158.671875 67.992188 158.59375 67.613281 C 158.519531 67.234375 158.40625 66.863281 158.257812 66.507812 C 158.105469 66.148438 157.921875 65.808594 157.707031 65.488281 C 157.488281 65.164062 157.242188 64.867188 156.96875 64.59375 C 156.691406 64.320312 156.394531 64.078125 156.070312 63.863281 C 155.746094 63.648438 155.40625 63.46875 155.046875 63.320312 C 154.6875 63.175781 154.316406 63.066406 153.9375 62.992188 C 153.554688 62.917969 153.171875 62.882812 152.78125 62.882812 Z M 152.816406 62.882812 " fill-opacity="1" fill-rule="nonzero"/><path fill="#ffffff" d="M 75.953125 101.136719 C 71.183594 101.109375 66.546875 100.308594 62.039062 98.746094 C 61.65625 98.632812 61.285156 98.480469 60.929688 98.292969 C 60.574219 98.105469 60.242188 97.882812 59.929688 97.625 C 59.621094 97.371094 59.339844 97.085938 59.085938 96.773438 C 58.832031 96.460938 58.613281 96.128906 58.429688 95.769531 C 58.242188 95.414062 58.097656 95.042969 57.984375 94.65625 C 57.875 94.269531 57.804688 93.875 57.773438 93.476562 C 57.742188 93.074219 57.75 92.675781 57.800781 92.277344 C 57.851562 91.878906 57.941406 91.488281 58.070312 91.105469 C 58.195312 90.726562 58.363281 90.359375 58.5625 90.011719 C 58.765625 89.664062 59 89.339844 59.265625 89.042969 C 59.535156 88.742188 59.828125 88.46875 60.152344 88.230469 C 60.472656 87.988281 60.816406 87.78125 61.179688 87.609375 C 61.542969 87.4375 61.917969 87.304688 62.308594 87.210938 C 62.699219 87.113281 63.09375 87.058594 63.496094 87.042969 C 63.898438 87.027344 64.296875 87.050781 64.695312 87.113281 C 65.089844 87.179688 65.476562 87.285156 65.851562 87.425781 C 92.390625 96.367188 108.816406 68.085938 109.507812 66.867188 C 109.703125 66.527344 109.929688 66.210938 110.1875 65.917969 C 110.445312 65.621094 110.726562 65.355469 111.035156 65.117188 C 111.347656 64.878906 111.675781 64.671875 112.023438 64.496094 C 112.375 64.324219 112.738281 64.183594 113.117188 64.082031 C 113.492188 63.980469 113.875 63.914062 114.265625 63.886719 C 114.65625 63.859375 115.042969 63.871094 115.429688 63.917969 C 115.820312 63.964844 116.199219 64.050781 116.570312 64.175781 C 116.941406 64.296875 117.296875 64.457031 117.636719 64.648438 C 117.976562 64.839844 118.292969 65.066406 118.589844 65.320312 C 118.886719 65.574219 119.152344 65.855469 119.394531 66.164062 C 119.636719 66.472656 119.84375 66.800781 120.019531 67.148438 C 120.195312 67.496094 120.335938 67.859375 120.445312 68.234375 C 120.550781 68.609375 120.617188 68.992188 120.648438 69.382812 C 120.675781 69.773438 120.667969 70.160156 120.625 70.550781 C 120.578125 70.9375 120.496094 71.316406 120.375 71.6875 C 120.253906 72.0625 120.097656 72.417969 119.910156 72.757812 C 118.824219 74.761719 117.617188 76.6875 116.289062 78.535156 C 114.964844 80.386719 113.527344 82.144531 111.980469 83.816406 C 110.433594 85.488281 108.789062 87.054688 107.042969 88.519531 C 105.300781 89.980469 103.472656 91.332031 101.558594 92.566406 C 99.644531 93.800781 97.664062 94.910156 95.613281 95.898438 C 93.558594 96.886719 91.453125 97.738281 89.296875 98.460938 C 87.136719 99.183594 84.941406 99.769531 82.707031 100.21875 C 80.476562 100.664062 78.226562 100.972656 75.953125 101.136719 Z M 75.953125 101.136719 " fill-opacity="1" fill-rule="nonzero"/><path fill="#ffffff" d="M 243.523438 54.839844 C 243.914062 54.789062 244.304688 54.777344 244.695312 54.800781 C 245.085938 54.828125 245.472656 54.890625 245.851562 54.992188 C 246.230469 55.09375 246.59375 55.230469 246.945312 55.402344 C 247.296875 55.578125 247.628906 55.78125 247.941406 56.023438 C 248.253906 56.261719 248.539062 56.527344 248.796875 56.820312 C 249.054688 57.117188 249.285156 57.433594 249.480469 57.773438 C 249.675781 58.113281 249.835938 58.46875 249.964844 58.839844 C 250.089844 59.210938 250.179688 59.589844 250.230469 59.980469 C 250.375 61.019531 250.472656 62.058594 250.527344 63.105469 C 250.582031 64.152344 250.589844 65.199219 250.554688 66.246094 C 250.519531 67.292969 250.4375 68.335938 250.3125 69.378906 C 250.1875 70.417969 250.015625 71.449219 249.800781 72.476562 C 249.585938 73.503906 249.328125 74.515625 249.027344 75.519531 C 248.726562 76.523438 248.378906 77.511719 247.992188 78.484375 C 247.605469 79.457031 247.175781 80.414062 246.707031 81.351562 C 246.238281 82.285156 245.726562 83.203125 245.179688 84.09375 C 244.632812 84.988281 244.046875 85.855469 243.421875 86.695312 C 242.800781 87.539062 242.140625 88.351562 241.449219 89.140625 C 240.753906 89.925781 240.027344 90.679688 239.269531 91.402344 C 238.511719 92.125 237.722656 92.8125 236.90625 93.46875 C 236.089844 94.125 235.242188 94.742188 234.371094 95.324219 C 233.5 95.90625 232.605469 96.453125 231.6875 96.957031 C 230.769531 97.460938 229.832031 97.925781 228.875 98.351562 C 227.917969 98.777344 226.941406 99.160156 225.953125 99.5 C 225.886719 100.1875 225.78125 100.867188 225.636719 101.539062 C 225.492188 102.214844 225.308594 102.878906 225.085938 103.53125 C 224.863281 104.183594 224.605469 104.820312 224.308594 105.441406 C 224.011719 106.0625 223.679688 106.667969 223.3125 107.25 C 222.945312 107.835938 222.546875 108.394531 222.113281 108.929688 C 221.679688 109.46875 221.21875 109.976562 220.726562 110.460938 C 220.234375 110.945312 219.71875 111.398438 219.171875 111.820312 C 218.628906 112.242188 218.0625 112.632812 217.472656 112.988281 C 216.882812 113.34375 216.273438 113.664062 215.644531 113.953125 C 215.015625 114.238281 214.375 114.484375 213.71875 114.695312 C 213.0625 114.90625 212.394531 115.078125 211.71875 115.210938 C 211.042969 115.34375 210.359375 115.4375 209.675781 115.488281 C 208.988281 115.542969 208.296875 115.554688 207.609375 115.527344 C 206.921875 115.5 206.234375 115.433594 205.554688 115.328125 C 204.875 115.21875 204.203125 115.074219 203.539062 114.890625 C 202.875 114.703125 202.222656 114.480469 201.585938 114.21875 C 200.945312 113.957031 200.328125 113.660156 199.722656 113.328125 C 199.121094 112.992188 198.539062 112.625 197.976562 112.222656 C 197.417969 111.820312 196.882812 111.390625 196.371094 110.925781 C 195.863281 110.460938 195.382812 109.96875 194.929688 109.449219 C 194.476562 108.929688 194.054688 108.382812 193.667969 107.816406 C 193.277344 107.246094 192.925781 106.65625 192.605469 106.046875 C 192.285156 105.433594 192 104.808594 191.753906 104.164062 C 191.507812 103.519531 191.296875 102.863281 191.128906 102.195312 C 190.957031 101.527344 190.824219 100.855469 190.734375 100.171875 C 190.644531 99.488281 190.589844 98.800781 190.578125 98.113281 C 190.566406 97.421875 190.597656 96.734375 190.664062 96.050781 C 190.734375 95.363281 190.84375 94.683594 190.988281 94.011719 C 191.136719 93.335938 191.324219 92.675781 191.550781 92.023438 C 191.773438 91.371094 192.039062 90.734375 192.335938 90.113281 C 192.636719 89.492188 192.972656 88.890625 193.339844 88.308594 C 193.710938 87.726562 194.113281 87.167969 194.546875 86.632812 C 194.980469 86.101562 195.445312 85.589844 195.941406 85.109375 C 196.433594 84.628906 196.953125 84.179688 197.5 83.757812 C 198.046875 83.339844 198.617188 82.953125 199.207031 82.597656 C 199.800781 82.246094 200.410156 81.925781 201.039062 81.644531 C 201.667969 81.363281 202.308594 81.117188 202.96875 80.910156 C 203.625 80.703125 204.292969 80.53125 204.96875 80.402344 C 205.648438 80.273438 206.328125 80.183594 207.015625 80.132812 C 207.703125 80.082031 208.390625 80.074219 209.082031 80.105469 C 209.769531 80.132812 210.453125 80.203125 211.132812 80.3125 C 211.816406 80.425781 212.488281 80.574219 213.148438 80.761719 C 213.8125 80.949219 214.460938 81.175781 215.097656 81.441406 C 215.734375 81.703125 216.355469 82.003906 216.957031 82.339844 C 217.558594 82.679688 218.140625 83.046875 218.699219 83.453125 C 219.253906 83.855469 219.789062 84.292969 220.296875 84.757812 C 220.804688 85.222656 221.28125 85.71875 221.734375 86.242188 C 222.183594 86.761719 222.601562 87.308594 222.988281 87.878906 C 224.257812 87.367188 225.476562 86.757812 226.648438 86.042969 C 227.816406 85.332031 228.917969 84.527344 229.957031 83.632812 C 230.992188 82.738281 231.949219 81.765625 232.824219 80.710938 C 233.699219 79.660156 234.484375 78.542969 235.175781 77.359375 C 235.867188 76.179688 236.457031 74.949219 236.945312 73.667969 C 237.433594 72.390625 237.8125 71.078125 238.085938 69.738281 C 238.355469 68.394531 238.515625 67.039062 238.566406 65.671875 C 238.613281 64.300781 238.550781 62.941406 238.371094 61.582031 C 238.320312 61.191406 238.304688 60.800781 238.328125 60.40625 C 238.351562 60.011719 238.414062 59.625 238.515625 59.242188 C 238.613281 58.859375 238.75 58.492188 238.925781 58.140625 C 239.097656 57.785156 239.304688 57.453125 239.542969 57.136719 C 239.785156 56.824219 240.050781 56.539062 240.347656 56.277344 C 240.644531 56.015625 240.964844 55.789062 241.304688 55.589844 C 241.644531 55.394531 242.003906 55.230469 242.378906 55.105469 C 242.75 54.980469 243.132812 54.890625 243.523438 54.839844 Z M 208.273438 92.039062 C 207.886719 92.039062 207.5 92.078125 207.121094 92.152344 C 206.742188 92.226562 206.375 92.335938 206.015625 92.484375 C 205.65625 92.632812 205.316406 92.8125 204.996094 93.027344 C 204.671875 93.242188 204.375 93.484375 204.101562 93.757812 C 203.824219 94.03125 203.582031 94.328125 203.367188 94.652344 C 203.148438 94.972656 202.96875 95.3125 202.820312 95.671875 C 202.671875 96.027344 202.558594 96.394531 202.480469 96.777344 C 202.40625 97.15625 202.367188 97.539062 202.367188 97.925781 C 202.367188 98.3125 202.402344 98.695312 202.480469 99.074219 C 202.554688 99.457031 202.664062 99.824219 202.8125 100.183594 C 202.960938 100.539062 203.140625 100.878906 203.355469 101.203125 C 203.570312 101.523438 203.816406 101.824219 204.089844 102.097656 C 204.363281 102.371094 204.660156 102.617188 204.980469 102.832031 C 205.304688 103.046875 205.644531 103.226562 206 103.375 C 206.359375 103.523438 206.726562 103.636719 207.105469 103.710938 C 207.484375 103.789062 207.871094 103.828125 208.257812 103.828125 C 208.644531 103.828125 209.027344 103.789062 209.40625 103.714844 C 209.785156 103.640625 210.15625 103.527344 210.511719 103.378906 C 210.871094 103.230469 211.210938 103.050781 211.53125 102.835938 C 211.855469 102.621094 212.152344 102.375 212.425781 102.101562 C 212.699219 101.828125 212.945312 101.53125 213.160156 101.210938 C 213.375 100.886719 213.554688 100.546875 213.703125 100.191406 C 213.851562 99.832031 213.964844 99.464844 214.039062 99.082031 C 214.117188 98.703125 214.152344 98.320312 214.152344 97.933594 C 214.152344 97.546875 214.113281 97.164062 214.035156 96.785156 C 213.960938 96.410156 213.847656 96.042969 213.699219 95.683594 C 213.550781 95.328125 213.371094 94.988281 213.15625 94.667969 C 212.941406 94.347656 212.699219 94.050781 212.425781 93.777344 C 212.152344 93.503906 211.855469 93.261719 211.535156 93.046875 C 211.214844 92.828125 210.875 92.648438 210.519531 92.5 C 210.164062 92.351562 209.796875 92.238281 209.417969 92.160156 C 209.039062 92.082031 208.660156 92.042969 208.273438 92.039062 Z M 208.273438 92.039062 " fill-opacity="1" fill-rule="nonzero"/><path fill="#ffffff" d="M 137.625 191.113281 C 137.039062 191.113281 136.457031 191.085938 135.875 191.027344 C 135.292969 190.972656 134.714844 190.886719 134.144531 190.769531 C 133.570312 190.65625 133.003906 190.515625 132.445312 190.347656 C 131.882812 190.175781 131.335938 189.980469 130.796875 189.757812 C 130.253906 189.53125 129.726562 189.28125 129.210938 189.007812 C 128.695312 188.730469 128.195312 188.429688 127.710938 188.105469 C 127.222656 187.78125 126.753906 187.433594 126.300781 187.0625 C 125.851562 186.691406 125.417969 186.300781 125.003906 185.886719 C 124.589844 185.472656 124.199219 185.042969 123.828125 184.589844 C 123.457031 184.136719 123.109375 183.667969 122.785156 183.183594 C 122.460938 182.695312 122.160156 182.195312 121.886719 181.679688 C 121.609375 181.164062 121.359375 180.636719 121.136719 180.097656 C 120.914062 179.558594 120.714844 179.007812 120.546875 178.449219 C 120.375 177.886719 120.234375 177.324219 120.121094 176.75 C 120.007812 176.175781 119.921875 175.597656 119.863281 175.015625 C 119.804688 174.433594 119.777344 173.851562 119.777344 173.265625 C 119.777344 172.683594 119.804688 172.101562 119.863281 171.519531 C 119.921875 170.9375 120.007812 170.359375 120.121094 169.785156 C 120.234375 169.210938 120.375 168.644531 120.546875 168.085938 C 120.714844 167.527344 120.914062 166.976562 121.136719 166.4375 C 121.359375 165.898438 121.609375 165.371094 121.886719 164.855469 C 122.160156 164.339844 122.460938 163.835938 122.785156 163.351562 C 123.109375 162.867188 123.457031 162.398438 123.828125 161.945312 C 124.199219 161.492188 124.589844 161.0625 125.003906 160.648438 C 125.417969 160.234375 125.851562 159.84375 126.300781 159.472656 C 126.753906 159.101562 127.222656 158.753906 127.710938 158.429688 C 128.195312 158.101562 128.695312 157.804688 129.210938 157.527344 C 129.726562 157.25 130.253906 157.003906 130.796875 156.777344 C 131.335938 156.554688 131.882812 156.359375 132.445312 156.1875 C 133.003906 156.019531 133.570312 155.878906 134.144531 155.761719 C 134.714844 155.648438 135.292969 155.5625 135.875 155.507812 C 136.457031 155.449219 137.039062 155.421875 137.625 155.421875 C 138.890625 155.421875 140.140625 155.558594 141.378906 155.828125 C 142.613281 156.101562 143.808594 156.5 144.957031 157.027344 C 146.109375 157.554688 147.191406 158.195312 148.203125 158.953125 C 149.214844 159.714844 150.136719 160.570312 150.964844 161.527344 C 151.867188 161.097656 152.789062 160.710938 153.726562 160.359375 C 154.664062 160.011719 155.613281 159.703125 156.574219 159.4375 C 157.539062 159.171875 158.511719 158.949219 159.496094 158.765625 C 160.480469 158.585938 161.46875 158.445312 162.464844 158.351562 C 163.460938 158.253906 164.457031 158.203125 165.457031 158.191406 C 166.457031 158.183594 167.453125 158.21875 168.453125 158.296875 C 169.449219 158.375 170.441406 158.496094 171.425781 158.660156 C 172.414062 158.824219 173.390625 159.03125 174.359375 159.277344 C 175.324219 159.527344 176.28125 159.820312 177.226562 160.152344 C 178.167969 160.484375 179.09375 160.855469 180.003906 161.269531 C 180.914062 161.679688 181.808594 162.132812 182.679688 162.625 C 183.550781 163.113281 184.398438 163.640625 185.222656 164.203125 C 186.046875 164.769531 186.847656 165.367188 187.621094 166 C 188.394531 166.636719 189.140625 167.300781 189.855469 168 C 190.570312 168.699219 191.253906 169.425781 191.90625 170.183594 C 192.558594 170.941406 193.175781 171.726562 193.761719 172.539062 C 193.988281 172.859375 194.183594 173.195312 194.34375 173.554688 C 194.503906 173.910156 194.628906 174.28125 194.71875 174.664062 C 194.808594 175.046875 194.855469 175.433594 194.871094 175.824219 C 194.882812 176.21875 194.855469 176.609375 194.789062 176.996094 C 194.726562 177.382812 194.625 177.757812 194.484375 178.125 C 194.347656 178.492188 194.175781 178.84375 193.964844 179.175781 C 193.757812 179.507812 193.519531 179.820312 193.25 180.105469 C 192.984375 180.390625 192.6875 180.648438 192.371094 180.875 C 192.050781 181.105469 191.710938 181.300781 191.355469 181.460938 C 190.996094 181.625 190.628906 181.75 190.246094 181.835938 C 189.863281 181.925781 189.476562 181.976562 189.082031 181.988281 C 188.691406 182.003906 188.300781 181.976562 187.914062 181.910156 C 187.527344 181.847656 187.148438 181.746094 186.78125 181.609375 C 186.414062 181.46875 186.066406 181.296875 185.730469 181.089844 C 185.398438 180.882812 185.089844 180.644531 184.800781 180.375 C 184.515625 180.109375 184.257812 179.8125 184.03125 179.496094 C 183.242188 178.414062 182.363281 177.410156 181.398438 176.484375 C 180.429688 175.558594 179.390625 174.726562 178.277344 173.984375 C 177.164062 173.242188 175.996094 172.601562 174.769531 172.066406 C 173.542969 171.53125 172.277344 171.109375 170.976562 170.796875 C 169.675781 170.484375 168.359375 170.289062 167.023438 170.210938 C 165.6875 170.132812 164.355469 170.171875 163.023438 170.328125 C 161.695312 170.484375 160.390625 170.757812 159.109375 171.144531 C 157.832031 171.53125 156.59375 172.027344 155.398438 172.632812 C 155.398438 172.847656 155.472656 173.039062 155.472656 173.253906 C 155.46875 173.839844 155.4375 174.421875 155.378906 175.003906 C 155.320312 175.582031 155.234375 176.160156 155.117188 176.734375 C 155 177.304688 154.859375 177.871094 154.6875 178.429688 C 154.515625 178.988281 154.320312 179.535156 154.09375 180.074219 C 153.871094 180.613281 153.621094 181.140625 153.34375 181.65625 C 153.066406 182.171875 152.765625 182.671875 152.441406 183.15625 C 152.117188 183.640625 151.769531 184.109375 151.398438 184.5625 C 151.027344 185.011719 150.636719 185.445312 150.222656 185.859375 C 149.8125 186.273438 149.378906 186.664062 148.929688 187.035156 C 148.476562 187.40625 148.007812 187.753906 147.523438 188.078125 C 147.039062 188.402344 146.539062 188.703125 146.023438 188.980469 C 145.511719 189.257812 144.984375 189.507812 144.445312 189.734375 C 143.90625 189.957031 143.355469 190.15625 142.796875 190.328125 C 142.238281 190.496094 141.675781 190.640625 141.101562 190.757812 C 140.53125 190.875 139.953125 190.960938 139.371094 191.019531 C 138.792969 191.082031 138.207031 191.113281 137.625 191.113281 Z M 137.625 167.375 C 137.238281 167.375 136.855469 167.410156 136.472656 167.488281 C 136.09375 167.5625 135.726562 167.675781 135.367188 167.824219 C 135.011719 167.972656 134.671875 168.152344 134.347656 168.367188 C 134.027344 168.582031 133.730469 168.828125 133.457031 169.101562 C 133.183594 169.375 132.9375 169.671875 132.722656 169.996094 C 132.507812 170.316406 132.328125 170.65625 132.179688 171.015625 C 132.03125 171.371094 131.917969 171.742188 131.84375 172.121094 C 131.769531 172.5 131.730469 172.882812 131.730469 173.269531 C 131.730469 173.660156 131.769531 174.042969 131.84375 174.421875 C 131.921875 174.800781 132.035156 175.167969 132.183594 175.527344 C 132.332031 175.882812 132.511719 176.222656 132.726562 176.546875 C 132.941406 176.867188 133.1875 177.164062 133.460938 177.4375 C 133.734375 177.710938 134.035156 177.957031 134.355469 178.171875 C 134.679688 178.386719 135.019531 178.566406 135.375 178.714844 C 135.734375 178.863281 136.101562 178.972656 136.480469 179.046875 C 136.863281 179.125 137.246094 179.160156 137.632812 179.160156 C 138.019531 179.160156 138.402344 179.121094 138.78125 179.046875 C 139.164062 178.96875 139.53125 178.855469 139.886719 178.707031 C 140.246094 178.558594 140.585938 178.378906 140.90625 178.160156 C 141.226562 177.945312 141.527344 177.703125 141.800781 177.425781 C 142.070312 177.152344 142.316406 176.855469 142.53125 176.53125 C 142.746094 176.210938 142.925781 175.871094 143.074219 175.511719 C 143.222656 175.15625 143.332031 174.785156 143.40625 174.40625 C 143.480469 174.027344 143.519531 173.640625 143.519531 173.253906 C 143.515625 172.867188 143.476562 172.488281 143.402344 172.109375 C 143.324219 171.730469 143.210938 171.363281 143.0625 171.003906 C 142.914062 170.648438 142.730469 170.308594 142.515625 169.988281 C 142.300781 169.667969 142.058594 169.371094 141.785156 169.097656 C 141.511719 168.828125 141.214844 168.582031 140.890625 168.367188 C 140.570312 168.152344 140.230469 167.972656 139.875 167.824219 C 139.519531 167.675781 139.152344 167.566406 138.773438 167.488281 C 138.394531 167.414062 138.011719 167.375 137.625 167.375 Z M 137.625 167.375 " fill-opacity="1" fill-rule="nonzero"/></g></g></g></svg>