<svg xmlns="http://www.w3.org/2000/svg" viewBox="0 0 80 80" stroke="#ffffff" stroke-width="4" stroke-linecap="round" stroke-linejoin="round" fill="none">
<circle cx="40" cy="40" r="32" fill="#4b7f28"/>

    <rect x="30" y="30" width="20" height="20" rx="2"/>
    <rect x="36" y="36" width="8" height="8"/>
    <line x1="40" y1="30" x2="40" y2="24"/>
    <line x1="34" y1="30" x2="34" y2="24"/>
    <line x1="46" y1="30" x2="46" y2="24"/>
    <line x1="40" y1="50" x2="40" y2="56"/>
    <line x1="34" y1="50" x2="34" y2="56"/>
    <line x1="46" y1="50" x2="46" y2="56"/>
    <line x1="30" y1="40" x2="24" y2="40"/>
    <line x1="30" y1="36" x2="24" y2="36"/>
    <line x1="30" y1="44" x2="24" y2="44"/>
    <line x1="50" y1="40" x2="56" y2="40"/>
    <line x1="50" y1="36" x2="56" y2="36"/>
    <line x1="50" y1="44" x2="56" y2="44"/>
    
</svg>
