<?xml version="1.0" encoding="iso-8859-1"?>
<!-- Uploaded to: SVG Repo, www.svgrepo.com, Generator: SVG Repo Mixer Tools -->
<svg version="1.1" id="Layer_1" xmlns="http://www.w3.org/2000/svg" xmlns:xlink="http://www.w3.org/1999/xlink" 
	 viewBox="0 0 503.467 503.467" xml:space="preserve">
<g transform="translate(1 1)">
	<polygon style="fill:#FFD0A1;" points="429.933,156.867 429.933,208.067 242.2,208.067 242.2,208.067 242.2,156.867 	"/>
	<g>
		<path style="fill:#F2EDDA;" d="M472.6,498.2H199.533c12.8-8.533,17.067-34.133,17.067-34.133s25.6-85.333,25.6-221.867v-33.28
			v-0.853h187.733V242.2c0,136.533,25.6,221.867,25.6,221.867S461.507,489.667,472.6,498.2"/>
		<path style="fill:#AAB1BA;" d="M71.533,156.867v-76.8l102.4-25.6v153.6L242.2,242.2c0,136.533-25.6,221.867-25.6,221.867H3.267
			V139.8L71.533,156.867z"/>
		<g transform="translate(28)">
			<defs>
				<filter id="Adobe_OpacityMaskFilter" filterUnits="userSpaceOnUse" x="214.2" y="3.267" width="221.867" height="119.467">
					<feColorMatrix  type="matrix" values="1 0 0 0 0  0 1 0 0 0  0 0 1 0 0  0 0 0 1 0"/>
				</filter>
			</defs>
			<mask maskUnits="userSpaceOnUse" x="214.2" y="3.267" width="221.867" height="119.467" id="mask-2_1_">
				<g style="filter:url(#Adobe_OpacityMaskFilter);">
					<polygon style="fill:#FFFFFF;" points="188.6,-5.266 -33.267,-5.266 -33.267,114.2 188.6,114.2 					"/>
				</g>
			</mask>
			<path style="mask:url(#mask-2_1_);fill:#AAB1BA;" d="M256.867,121.88c-2.56,0.853-5.12,0.853-8.533,0.853
				c-18.773,0-34.133-15.36-34.133-34.133c0-16.213,11.947-30.72,27.307-33.28c-0.853-2.56-1.707-5.973-1.707-9.387
				c0-14.507,11.093-25.6,25.6-25.6c9.387,0,17.067,5.12,22.187,12.8c8.533-17.92,25.6-29.867,46.08-29.867
				c28.16,0,51.2,23.04,51.2,51.2c0,1.707,0,3.413,0,5.12c5.12-2.56,11.093-5.12,17.067-5.12c18.773,0,34.133,15.36,34.133,34.133
				s-15.36,34.133-34.133,34.133H256.867V121.88z"/>
		</g>
	</g>
</g>
<path style="fill:#51565F;" d="M499.2,503.467H362.667c-2.56,0-4.267-1.707-4.267-4.267s1.707-4.267,4.267-4.267H499.2
	c2.56,0,4.267,1.707,4.267,4.267S501.76,503.467,499.2,503.467z M328.533,503.467h-17.067c-2.56,0-4.267-1.707-4.267-4.267
	s1.707-4.267,4.267-4.267h17.067c2.56,0,4.267,1.707,4.267,4.267S331.094,503.467,328.533,503.467z M277.333,503.467H157.867
	c-2.56,0-4.267-1.707-4.267-4.267s1.707-4.267,4.267-4.267h119.467c2.56,0,4.267,1.707,4.267,4.267S279.893,503.467,277.333,503.467
	z M123.733,503.467H4.267C1.707,503.467,0,501.76,0,499.2s1.707-4.267,4.267-4.267h119.467c2.56,0,4.267,1.707,4.267,4.267
	S126.293,503.467,123.733,503.467z M456.533,469.334c-1.707,0-3.413-0.853-4.267-3.413c0-0.853-25.6-87.893-25.6-222.72v-81.067
	h-179.2V204.8H396.8c2.56,0,4.267,1.707,4.267,4.267s-1.707,4.267-4.267,4.267H243.2c-2.56,0-4.267-1.707-4.267-4.267v-51.2
	c0-2.56,1.707-4.267,4.267-4.267h187.733c2.56,0,4.267,1.707,4.267,4.267V243.2c0,133.973,24.747,220.16,25.6,221.013
	c0.853,2.56-0.853,4.267-2.56,5.12C457.387,469.334,456.533,469.334,456.533,469.334z M217.6,469.334H4.267
	c-2.56,0-4.267-1.707-4.267-4.267V140.8c0-1.707,0.853-2.56,1.707-3.413c0.853-0.853,2.56-0.853,3.413-0.853l136.533,34.133
	c1.707,0.853,3.413,2.56,3.413,4.267v256c0,2.56-1.707,4.267-4.267,4.267c-2.56,0-4.267-1.707-4.267-4.267V178.347l-128-32.427
	V460.8h205.653c4.267-16.213,23.893-96.427,24.747-215.04l-65.707-33.28c-1.707-0.853-2.56-2.56-2.56-3.413V60.587L76.8,84.48
	v39.253c0,2.56-1.707,4.267-4.267,4.267c-2.56,0-4.267-1.707-4.267-4.267V81.067c0-1.707,1.707-3.413,3.413-4.267l98.987-24.747
	V38.4c0-2.56,1.707-4.267,4.267-4.267S179.2,35.84,179.2,38.4v168.107l65.707,33.28c1.707,0.853,2.56,2.56,2.56,3.413
	c0,135.68-25.6,221.867-25.6,222.72C221.013,468.48,219.307,469.334,217.6,469.334z M174.933,435.2c-2.56,0-4.267-1.707-4.267-4.267
	v-17.067c0-2.56,1.707-4.267,4.267-4.267s4.267,1.707,4.267,4.267v17.067C179.2,433.493,177.493,435.2,174.933,435.2z
	 M106.667,435.2c-2.56,0-4.267-1.707-4.267-4.267v-17.067c0-2.56,1.707-4.267,4.267-4.267s4.267,1.707,4.267,4.267v17.067
	C110.933,433.493,109.227,435.2,106.667,435.2z M72.533,435.2c-2.56,0-4.267-1.707-4.267-4.267v-17.067
	c0-2.56,1.707-4.267,4.267-4.267c2.56,0,4.267,1.707,4.267,4.267v17.067C76.8,433.493,75.093,435.2,72.533,435.2z M38.4,435.2
	c-2.56,0-4.267-1.707-4.267-4.267v-17.067c0-2.56,1.707-4.267,4.267-4.267c2.56,0,4.267,1.707,4.267,4.267v17.067
	C42.667,433.493,40.96,435.2,38.4,435.2z M174.933,384c-2.56,0-4.267-1.707-4.267-4.267v-17.067c0-2.56,1.707-4.267,4.267-4.267
	s4.267,1.707,4.267,4.267v17.067C179.2,382.294,177.493,384,174.933,384z M106.667,384c-2.56,0-4.267-1.707-4.267-4.267v-17.067
	c0-2.56,1.707-4.267,4.267-4.267s4.267,1.707,4.267,4.267v17.067C110.933,382.294,109.227,384,106.667,384z M72.533,384
	c-2.56,0-4.267-1.707-4.267-4.267v-17.067c0-2.56,1.707-4.267,4.267-4.267c2.56,0,4.267,1.707,4.267,4.267v17.067
	C76.8,382.294,75.093,384,72.533,384z M38.4,384c-2.56,0-4.267-1.707-4.267-4.267v-17.067c0-2.56,1.707-4.267,4.267-4.267
	c2.56,0,4.267,1.707,4.267,4.267v17.067C42.667,382.294,40.96,384,38.4,384z M209.067,375.467c-2.56,0-4.267-1.707-4.267-4.267
	v-8.533c0-2.56,1.707-4.267,4.267-4.267s4.267,1.707,4.267,4.267v8.533C213.333,373.76,211.627,375.467,209.067,375.467z
	 M209.067,332.8c-2.56,0-4.267-1.707-4.267-4.267v-17.067c0-2.56,1.707-4.267,4.267-4.267s4.267,1.707,4.267,4.267v17.067
	C213.333,331.094,211.627,332.8,209.067,332.8z M174.933,332.8c-2.56,0-4.267-1.707-4.267-4.267v-17.067
	c0-2.56,1.707-4.267,4.267-4.267s4.267,1.707,4.267,4.267v17.067C179.2,331.094,177.493,332.8,174.933,332.8z M106.667,332.8
	c-2.56,0-4.267-1.707-4.267-4.267v-17.067c0-2.56,1.707-4.267,4.267-4.267s4.267,1.707,4.267,4.267v17.067
	C110.933,331.094,109.227,332.8,106.667,332.8z M72.533,332.8c-2.56,0-4.267-1.707-4.267-4.267v-17.067
	c0-2.56,1.707-4.267,4.267-4.267c2.56,0,4.267,1.707,4.267,4.267v17.067C76.8,331.094,75.093,332.8,72.533,332.8z M38.4,332.8
	c-2.56,0-4.267-1.707-4.267-4.267v-17.067c0-2.56,1.707-4.267,4.267-4.267c2.56,0,4.267,1.707,4.267,4.267v17.067
	C42.667,331.094,40.96,332.8,38.4,332.8z M209.067,281.6c-2.56,0-4.267-1.707-4.267-4.267v-17.067c0-2.56,1.707-4.267,4.267-4.267
	s4.267,1.707,4.267,4.267v17.067C213.333,279.893,211.627,281.6,209.067,281.6z M174.933,281.6c-2.56,0-4.267-1.707-4.267-4.267
	v-17.067c0-2.56,1.707-4.267,4.267-4.267s4.267,1.707,4.267,4.267v17.067C179.2,279.893,177.493,281.6,174.933,281.6z
	 M106.667,281.6c-2.56,0-4.267-1.707-4.267-4.267v-17.067c0-2.56,1.707-4.267,4.267-4.267s4.267,1.707,4.267,4.267v17.067
	C110.933,279.893,109.227,281.6,106.667,281.6z M72.533,281.6c-2.56,0-4.267-1.707-4.267-4.267v-17.067
	c0-2.56,1.707-4.267,4.267-4.267c2.56,0,4.267,1.707,4.267,4.267v17.067C76.8,279.893,75.093,281.6,72.533,281.6z M38.4,281.6
	c-2.56,0-4.267-1.707-4.267-4.267v-17.067c0-2.56,1.707-4.267,4.267-4.267c2.56,0,4.267,1.707,4.267,4.267v17.067
	C42.667,279.893,40.96,281.6,38.4,281.6z M106.667,230.4c-2.56,0-4.267-1.707-4.267-4.267v-17.067c0-2.56,1.707-4.267,4.267-4.267
	s4.267,1.707,4.267,4.267v17.067C110.933,228.693,109.227,230.4,106.667,230.4z M72.533,230.4c-2.56,0-4.267-1.707-4.267-4.267
	v-17.067c0-2.56,1.707-4.267,4.267-4.267c2.56,0,4.267,1.707,4.267,4.267v17.067C76.8,228.693,75.093,230.4,72.533,230.4z
	 M38.4,230.4c-2.56,0-4.267-1.707-4.267-4.267v-17.067c0-2.56,1.707-4.267,4.267-4.267c2.56,0,4.267,1.707,4.267,4.267v17.067
	C42.667,228.693,40.96,230.4,38.4,230.4z M430.933,128c-2.56,0-4.267-1.707-4.267-4.267c0-2.56,1.707-4.267,4.267-4.267
	c16.213,0,29.867-13.653,29.867-29.867s-13.653-29.867-29.867-29.867c-5.12,0-10.24,1.707-15.36,4.267
	c-1.707,0.853-3.413,0.853-4.267,0c-0.853-0.853-1.707-2.56-1.707-4.267s0-2.56,0-4.267c0-25.6-21.333-46.933-46.933-46.933
	c-17.92,0-34.987,10.24-42.667,27.307c-0.853,1.707-1.707,2.56-3.413,2.56c-1.707,0-3.413-0.853-4.267-1.707
	c-4.267-6.827-11.093-10.24-17.92-10.24c-11.947,0-21.333,9.387-21.333,21.333c0,2.56,0.853,5.12,1.707,7.68
	c0.853,0.853,0,2.56,0,3.413s-1.707,1.707-2.56,1.707c-13.653,2.56-23.893,15.36-23.893,29.013
	c0,16.213,13.653,29.867,29.867,29.867s29.867-13.653,29.867-29.867c0-2.56,1.707-4.267,4.267-4.267s4.267,1.707,4.267,4.267
	c0,21.333-17.067,38.4-38.4,38.4s-38.4-17.067-38.4-38.4c0-17.067,11.093-31.573,26.453-36.693
	c-0.853-1.707-0.853-4.267-0.853-5.973c0-16.213,13.653-29.867,29.867-29.867c8.533,0,15.36,3.413,21.333,9.387
	C326.827,10.24,344.747,0,363.52,0c29.867,0,54.613,23.893,55.467,53.76c4.267-1.707,8.533-2.56,12.8-2.56
	c21.333,0,38.4,17.067,38.4,38.4S452.267,128,430.933,128z M140.8,128c-2.56,0-4.267-1.707-4.267-4.267v-17.067
	c0-2.56,1.707-4.267,4.267-4.267c2.56,0,4.267,1.707,4.267,4.267v17.067C145.067,126.293,143.36,128,140.8,128z M106.667,128
	c-2.56,0-4.267-1.707-4.267-4.267v-17.067c0-2.56,1.707-4.267,4.267-4.267s4.267,1.707,4.267,4.267v17.067
	C110.933,126.293,109.227,128,106.667,128z M362.667,110.934c-2.56,0-4.267-1.707-4.267-4.267c0-2.56,1.707-4.267,4.267-4.267
	c11.947,0,23.04-4.267,31.573-11.947c1.707-1.707,4.267-1.707,5.973,0s1.707,4.267,0,5.973
	C389.973,105.814,376.32,110.934,362.667,110.934z"/>
</svg>