<?xml version="1.0" encoding="UTF-8" standalone="no"?>
<svg
   viewBox="0 0 92.307707 190.10616"
   width="92.307709"
   height="190.10616"
   version="1.1"
   id="svg37"
   xml:space="preserve"
   xmlns="http://www.w3.org/2000/svg"
   xmlns:svg="http://www.w3.org/2000/svg"><desc
     id="desc1">basemcu.dxf - scale = 1.000000, origin = (0.000000, 0.000000), method = manual</desc><defs
     id="defs4" /><g
     id="g37"
     transform="translate(-276.89112,-469.9243)"><path
       d="m 334.08401,659.53048 h 22.67717 L 368.09976,648.1919 V 470.5541 H 277.3911 v 177.6378 l 11.33858,11.33858 h 22.67717 a 3.779528,3.779528 0 0 1 3.77953,-3.77953 h 15.11811 a 3.779528,3.779528 0 0 1 3.77952,3.77953 z"
       style="fill:none;stroke:#000000"
       id="path5" /><path
       d="m 327.46984,631.18402 a 4.72441,4.72441 0 0 0 -9.44882,0 4.72441,4.72441 0 0 0 9.44882,0 z"
       style="fill:none;stroke:#000000"
       id="path6" /><path
       d="m 327.46984,616.06591 a 4.72441,4.72441 0 0 0 -9.44882,0 4.72441,4.72441 0 0 0 9.44882,0 z"
       style="fill:none;stroke:#000000"
       id="path7" /><path
       d="m 327.46984,600.9478 a 4.72441,4.72441 0 0 0 -9.44882,0 4.72441,4.72441 0 0 0 9.44882,0 z"
       style="fill:none;stroke:#000000"
       id="path8" /><path
       d="m 357.70606,495.12103 a 4.72441,4.72441 0 0 0 -9.44882,0 4.72441,4.72441 0 0 0 9.44882,0 z"
       style="fill:none;stroke:#000000"
       id="path9" /><path
       d="m 357.70606,510.23914 a 4.72441,4.72441 0 0 0 -9.44882,0 4.72441,4.72441 0 0 0 9.44882,0 z"
       style="fill:none;stroke:#000000"
       id="path10" /><path
       d="m 357.70606,525.35725 a 4.72441,4.72441 0 0 0 -9.44882,0 4.72441,4.72441 0 0 0 9.44882,0 z"
       style="fill:none;stroke:#000000"
       id="path11" /><path
       d="m 357.70606,480.00292 a 4.72441,4.72441 0 0 0 -9.44882,0 4.72441,4.72441 0 0 0 9.44882,0 z"
       style="fill:none;stroke:#000000"
       id="path12" /><path
       d="m 297.23362,525.35725 a 4.72441,4.72441 0 0 0 -9.44882,0 4.72441,4.72441 0 0 0 9.44882,0 z"
       style="fill:none;stroke:#000000"
       id="path13" /><path
       d="m 297.23362,510.23914 a 4.72441,4.72441 0 0 0 -9.44882,0 4.72441,4.72441 0 0 0 9.44882,0 z"
       style="fill:none;stroke:#000000"
       id="path14" /><path
       d="m 297.23362,495.12103 a 4.72441,4.72441 0 0 0 -9.44882,0 4.72441,4.72441 0 0 0 9.44882,0 z"
       style="fill:none;stroke:#000000"
       id="path15" /><path
       d="m 297.23362,480.00292 a 4.72441,4.72441 0 0 0 -9.44882,0 4.72441,4.72441 0 0 0 9.44882,0 z"
       style="fill:none;stroke:#000000"
       id="path16" /><path
       d="m 366.39897,599.05804 a 2.07874,2.07874 0 0 0 -4.15748,0 2.07874,2.07874 0 0 0 4.15748,0 z"
       style="fill:none;stroke:#000000"
       id="path17" /><path
       d="m 366.39897,591.49899 a 2.07874,2.07874 0 0 0 -4.15748,0 2.07874,2.07874 0 0 0 4.15748,0 z"
       style="fill:none;stroke:#000000"
       id="path18" /><path
       d="m 366.39897,583.93993 a 2.07874,2.07874 0 0 0 -4.15748,0 2.07874,2.07874 0 0 0 4.15748,0 z"
       style="fill:none;stroke:#000000"
       id="path19" /><path
       d="m 366.39897,576.38087 a 2.07874,2.07874 0 0 0 -4.15748,0 2.07874,2.07874 0 0 0 4.15748,0 z"
       style="fill:none;stroke:#000000"
       id="path20" /><path
       d="m 366.39897,568.82182 a 2.07874,2.07874 0 0 0 -4.15748,0 2.07874,2.07874 0 0 0 4.15748,0 z"
       style="fill:none;stroke:#000000"
       id="path21" /><path
       d="m 366.39897,561.26276 a 2.07874,2.07874 0 0 0 -4.15748,0 2.07874,2.07874 0 0 0 4.15748,0 z"
       style="fill:none;stroke:#000000"
       id="path22" /><path
       d="m 366.39897,553.70371 a 2.07874,2.07874 0 0 0 -4.15748,0 2.07874,2.07874 0 0 0 4.15748,0 z"
       style="fill:none;stroke:#000000"
       id="path23" /><path
       d="m 366.39897,546.14465 a 2.07874,2.07874 0 0 0 -4.15748,0 2.07874,2.07874 0 0 0 4.15748,0 z"
       style="fill:none;stroke:#000000"
       id="path24" /><path
       d="m 366.39897,538.5856 a 2.07874,2.07874 0 0 0 -4.15748,0 2.07874,2.07874 0 0 0 4.15748,0 z"
       style="fill:none;stroke:#000000"
       id="path25" /><path
       d="m 366.39897,531.02654 a 2.07874,2.07874 0 0 0 -4.15748,0 2.07874,2.07874 0 0 0 4.15748,0 z"
       style="fill:none;stroke:#000000"
       id="path26" /><path
       d="m 283.24937,531.02654 a 2.07874,2.07874 0 0 0 -4.15748,0 2.07874,2.07874 0 0 0 4.15748,0 z"
       style="fill:none;stroke:#000000"
       id="path27" /><path
       d="m 283.24937,538.5856 a 2.07874,2.07874 0 0 0 -4.15748,0 2.07874,2.07874 0 0 0 4.15748,0 z"
       style="fill:none;stroke:#000000"
       id="path28" /><path
       d="m 283.24937,553.70371 a 2.07874,2.07874 0 0 0 -4.15748,0 2.07874,2.07874 0 0 0 4.15748,0 z"
       style="fill:none;stroke:#000000"
       id="path29" /><path
       d="m 283.24937,546.14465 a 2.07874,2.07874 0 0 0 -4.15748,0 2.07874,2.07874 0 0 0 4.15748,0 z"
       style="fill:none;stroke:#000000"
       id="path30" /><path
       d="m 283.24937,561.26276 a 2.07874,2.07874 0 0 0 -4.15748,0 2.07874,2.07874 0 0 0 4.15748,0 z"
       style="fill:none;stroke:#000000"
       id="path31" /><path
       d="m 283.24937,576.38087 a 2.07874,2.07874 0 0 0 -4.15748,0 2.07874,2.07874 0 0 0 4.15748,0 z"
       style="fill:none;stroke:#000000"
       id="path32" /><path
       d="m 283.24937,568.82182 a 2.07874,2.07874 0 0 0 -4.15748,0 2.07874,2.07874 0 0 0 4.15748,0 z"
       style="fill:none;stroke:#000000"
       id="path33" /><path
       d="m 283.24937,583.93993 a 2.07874,2.07874 0 0 0 -4.15748,0 2.07874,2.07874 0 0 0 4.15748,0 z"
       style="fill:none;stroke:#000000"
       id="path34" /><path
       d="m 283.24937,591.49899 a 2.07874,2.07874 0 0 0 -4.15748,0 2.07874,2.07874 0 0 0 4.15748,0 z"
       style="fill:none;stroke:#000000"
       id="path35" /><path
       d="m 283.24937,599.05804 a 2.07874,2.07874 0 0 0 -4.15748,0 2.07874,2.07874 0 0 0 4.15748,0 z"
       style="fill:none;stroke:#000000"
       id="path36" /><path
       d="m 327.46984,646.30213 a 4.72441,4.72441 0 0 0 -9.44882,0 4.72441,4.72441 0 0 0 9.44882,0 z"
       style="fill:none;stroke:#000000"
       id="path37" /><rect
       style="fill:#000000;fill-opacity:0;stroke:#000000;stroke-opacity:1"
       id="fluoro_led1"
       width="12.514"
       height="9.5107813"
       x="316.50839"
       y="582.49353" /><rect
       style="fill:#000000;fill-opacity:0;stroke:#000000;stroke-opacity:1"
       id="rect43-9"
       width="12.514174"
       height="9.5107813"
       x="316.49545"
       y="568.99036" /><path
       d="m 334.46738,659.4007 h 22.67717 l 11.33858,-11.33858 v -177.6378 h -90.70866 v 177.6378 l 11.33858,11.33858 h 22.67717 a 3.779528,3.779528 0 0 1 3.77953,-3.77953 h 15.11811 a 3.779528,3.779528 0 0 1 3.77952,3.77953 z"
       style="fill:none;stroke:#000000"
       id="path5-0" /><rect
       style="fill:#000000;fill-opacity:0;stroke:#000000;stroke-opacity:1"
       id="rect43-4"
       width="12.514174"
       height="9.5107813"
       x="316.50494"
       y="555.44751" /><rect
       style="fill:#000000;fill-opacity:0;stroke:#000000;stroke-opacity:1"
       id="rect43-9-5"
       width="12.514174"
       height="9.5107813"
       x="316.48911"
       y="541.96509" /><rect
       style="fill:#000000;fill-opacity:1;stroke:#000000;stroke-opacity:1"
       id="rect44-0-1"
       width="6.0787902"
       height="11.240026"
       x="298.33539"
       y="588.30951" /><rect
       style="fill:#000000;fill-opacity:1;stroke:#000000;stroke-opacity:1"
       id="rect44-0-1-4"
       width="6.0787902"
       height="11.240026"
       x="298.33926"
       y="573.34515" /><rect
       style="fill:#000000;fill-opacity:1;stroke:#000000;stroke-opacity:1"
       id="rect44-0-1-4-7"
       width="6.0787902"
       height="11.240026"
       x="298.40475"
       y="558.31537" /><rect
       style="fill:#000000;fill-opacity:1;stroke:#000000;stroke-opacity:1"
       id="rect44-0-1-4-7-0"
       width="6.0787902"
       height="11.240026"
       x="298.33926"
       y="543.53961" /><path
       style="fill:#2e942e;fill-opacity:1;stroke:#000000;stroke-width:0.306678;stroke-opacity:1"
       d="m 283.90363,653.29681 -5.59376,-5.59989 0.012,-24.2245 c 0.0101,-20.31535 0.0772,-24.07483 0.41611,-23.29703 0.40802,0.93649 1.57116,1.67929 2.62957,1.67929 0.31646,0 0.99999,-0.35728 1.51895,-0.79395 0.74883,-0.6301 0.94357,-1.03449 0.94357,-1.95944 0,-1.55909 -0.77824,-2.45856 -2.30322,-2.66199 -1.40472,-0.18738 -2.77422,0.64217 -3.00135,1.81803 -0.0727,0.37615 -0.1321,-0.97215 -0.1321,-2.99622 0,-2.02407 0.0595,-3.37237 0.1321,-2.99622 0.19022,0.98477 1.53335,1.92285 2.75311,1.92285 1.47686,0 2.55146,-1.13409 2.55146,-2.6927 0,-2.86321 -3.95141,-3.76846 -5.08505,-1.16496 -0.37396,0.85884 -0.41004,0.62531 -0.39893,-2.58257 0.007,-1.93973 0.0879,-3.31978 0.18037,-3.06677 0.71224,1.94838 3.46795,2.55762 4.66799,1.03201 0.88241,-1.1218 0.83167,-2.70391 -0.11714,-3.65271 -1.45502,-1.45503 -4.06824,-0.74215 -4.54791,1.24065 -0.0816,0.33734 -0.15899,-1.04271 -0.17195,-3.06678 -0.022,-3.42923 0.006,-3.61202 0.41062,-2.68109 0.74056,1.70398 2.6193,2.07521 4.11843,0.81377 0.75747,-0.63737 0.94357,-1.03053 0.94357,-1.99341 0,-2.87603 -3.69662,-3.76339 -4.98304,-1.19616 l -0.53621,1.07008 0.0413,-3.68013 c 0.0227,-2.02407 0.10074,-3.37237 0.17339,-2.99621 0.19022,0.98476 1.53335,1.92284 2.75311,1.92284 2.88432,0 3.5177,-4.20486 0.78961,-5.24208 -1.21058,-0.46026 -2.80685,0.19712 -3.31513,1.36523 -0.38564,0.88625 -0.41862,0.68095 -0.41178,-2.56338 0.004,-2.13237 0.1067,-3.28428 0.25848,-2.91343 0.76527,1.86975 3.27885,2.38781 4.52971,0.9336 0.95784,-1.11357 0.93523,-2.72022 -0.0522,-3.70764 -1.45502,-1.45503 -4.06824,-0.74215 -4.54791,1.24065 -0.0816,0.33735 -0.16417,-1.0427 -0.18348,-3.06678 l -0.0351,-3.68013 0.53621,1.05511 c 1.28999,2.53834 4.98304,1.64273 4.98304,-1.20844 0,-2.85118 -3.69305,-3.74679 -4.98304,-1.20845 l -0.53621,1.05511 0.0413,-3.68013 c 0.0227,-2.02408 0.10074,-3.37237 0.17339,-2.99622 0.19022,0.98476 1.53335,1.92284 2.75311,1.92284 2.24634,0 3.37262,-2.69133 1.86143,-4.44807 -1.18914,-1.38238 -3.67706,-1.06058 -4.38526,0.56721 -0.38843,0.8928 -0.4209,0.69537 -0.4209,-2.55936 0,-3.23388 0.0345,-3.44744 0.41588,-2.5713 0.74902,1.72089 3.28994,2.00456 4.47385,0.49946 1.39188,-1.76948 0.23472,-4.36839 -1.945,-4.36839 -1.21976,0 -2.56289,0.93808 -2.75311,1.92284 -0.0727,0.37616 -0.15068,-0.97214 -0.17339,-2.99621 l -0.0413,-3.68013 0.53621,1.07008 c 1.27819,2.55081 4.98304,1.6412 4.98304,-1.22342 0,-2.85118 -3.69305,-3.74679 -4.98304,-1.20845 -0.51405,1.01151 -0.53623,-0.17718 -0.53668,-28.76928 l -4.8e-4,-29.82439 h 44.62158 44.62159 v 88.24957 88.24957 l -5.5999,5.59376 -5.59989,5.59375 -10.57735,-0.0111 -10.57734,-0.0111 -0.61336,-1.27631 c -1.21675,-2.53191 -1.18102,-2.52351 -11.13892,-2.62132 -8.63457,-0.0848 -8.82031,-0.0736 -10.17517,0.61335 -1.02165,0.51803 -1.53728,1.03825 -1.98547,2.00313 l -0.60541,1.30338 H 300.0888 289.49738 Z m 41.6586,-2.45769 c 1.66674,-1.12322 2.4294,-2.51186 2.4294,-4.42344 0,-1.91045 -0.50805,-3.06503 -1.84299,-4.18831 -2.13423,-1.79583 -5.17709,-1.6626 -7.15288,0.3132 -2.50375,2.50375 -1.95526,6.52337 1.14839,8.41596 1.38805,0.84642 4.07423,0.78821 5.41808,-0.11741 z m -0.20619,-15.02495 c 1.77595,-1.01553 2.42105,-2.0667 2.57507,-4.19592 0.11308,-1.56326 0.0153,-2.0326 -0.66582,-3.19478 -1.4465,-2.46827 -4.331,-3.2809 -6.94981,-1.95792 -3.14442,1.58852 -3.90801,5.4969 -1.60798,8.23033 1.59312,1.89332 4.4522,2.37422 6.64854,1.11829 z m -0.217,-14.97494 c 2.45434,-1.18812 3.55704,-4.43781 2.42512,-7.14689 -1.35281,-3.23773 -6.36724,-3.95027 -8.74462,-1.24259 -2.4226,2.75919 -1.71205,6.72164 1.49594,8.34227 1.70387,0.86077 3.11446,0.87457 4.82356,0.0472 z m 0.0925,-15.16574 c 1.81244,-0.91504 2.76009,-2.57224 2.76009,-4.82667 0,-2.99675 -2.13506,-5.12569 -5.14044,-5.12569 -2.14833,0 -3.74732,0.87153 -4.69606,2.55959 -2.5969,4.62055 2.34378,9.78211 7.07641,7.39277 z m 40.27158,-4.17558 c 1.03081,-0.54901 1.41615,-1.22256 1.42681,-2.49394 0.0131,-1.56001 -1.06629,-2.66949 -2.59701,-2.66949 -1.53261,0 -2.60676,1.10744 -2.60676,2.68755 0,2.18289 1.9397,3.45441 3.77696,2.47588 z m -60.5123,-7.46351 v -6.28689 h -3.68013 -3.68013 v 6.28689 6.28689 h 3.68013 3.68013 z m 61.19611,-0.59941 c 2.00679,-2.00679 -0.15032,-5.4583 -2.78521,-4.45652 -1.18175,0.4493 -1.65432,1.16981 -1.6658,2.53978 -0.0201,2.39918 2.76795,3.5998 4.45101,1.91674 z m -36.66191,-6.14749 v -5.36686 h -6.90024 -6.90025 v 5.36686 5.36685 h 6.90025 6.90024 z m 36.70487,-1.43351 c 0.50487,-0.47429 0.70979,-1.00957 0.70979,-1.85401 0,-2.34577 -2.53414,-3.52907 -4.40546,-2.05708 -1.06464,0.83744 -1.13661,2.80859 -0.14125,3.86811 0.89873,0.95665 2.8412,0.97841 3.83692,0.043 z m -61.23907,-6.84679 v -6.28689 h -3.68013 -3.68013 v 6.28689 6.28689 h 3.68013 3.68013 z m 24.5342,-5.21352 v -5.36685 h -6.90024 -6.90025 v 5.36685 5.36686 h 6.90025 6.90024 z m 36.16602,4.91819 c 0.99065,-0.51229 1.24864,-1.01971 1.24864,-2.45587 0,-1.43079 -0.8259,-2.31358 -2.35657,-2.51889 -1.70491,-0.22868 -2.85695,0.81603 -2.85695,2.59078 0,2.28834 1.91879,3.44205 3.96488,2.38398 z m 0.49589,-7.97102 c 1.05071,-1.05072 1.04025,-2.85704 -0.0223,-3.85529 -1.72223,-1.61796 -4.43844,-0.44582 -4.43844,1.91534 0,2.42524 2.77058,3.63014 4.46077,1.93995 z M 304.99082,563.98 v -6.28689 h -3.68013 -3.68013 v 6.28689 6.28689 h 3.68013 3.68013 z m 24.5342,-3.68013 v -5.36685 h -6.90024 -6.90025 v 5.36685 5.36686 h 6.90025 6.90024 z m 36.72464,2.81765 c 1.63336,-1.47821 0.38279,-4.50437 -1.86144,-4.50437 -1.63687,0 -2.66206,0.99187 -2.66206,2.57556 0,2.54771 2.60995,3.66059 4.5235,1.92881 z m -0.55862,-7.09979 c 0.96528,-0.49917 1.24864,-1.02371 1.24864,-2.31142 0,-1.30134 -0.28463,-1.81292 -1.30113,-2.33857 -1.92755,-0.99678 -3.91239,0.15668 -3.91239,2.27363 0,2.35394 1.8565,3.46664 3.96488,2.37636 z m -60.70022,-6.75825 v -6.28689 h -3.68013 -3.68013 v 6.28689 6.28689 h 3.68013 3.68013 z m 24.5342,-2.45342 v -5.36686 h -6.90024 -6.90025 v 5.36686 5.36686 h 6.90025 6.90024 z m 36.66191,1.24065 c 1.69841,-1.69841 0.54073,-4.5221 -1.85401,-4.5221 -1.62583,0 -2.60676,1.01575 -2.60676,2.69929 0,1.04382 0.16139,1.43129 0.80806,1.93995 1.12179,0.8824 2.7039,0.83167 3.65271,-0.11714 z m 0.0627,-7.60373 c 0.97712,-0.91207 0.94635,-2.76214 -0.0627,-3.77122 -1.69019,-1.69019 -4.46077,-0.48529 -4.46077,1.93995 0,2.46457 2.68186,3.55028 4.5235,1.83127 z m 0.15334,-7.6154 c 0.58465,-0.71535 0.71073,-2.45055 0.24172,-3.3269 -0.40422,-0.7553 -1.9807,-1.35972 -2.927,-1.12221 -1.73774,0.43614 -2.56436,2.52377 -1.66483,4.20455 0.70758,1.32212 3.34809,1.47057 4.35011,0.24456 z m -71.93585,-2.4492 c 1.22768,-0.46515 2.23545,-1.47381 2.89045,-2.893 0.71808,-1.55587 0.71615,-2.73651 -0.007,-4.32909 -2.35693,-5.19013 -10.147,-3.5147 -10.147,2.18234 0,3.72007 3.79575,6.3537 7.26363,5.03975 z m 60.41547,9.2e-4 c 1.17485,-0.44389 2.53721,-1.76731 3.04784,-2.96074 1.48183,-3.46326 -1.1632,-7.44678 -4.94461,-7.44678 -2.8898,0 -5.36685,2.46328 -5.36685,5.33704 0,3.71363 3.81194,6.37462 7.26362,5.07048 z m -60.1414,-15.28257 c 3.21462,-1.46001 4.16314,-5.61325 1.87669,-8.21737 -3.36451,-3.83197 -9.39532,-1.63195 -9.4082,3.43207 -0.005,1.7789 0.67006,3.08019 2.19111,4.22672 1.67258,1.26075 3.3972,1.44114 5.3404,0.55858 z m 60.42698,-0.005 c 5.20282,-2.3627 3.52863,-10.147 -2.18235,-10.147 -4.36626,0 -6.91847,5.01935 -4.29867,8.45408 0.9479,1.24277 2.88917,2.26616 4.29867,2.26616 0.50602,0 1.48808,-0.25796 2.18235,-0.57324 z m -59.86073,-15.44224 c 1.6758,-0.95363 2.72215,-2.96466 2.54649,-4.89425 -0.26432,-2.9036 -2.4814,-4.90849 -5.42797,-4.90849 -3.41656,0 -5.61088,2.68394 -5.12937,6.27387 0.47568,3.54643 4.70559,5.40976 8.01085,3.52887 z m 60.86443,-0.2007 c 1.1948,-0.85078 2.16447,-2.78175 2.17408,-4.32943 0.008,-1.34286 -1.1081,-3.59294 -2.16375,-4.36087 -1.74299,-1.26794 -4.67389,-1.26318 -6.39209,0.0104 -1.16989,0.86714 -2.1603,2.7969 -2.1661,4.22052 -0.007,1.64347 1.11839,3.79827 2.44838,4.6892 1.46607,0.9821 4.5613,0.86548 6.09948,-0.2298 z M 294.67324,484.8953 c 1.45044,-0.60604 2.8972,-2.49463 3.13724,-4.09533 0.71707,-4.78173 -5.05704,-8.07129 -8.64216,-4.92351 -1.44266,1.26667 -1.9658,2.37058 -1.95976,4.13534 0.0132,3.84588 3.88528,6.37906 7.46468,4.8835 z m 60.93163,-0.28429 c 2.4269,-1.28337 3.45736,-4.57396 2.17887,-6.95784 -0.31293,-0.58349 -1.08477,-1.47837 -1.71519,-1.98862 -1.00515,-0.81353 -1.38456,-0.92771 -3.0827,-0.92771 -1.70132,0 -2.07958,0.11437 -3.11498,0.94184 -2.24449,1.79375 -2.83116,4.26144 -1.61189,6.78011 1.2883,2.66127 4.56684,3.62183 7.34589,2.15222 z"
       id="path47" /></g></svg>
