<?xml version="1.0" encoding="UTF-8"?>
<svg id="Ebene_2" data-name="Ebene 2" xmlns="http://www.w3.org/2000/svg" viewBox="0 0 70.87 70.87">
  <defs>
    <style>
      .cls-1 {
        fill: #063;
      }

      .cls-2 {
        fill: #1d1d1b;
      }
    </style>
  </defs>
  <g id="Ebene_1-2" data-name="Ebene 1">
    <g>
      <path class="cls-1" d="M62.36,0H8.5C3.81,0,0,3.81,0,8.5v53.86c0,4.7,3.81,8.5,8.5,8.5h53.86c4.7,0,8.5-3.81,8.5-8.5V8.5c0-4.7-3.81-8.5-8.5-8.5ZM7.09,68.03c-2.35,0-4.25-1.9-4.25-4.25s1.9-4.25,4.25-4.25,4.25,1.9,4.25,4.25-1.9,4.25-4.25,4.25ZM7.09,11.34c-2.35,0-4.25-1.9-4.25-4.25s1.9-4.25,4.25-4.25,4.25,1.9,4.25,4.25-1.9,4.25-4.25,4.25ZM63.78,68.03c-2.35,0-4.25-1.9-4.25-4.25s1.9-4.25,4.25-4.25,4.25,1.9,4.25,4.25-1.9,4.25-4.25,4.25ZM63.78,11.34c-2.35,0-4.25-1.9-4.25-4.25s1.9-4.25,4.25-4.25,4.25,1.9,4.25,4.25-1.9,4.25-4.25,4.25Z"/>
      <rect class="cls-2" x="14.26" y="26.64" width="17.01" height="17.01"/>
    </g>
  </g>
</svg>