<?xml version="1.0" encoding="UTF-8"?>
<svg id="Ebene_2" data-name="Ebene 2" xmlns="http://www.w3.org/2000/svg" viewBox="0 0 56.69 69.14">
  <defs>
    <style>
      .cls-1 {
        fill: none;
      }

      .cls-2 {
        fill: #1d1d1b;
      }

      .cls-3 {
        fill: #c6c6c6;
      }
    </style>
  </defs>
  <g id="Ebene_1-2" data-name="Ebene 1">
    <g id="Timer">
      <path class="cls-2" d="M50.81,23.52l4.05-4.05c.55-.55.55-1.45,0-2l-3.19-3.19c-.55-.55-1.45-.55-2,0l-4.05,4.05c-3.9-3-8.6-5.01-13.73-5.65v-5.59h2.83c.78,0,1.42-.63,1.42-1.42V1.42c0-.78-.63-1.42-1.42-1.42h-12.76c-.78,0-1.42.63-1.42,1.42v4.25c0,.78.63,1.42,1.42,1.42h2.83v5.59C10.82,14.42,0,26.34,0,40.79c0,15.65,12.69,28.35,28.35,28.35s28.35-12.69,28.35-28.35c0-6.5-2.2-12.49-5.88-17.28ZM28.35,64.18c-12.92,0-23.39-10.47-23.39-23.39s10.47-23.39,23.39-23.39,23.39,10.47,23.39,23.39-10.47,23.39-23.39,23.39Z"/>
      <path class="cls-3" d="M28.35,20.95v39.68c10.96,0,19.84-8.88,19.84-19.84s-8.88-19.84-19.84-19.84Z"/>
      <g>
        <rect class="cls-1" x="8.5" y="20.95" width="39.69" height="39.69"/>
        <path d="M20.79,54.71v-3.52c2.25-2.48,5.17-6.08,7.28-8.68,1.88-2.4,3.15-4.24,3.15-7.08,0-2.4-1.17-4-3.19-4s-3.25,1.48-3.25,3.96c0,.48.07,1.24.17,1.72l-3.99.32c-.13-.56-.2-1.36-.2-2.12,0-4.48,2.38-8.04,7.28-8.04s7.31,3.6,7.31,8.12-2.68,7.28-4.66,9.92c-1.04,1.36-2.99,3.76-4.23,5.2h6.17v-2.96h3.25v7.16h-15.1Z"/>
      </g>
    </g>
  </g>
</svg>