<?xml version="1.0" encoding="UTF-8" standalone="no"?>
<svg
   id="Ebene_2"
   data-name="Ebene 2"
   viewBox="0 0 127.56 70.87"
   version="1.1"
   sodipodi:docname="Icon_OLED-Display.svg"
   inkscape:version="1.4 (e7c3feb1, 2024-10-09)"
   xmlns:inkscape="http://www.inkscape.org/namespaces/inkscape"
   xmlns:sodipodi="http://sodipodi.sourceforge.net/DTD/sodipodi-0.dtd"
   xmlns="http://www.w3.org/2000/svg"
   xmlns:svg="http://www.w3.org/2000/svg">
  <sodipodi:namedview
     id="namedview1"
     pagecolor="#ffffff"
     bordercolor="#000000"
     borderopacity="0.25"
     inkscape:showpageshadow="2"
     inkscape:pageopacity="0.0"
     inkscape:pagecheckerboard="0"
     inkscape:deskcolor="#d1d1d1"
     inkscape:zoom="3.7164"
     inkscape:cx="75.341728"
     inkscape:cy="38.343558"
     inkscape:window-width="1920"
     inkscape:window-height="1142"
     inkscape:window-x="0"
     inkscape:window-y="30"
     inkscape:window-maximized="1"
     inkscape:current-layer="g1" />
  <defs
     id="defs1">
    <rect
       x="14.53019"
       y="13.722958"
       width="51.662899"
       height="21.25713"
       id="rect1" />
    <style
       id="style1">
      .cls-1 {
        fill: #063;
      }

      .cls-2 {
        fill: #1d1d1b;
      }
    </style>
  </defs>
  <g
     id="Ebene_1-2"
     data-name="Ebene 1">
    <g
       id="g1">
      <path
         class="cls-1"
         d="M119.06,0H8.5C3.81,0,0,3.81,0,8.5v53.86c0,4.7,3.81,8.5,8.5,8.5h110.55c4.7,0,8.5-3.81,8.5-8.5V8.5c0-4.7-3.81-8.5-8.5-8.5ZM7.09,68.03c-2.35,0-4.25-1.9-4.25-4.25s1.9-4.25,4.25-4.25,4.25,1.9,4.25,4.25-1.9,4.25-4.25,4.25ZM7.09,11.34c-2.35,0-4.25-1.9-4.25-4.25s1.9-4.25,4.25-4.25,4.25,1.9,4.25,4.25-1.9,4.25-4.25,4.25ZM120.47,68.03c-2.35,0-4.25-1.9-4.25-4.25s1.9-4.25,4.25-4.25,4.25,1.9,4.25,4.25-1.9,4.25-4.25,4.25ZM120.47,11.34c-2.35,0-4.25-1.9-4.25-4.25s1.9-4.25,4.25-4.25,4.25,1.9,4.25,4.25-1.9,4.25-4.25,4.25Z"
         id="path1" />
      <polygon
         class="cls-2"
         points="49.61,70.87 77.95,70.87 77.95,65.2 86.46,65.2 99.21,56.69 99.21,14.17 28.35,14.17 28.35,56.69 41.1,65.2 49.61,65.2 "
         id="polygon1"
         transform="matrix(1.3987179,0,0,1.0047457,-25.295687,-1.143556)"
         style="fill:#1d1d1b;fill-opacity:1" />
      <text
         xml:space="preserve"
         id="text1"
         style="font-weight:bold;font-size:12px;font-family:'DIN Alternate';-inkscape-font-specification:'DIN Alternate Bold';text-align:center;writing-mode:lr-tb;direction:ltr;white-space:pre;shape-inside:url(#rect1);display:inline;fill:none;fill-opacity:1;stroke:#000000;stroke-width:0.896318;stroke-opacity:0" />
    </g>
  </g>
</svg>
