<?xml version="1.0" encoding="UTF-8"?>
<svg id="Ebene_2" data-name="Ebene 2" xmlns="http://www.w3.org/2000/svg" viewBox="0 0 127.56 70.87">
  <defs>
    <style>
      .cls-1 {
        fill: #063;
      }

      .cls-2 {
        fill: #1d1d1b;
      }
    </style>
  </defs>
  <g id="Ebene_1-2" data-name="Ebene 1">
    <g id="OLED">
      <path class="cls-1" d="M119.06,0H8.5C3.81,0,0,3.81,0,8.5v53.86c0,4.7,3.81,8.5,8.5,8.5h110.55c4.7,0,8.5-3.81,8.5-8.5V8.5c0-4.7-3.81-8.5-8.5-8.5ZM7.09,68.03c-2.35,0-4.25-1.9-4.25-4.25s1.9-4.25,4.25-4.25,4.25,1.9,4.25,4.25-1.9,4.25-4.25,4.25ZM7.09,11.34c-2.35,0-4.25-1.9-4.25-4.25s1.9-4.25,4.25-4.25,4.25,1.9,4.25,4.25-1.9,4.25-4.25,4.25ZM120.47,68.03c-2.35,0-4.25-1.9-4.25-4.25s1.9-4.25,4.25-4.25,4.25,1.9,4.25,4.25-1.9,4.25-4.25,4.25ZM120.47,11.34c-2.35,0-4.25-1.9-4.25-4.25s1.9-4.25,4.25-4.25,4.25,1.9,4.25,4.25-1.9,4.25-4.25,4.25Z"/>
      <polygon class="cls-2" points="14.17 11.34 14.17 55.98 32.03 64.91 43.94 64.91 43.94 70.87 83.62 70.87 83.62 64.91 95.53 64.91 113.39 55.98 113.39 11.34 14.17 11.34"/>
    </g>
  </g>
</svg>