<?xml version="1.0" encoding="UTF-8"?>
<svg id="Ebene_2" data-name="Ebene 2" xmlns="http://www.w3.org/2000/svg" viewBox="0 0 56.69 69.14">
  <defs>
    <style>
      .cls-1 {
        fill: none;
      }

      .cls-2 {
        fill: #1d1d1b;
      }

      .cls-3 {
        fill: #c6c6c6;
      }
    </style>
  </defs>
  <g id="Ebene_1-2" data-name="Ebene 1">
    <g id="Timer">
      <path class="cls-2" d="M50.81,23.52l4.05-4.05c.55-.55.55-1.45,0-2l-3.19-3.19c-.55-.55-1.45-.55-2,0l-4.05,4.05c-3.9-3-8.6-5.01-13.73-5.65v-5.59h2.83c.78,0,1.42-.63,1.42-1.42V1.42c0-.78-.63-1.42-1.42-1.42h-12.76c-.78,0-1.42.63-1.42,1.42v4.25c0,.78.63,1.42,1.42,1.42h2.83v5.59C10.82,14.42,0,26.34,0,40.79c0,15.65,12.69,28.35,28.35,28.35s28.35-12.69,28.35-28.35c0-6.5-2.2-12.49-5.88-17.28ZM28.35,64.18c-12.92,0-23.39-10.47-23.39-23.39s10.47-23.39,23.39-23.39,23.39,10.47,23.39,23.39-10.47,23.39-23.39,23.39Z"/>
      <path class="cls-3" d="M28.35,40.79h19.84c0-10.96-8.88-19.84-19.84-19.84v19.84Z"/>
      <g>
        <rect class="cls-1" x="8.5" y="20.95" width="39.69" height="39.69"/>
        <path d="M22.04,50.51h5.47v-18l-5.44,2.24-.87-3.76,6.84-3.32h3.42v22.84h4.56v4.2h-13.99v-4.2Z"/>
      </g>
    </g>
  </g>
</svg>