<?xml version="1.0" encoding="UTF-8"?>
<svg id="Ebene_2" data-name="Ebene 2" xmlns="http://www.w3.org/2000/svg" viewBox="0 0 56.69 75.98">
  <defs>
    <style>
      .cls-1 {
        fill: none;
      }

      .cls-2 {
        fill: #1d1d1b;
      }
    </style>
  </defs>
  <g id="Ebene_1-2" data-name="Ebene 1">
    <g id="Luftfeuchtigkeit">
      <path class="cls-2" d="M56.66,46.79c-.37-9.12-6.12-17.58-11.22-25.04-7.29-9.49-8.66-11.32-13.68-19.27-1.67-2.63-5.48-3.52-7.27-.97-2.09,2.98-3.74,5.53-10.23,14.98-4.92,7.17-11.48,15.03-13.26,23.66-2.09,10.12-1.43,19.74,6.78,27.2,7.7,7,16.93,9.33,27.1,7.27,14.23-2.88,22.37-13.37,21.78-27.84ZM33.79,70.23c-8.46,1.71-16.14-.23-22.54-6.05-6.83-6.2-7.37-14.21-5.64-22.63,1.48-7.18,6.93-13.72,11.03-19.68,7.39-10.76,7.24-10.76,10.79-15.66.32-.44.98-.42,1.26.04,6.43,10.25,6.76,10.73,13.88,19.99,4.24,6.2,9.02,13.24,9.33,20.83.49,12.03-6.28,20.76-18.12,23.16Z"/>
      <g>
        <rect class="cls-1" x="8.01" y="27.39" width="39.69" height="39.69"/>
        <path d="M26.76,38.48c0,4.55-2.18,8.25-6.8,8.25s-6.71-3.7-6.71-8.25,2.18-8.15,6.71-8.15,6.8,3.7,6.8,8.15ZM22.69,38.48c0-2.1-.84-3.5-2.73-3.5s-2.73,1.4-2.73,3.5c0,2.25.88,3.6,2.73,3.6s2.73-1.35,2.73-3.6ZM38.17,31.48l-17.28,33.15h-3.44v-.65l17.16-33.15h3.57v.65ZM42.45,56.93c0,4.6-2.14,8.25-6.8,8.25s-6.71-3.65-6.71-8.25,2.22-8.15,6.71-8.15c4.78,0,6.8,3.75,6.8,8.15ZM38.42,56.93c0-2.1-.88-3.45-2.77-3.45s-2.68,1.35-2.68,3.45c0,2.25.88,3.65,2.68,3.65s2.77-1.4,2.77-3.65Z"/>
      </g>
    </g>
  </g>
</svg>