<?xml version="1.0" encoding="UTF-8"?>
<svg id="Ebene_2" data-name="Ebene 2" xmlns="http://www.w3.org/2000/svg" viewBox="0 0 49.25 95.82">
  <defs>
    <style>
      .cls-1 {
        fill: #1d1d1b;
      }
    </style>
  </defs>
  <g id="Ebene_1-2" data-name="Ebene 1">
    <g>
      <path class="cls-1" d="M31.89,56.17V10.63c0-5.87-4.76-10.63-10.63-10.63h0c-5.87,0-10.63,4.76-10.63,10.63v45.54c-6.35,3.68-10.63,10.53-10.63,18.39,0,11.74,9.52,21.26,21.26,21.26s21.26-9.52,21.26-21.26c0-7.86-4.28-14.71-10.63-18.39ZM21.26,92.28c-9.78,0-17.72-7.93-17.72-17.72,0-7.26,4.38-13.5,10.63-16.23V11.73c0-3.91,3.17-7.09,7.09-7.09h0c3.91,0,7.09,3.17,7.09,7.09v46.6c6.25,2.73,10.63,8.97,10.63,16.23,0,9.78-7.93,17.72-17.72,17.72Z"/>
      <path class="cls-1" d="M24.26,62.91V28.61c0-1.66-1.34-3-3-3s-3,1.34-3,3v34.3c-5.2,1.34-9.05,6.04-9.05,11.66,0,6.65,5.39,12.05,12.05,12.05s12.05-5.39,12.05-12.05c0-5.62-3.85-10.32-9.05-11.66Z"/>
      <g>
        <path class="cls-1" d="M47.48,16.54h-8.5c-.98,0-1.77-.79-1.77-1.77s.79-1.77,1.77-1.77h8.5c.98,0,1.77.79,1.77,1.77s-.79,1.77-1.77,1.77Z"/>
        <path class="cls-1" d="M43.94,24.29h-4.96c-.98,0-1.77-.79-1.77-1.77s.79-1.77,1.77-1.77h4.96c.98,0,1.77.79,1.77,1.77s-.79,1.77-1.77,1.77Z"/>
        <path class="cls-1" d="M47.48,32.03h-8.5c-.98,0-1.77-.79-1.77-1.77s.79-1.77,1.77-1.77h8.5c.98,0,1.77.79,1.77,1.77s-.79,1.77-1.77,1.77Z"/>
        <path class="cls-1" d="M47.48,47.51h-8.5c-.98,0-1.77-.79-1.77-1.77s.79-1.77,1.77-1.77h8.5c.98,0,1.77.79,1.77,1.77s-.79,1.77-1.77,1.77Z"/>
        <path class="cls-1" d="M43.94,39.77h-4.96c-.98,0-1.77-.79-1.77-1.77s.79-1.77,1.77-1.77h4.96c.98,0,1.77.79,1.77,1.77s-.79,1.77-1.77,1.77Z"/>
      </g>
    </g>
  </g>
</svg>